%FSTAX24Y24*%
%MOIN*%
%SFA1B1*%

%IPPOS*%
%ADD55C,0.010000*%
%ADD58C,0.008000*%
%ADD96C,0.009840*%
%ADD97C,0.003940*%
%ADD98C,0.023620*%
%ADD99C,0.007870*%
%LNkarmandb-1*%
%LPD*%
G54D55*
X003945Y029164D02*
D01*
D01*
G75*
G03X003926I-000009J0D01*
G74*G01*
D01*
G75*
G03X003945I000009J0D01*
G74*G01*
X013843Y006538D02*
Y009136D01*
X012189D02*
X013843D01*
X012189Y006538D02*
X013843D01*
X012189D02*
Y009136D01*
X00535Y0073D02*
Y0123D01*
X00035D02*
X00535D01*
X00035Y0073D02*
Y0123D01*
Y0073D02*
X00535D01*
X050888Y030811D02*
X052896D01*
Y029788D02*
Y030811D01*
X050888Y029788D02*
X052896D01*
X050888D02*
Y030811D01*
X017738Y025361D02*
X019746D01*
Y024338D02*
Y025361D01*
X017738Y024338D02*
X019746D01*
X017738D02*
Y025361D01*
X018238Y028738D02*
Y030746D01*
X019261*
Y028738D02*
Y030746D01*
X018238Y028738D02*
X019261D01*
X006138Y002061D02*
X008146D01*
Y001038D02*
Y002061D01*
X006138Y001038D02*
X008146D01*
X006138D02*
Y002061D01*
X041138Y026411D02*
X043146D01*
Y025388D02*
Y026411D01*
X041138Y025388D02*
X043146D01*
X041138D02*
Y026411D01*
X036288Y002561D02*
X038296D01*
Y001538D02*
Y002561D01*
X036288Y001538D02*
X038296D01*
X036288D02*
Y002561D01*
X028638Y005761D02*
X03165D01*
Y00375D02*
Y005761D01*
X028638Y00375D02*
X03165D01*
X028638D02*
Y005761D01*
X023188Y015238D02*
Y016261D01*
Y015238D02*
X025196D01*
Y016261*
X023188D02*
X025196D01*
X035261Y017488D02*
Y018511D01*
X033253Y017488D02*
X035261D01*
X033253Y018511D02*
X035261D01*
X033253Y017488D02*
Y018511D01*
X0018Y02025D02*
X0068D01*
Y02525*
X0018D02*
X0068D01*
X0018Y02025D02*
Y02525D01*
X00035Y01275D02*
X00535D01*
Y01775*
X00035D02*
X00535D01*
X00035Y01275D02*
Y01775D01*
X008088Y023461D02*
X0121D01*
Y022438D02*
Y023461D01*
X008088Y022438D02*
X0121D01*
X008088D02*
Y023461D01*
X057882Y007612D02*
X060717D01*
Y018833*
X057882D02*
X060717D01*
X057882Y007612D02*
Y018833D01*
X054791Y028821D02*
X055342D01*
X054791Y025278D02*
X055382D01*
X054791D02*
Y028821D01*
X059437D02*
X060618D01*
Y025278D02*
Y028821D01*
X059437Y025278D02*
X060618D01*
X060815Y024805D02*
Y029372D01*
G54D58*
X014099Y006299D02*
X014049Y006349D01*
X01395*
X0139Y006299*
Y0061*
X01395Y00605*
X014049*
X014099Y0061*
X014399Y006349D02*
X014199D01*
Y006199*
X014299Y006249*
X014349*
X014399Y006199*
Y0061*
X014349Y00605*
X014249*
X014199Y0061*
X014649Y00605D02*
Y006349D01*
X014499Y006199*
X014699*
X0141Y007949D02*
X014299Y00765D01*
Y007949D02*
X0141Y00765D01*
X014399D02*
X014499D01*
X014449*
Y007949*
X014399Y007899*
X0089Y012699D02*
Y01245D01*
X00895Y0124*
X00905*
X009099Y01245*
Y012699*
X009349Y0124D02*
Y012699D01*
X009199Y012549*
X009399*
X009099Y011699D02*
X00905Y011749D01*
X00895*
X0089Y011699*
Y0115*
X00895Y01145*
X00905*
X009099Y0115*
X009349Y01145D02*
Y011749D01*
X009199Y011599*
X009399*
X009499Y011699D02*
X009549Y011749D01*
X009649*
X009699Y011699*
Y011649*
X009649Y011599*
X009699Y01155*
Y0115*
X009649Y01145*
X009549*
X009499Y0115*
Y01155*
X009549Y011599*
X009499Y011649*
Y011699*
X009549Y011599D02*
X009649D01*
X0084Y0094D02*
Y009699D01*
X00855*
X008599Y009649*
Y009549*
X00855Y0095*
X0084*
X0085D02*
X008599Y0094D01*
X008899D02*
X008699D01*
X008899Y009599*
Y009649*
X008849Y009699*
X008749*
X008699Y009649*
X009149Y0094D02*
Y009699D01*
X008999Y009549*
X009199*
X008549Y008999D02*
X0085Y009049D01*
X0084*
X00835Y008999*
Y0088*
X0084Y00875*
X0085*
X008549Y0088*
X008849Y009049D02*
X008649D01*
Y008899*
X008749Y008949*
X008799*
X008849Y008899*
Y0088*
X008799Y00875*
X008699*
X008649Y0088*
X009149Y00875D02*
X008949D01*
X009149Y008949*
Y008999*
X009099Y009049*
X008999*
X008949Y008999*
X007699Y008199D02*
X007649Y008249D01*
X00755*
X0075Y008199*
Y008*
X00755Y00795*
X007649*
X007699Y008*
X007999Y008249D02*
X007799D01*
Y008099*
X007899Y008149*
X007949*
X007999Y008099*
Y008*
X007949Y00795*
X007849*
X007799Y008*
X008099Y00795D02*
X008199D01*
X008149*
Y008249*
X008099Y008199*
X008399Y006799D02*
X008349Y006849D01*
X00825*
X0082Y006799*
Y0066*
X00825Y00655*
X008349*
X008399Y0066*
X008649Y00655D02*
Y006849D01*
X008499Y0067*
X008699*
X008999Y006849D02*
X008899Y006799D01*
X008799Y0067*
Y0066*
X008849Y00655*
X008949*
X008999Y0066*
Y00665*
X008949Y0067*
X008799*
X01045Y006699D02*
Y00645D01*
X0105Y0064*
X0106*
X010649Y00645*
Y006699*
X010749Y0064D02*
X010849D01*
X010799*
Y006699*
X010749Y006649*
X010999D02*
X011049Y006699D01*
X011149*
X011199Y006649*
Y006599*
X011149Y00655*
X011199Y0065*
Y00645*
X011149Y0064*
X011049*
X010999Y00645*
Y0065*
X011049Y00655*
X010999Y006599*
Y006649*
X011049Y00655D02*
X011149D01*
X0114Y009199D02*
Y0089D01*
X011599*
X011699Y009149D02*
X011749Y009199D01*
X011849*
X011899Y009149*
Y009099*
X011849Y00905*
X011899Y009*
Y00895*
X011849Y0089*
X011749*
X011699Y00895*
Y009*
X011749Y00905*
X011699Y009099*
Y009149*
X011749Y00905D02*
X011849D01*
X01185Y010099D02*
Y0098D01*
X012049*
X012149Y00985D02*
X012199Y0098D01*
X012299*
X012349Y00985*
Y010049*
X012299Y010099*
X012199*
X012149Y010049*
Y009999*
X012199Y009949*
X012349*
X00935Y010299D02*
Y01D01*
X009549*
X009649Y010299D02*
X009849D01*
Y010249*
X009649Y01005*
Y01*
X012849Y010999D02*
X012799Y011049D01*
X0127*
X01265Y010999*
Y0108*
X0127Y01075*
X012799*
X012849Y0108*
X013149Y011049D02*
X012949D01*
Y0109*
X013049Y010949*
X013099*
X013149Y0109*
Y0108*
X013099Y01075*
X012999*
X012949Y0108*
X013249Y010999D02*
X013299Y011049D01*
X013399*
X013449Y010999*
Y0108*
X013399Y01075*
X013299*
X013249Y0108*
Y010999*
X013899Y009599D02*
X013849Y009649D01*
X01375*
X0137Y009599*
Y0094*
X01375Y00935*
X013849*
X013899Y0094*
X014199Y009649D02*
X013999D01*
Y009499*
X014099Y009549*
X014149*
X014199Y009499*
Y0094*
X014149Y00935*
X014049*
X013999Y0094*
X014299Y009599D02*
X014349Y009649D01*
X014449*
X014499Y009599*
Y009549*
X014449Y009499*
X014399*
X014449*
X014499Y00945*
Y0094*
X014449Y00935*
X014349*
X014299Y0094*
X01305Y018649D02*
X013249D01*
X01315*
Y01835*
X013349D02*
Y018649D01*
X013499*
X013549Y018599*
Y0185*
X013499Y01845*
X013349*
X013649Y018599D02*
X013699Y018649D01*
X013799*
X013849Y018599*
Y018549*
X013799Y0185*
X013749*
X013799*
X013849Y01845*
Y0184*
X013799Y01835*
X013699*
X013649Y0184*
X014099Y01835D02*
Y018649D01*
X013949Y0185*
X014149*
X011699Y016549D02*
X011649Y016599D01*
X01155*
X0115Y016549*
Y01635*
X01155Y0163*
X011649*
X011699Y01635*
X011799Y016549D02*
X011849Y016599D01*
X011949*
X011999Y016549*
Y016499*
X011949Y016449*
X011999Y0164*
Y01635*
X011949Y0163*
X011849*
X011799Y01635*
Y0164*
X011849Y016449*
X011799Y016499*
Y016549*
X011849Y016449D02*
X011949D01*
X0077D02*
X007899D01*
Y016399*
X0077Y0162*
Y01615*
X007899*
X008149D02*
Y016449D01*
X007999Y016299*
X008199*
X00605Y016449D02*
X006249D01*
Y016399*
X00605Y0162*
Y01615*
X006249*
X006549Y016449D02*
X006449Y016399D01*
X006349Y016299*
Y0162*
X006399Y01615*
X006499*
X006549Y0162*
Y01625*
X006499Y016299*
X006349*
X012549Y013499D02*
X012499Y013549D01*
X0124*
X01235Y013499*
Y0133*
X0124Y01325*
X012499*
X012549Y0133*
X012649D02*
X012699Y01325D01*
X012799*
X012849Y0133*
Y013499*
X012799Y013549*
X012699*
X012649Y013499*
Y013449*
X012699Y0134*
X012849*
X016Y014799D02*
X016199D01*
X0161*
Y0145*
X016299D02*
Y014799D01*
X016449*
X016499Y014749*
Y01465*
X016449Y0146*
X016299*
X016749Y0145D02*
Y014799D01*
X016599Y01465*
X016799*
X016899Y01455D02*
X016949Y0145D01*
X017049*
X017099Y01455*
Y014749*
X017049Y014799*
X016949*
X016899Y014749*
Y014699*
X016949Y01465*
X017099*
X00275Y028899D02*
X002949D01*
Y028849*
X00275Y02865*
Y0286*
X002949*
X003049Y02865D02*
X003099Y0286D01*
X003199*
X003249Y02865*
Y028849*
X003199Y028899*
X003099*
X003049Y028849*
Y028799*
X003099Y028749*
X003249*
X0025Y028099D02*
X002699D01*
Y028049*
X0025Y02785*
Y0278*
X002699*
X002799Y028049D02*
X002849Y028099D01*
X002949*
X002999Y028049*
Y027999*
X002949Y02795*
X002999Y0279*
Y02785*
X002949Y0278*
X002849*
X002799Y02785*
Y0279*
X002849Y02795*
X002799Y027999*
Y028049*
X002849Y02795D02*
X002949D01*
X00265Y027349D02*
X002849D01*
Y027299*
X00265Y0271*
Y02705*
X002849*
X002949Y027349D02*
X003149D01*
Y027299*
X002949Y0271*
Y02705*
X00693Y016458D02*
X007129D01*
Y016408*
X00693Y016208*
Y016158*
X007129*
X007429Y016458D02*
X007229D01*
Y016308*
X007329Y016358*
X007379*
X007429Y016308*
Y016208*
X007379Y016158*
X007279*
X007229Y016208*
X00815Y011299D02*
X008349D01*
Y011249*
X00815Y01105*
Y011*
X008349*
X008449Y011249D02*
X008499Y011299D01*
X008599*
X008649Y011249*
Y011199*
X008599Y01115*
X008549*
X008599*
X008649Y0111*
Y01105*
X008599Y011*
X008499*
X008449Y01105*
X008Y012249D02*
X008199D01*
Y012199*
X008Y012*
Y01195*
X008199*
X008499D02*
X008299D01*
X008499Y012149*
Y012199*
X008449Y012249*
X008349*
X008299Y012199*
X00805Y012949D02*
X008249D01*
Y012899*
X00805Y0127*
Y01265*
X008249*
X008349D02*
X008449D01*
X008399*
Y012949*
X008349Y012899*
X051119Y031439D02*
X05102D01*
X05107*
Y03119*
X05102Y03114*
X05097*
X05092Y03119*
X051219D02*
X051269Y03114D01*
X051369*
X051419Y03119*
Y031389*
X051369Y031439*
X051269*
X051219Y031389*
Y031339*
X051269Y03129*
X051419*
X01797Y025989D02*
X01787D01*
X01792*
Y02574*
X01787Y02569*
X01782*
X01777Y02574*
X018069Y02569D02*
X018169D01*
X018119*
Y025989*
X018069Y025939*
X018519Y025989D02*
X018419Y025939D01*
X018319Y02584*
Y02574*
X018369Y02569*
X018469*
X018519Y02574*
Y02579*
X018469Y02584*
X018319*
X018469Y031379D02*
X01837D01*
X01842*
Y03113*
X01837Y03108*
X01832*
X01827Y03113*
X018569Y03108D02*
X018669D01*
X018619*
Y031379*
X018569Y031329*
X019019Y031379D02*
X018819D01*
Y03123*
X018919Y031279*
X018969*
X019019Y03123*
Y03113*
X018969Y03108*
X018869*
X018819Y03113*
X006369Y002689D02*
X00627D01*
X00632*
Y00244*
X00627Y00239*
X00622*
X00617Y00244*
X006469Y00239D02*
X006569D01*
X006519*
Y002689*
X006469Y002639*
X006869Y00239D02*
Y002689D01*
X006719Y00254*
X006919*
X041369Y027039D02*
X04127D01*
X04132*
Y02679*
X04127Y02674*
X04122*
X04117Y02679*
X041469Y02674D02*
X041569D01*
X041519*
Y027039*
X041469Y026989*
X041719D02*
X041769Y027039D01*
X041869*
X041919Y026989*
Y026939*
X041869Y02689*
X041819*
X041869*
X041919Y02684*
Y02679*
X041869Y02674*
X041769*
X041719Y02679*
X036519Y003189D02*
X03642D01*
X03647*
Y00294*
X03642Y00289*
X03637*
X03632Y00294*
X036619Y00289D02*
X036719D01*
X036669*
Y003189*
X036619Y003139*
X037069Y00289D02*
X036869D01*
X037069Y003089*
Y003139*
X037019Y003189*
X036919*
X036869Y003139*
X028869Y006389D02*
X02877D01*
X02882*
Y00614*
X02877Y00609*
X02872*
X02867Y00614*
X028969Y00609D02*
X029069D01*
X029019*
Y006389*
X028969Y006339*
X029219Y00609D02*
X029319D01*
X029269*
Y006389*
X029219Y006339*
X00396Y030769D02*
Y03052D01*
X00401Y03047*
X00411*
X00416Y03052*
Y030769*
X004459D02*
X004359Y030719D01*
X004259Y03062*
Y03052*
X004309Y03047*
X004409*
X004459Y03052*
Y03057*
X004409Y03062*
X004259*
X023419Y016889D02*
X02332D01*
X02337*
Y01664*
X02332Y01659*
X02327*
X02322Y01664*
X023519Y016889D02*
X023719D01*
Y016839*
X023519Y01664*
Y01659*
X035849Y018699D02*
X03575D01*
X0358*
Y01845*
X03575Y0184*
X0357*
X03565Y01845*
X036149Y018699D02*
X036049Y018649D01*
X035949Y01855*
Y01845*
X035999Y0184*
X036099*
X036149Y01845*
Y0185*
X036099Y01855*
X035949*
X002029Y025879D02*
X00193D01*
X00198*
Y02563*
X00193Y02558*
X00188*
X00183Y02563*
X002279Y02558D02*
Y025879D01*
X002129Y02573*
X002329*
X005849Y012099D02*
X00575D01*
X005799*
Y01185*
X00575Y0118*
X0057*
X00565Y01185*
X005949Y0118D02*
X006049D01*
X005999*
Y012099*
X005949Y012049*
X0088Y004539D02*
Y00429D01*
X00885Y00424*
X00895*
X009Y00429*
Y004539*
X009099Y00424D02*
X009199D01*
X009149*
Y004539*
X009099Y004489*
X009549Y00424D02*
X009349D01*
X009549Y004439*
Y004489*
X009499Y004539*
X009399*
X009349Y004489*
X032004Y022949D02*
Y0227D01*
X032053Y02265*
X032153*
X032203Y0227*
Y022949*
X032303Y02265D02*
X032403D01*
X032353*
Y022949*
X032303Y022899*
X032703Y02265D02*
Y022949D01*
X032553Y0228*
X032753*
X0106Y015549D02*
Y0153D01*
X01065Y01525*
X01075*
X010799Y0153*
Y015549*
X010899Y015499D02*
X010949Y015549D01*
X011049*
X011099Y015499*
Y015449*
X011049Y015399*
X010999*
X011049*
X011099Y01535*
Y0153*
X011049Y01525*
X010949*
X010899Y0153*
X04705Y030249D02*
Y03D01*
X0471Y02995*
X0472*
X047249Y03*
Y030249*
X047349Y02995D02*
X047449D01*
X047399*
Y030249*
X047349Y030199*
X047599D02*
X047649Y030249D01*
X047749*
X047799Y030199*
Y030149*
X047749Y030099*
X047699*
X047749*
X047799Y03005*
Y03*
X047749Y02995*
X047649*
X047599Y03*
X0201Y030349D02*
Y0301D01*
X02015Y03005*
X02025*
X020299Y0301*
Y030349*
X020399Y03005D02*
X020499D01*
X020449*
Y030349*
X020399Y030299*
X020649Y03005D02*
X020749D01*
X020699*
Y030349*
X020649Y030299*
X04075Y008699D02*
Y00845D01*
X0408Y0084*
X0409*
X040949Y00845*
Y008699*
X041049Y0084D02*
X041149D01*
X041099*
Y008699*
X041049Y008649*
X041299D02*
X041349Y008699D01*
X041449*
X041499Y008649*
Y00845*
X041449Y0084*
X041349*
X041299Y00845*
Y008649*
X0202Y027499D02*
Y02725D01*
X02025Y0272*
X02035*
X020399Y02725*
Y027499*
X020499Y02725D02*
X020549Y0272D01*
X020649*
X020699Y02725*
Y027449*
X020649Y027499*
X020549*
X020499Y027449*
Y027399*
X020549Y027349*
X020699*
X0262Y015949D02*
Y0157D01*
X02625Y01565*
X02635*
X026399Y0157*
Y015949*
X026499D02*
X026699D01*
Y015899*
X026499Y0157*
Y01565*
X0321Y0308D02*
Y031099D01*
X03225*
X032299Y031049*
Y03095*
X03225Y0309*
X0321*
X0322D02*
X032299Y0308D01*
X032599D02*
X032399D01*
X032599Y030999*
Y031049*
X032549Y031099*
X032449*
X032399Y031049*
X032699D02*
X032749Y031099D01*
X032849*
X032899Y031049*
Y030999*
X032849Y03095*
X032799*
X032849*
X032899Y0309*
Y03085*
X032849Y0308*
X032749*
X032699Y03085*
X03395Y0225D02*
Y022799D01*
X0341*
X034149Y022749*
Y02265*
X0341Y0226*
X03395*
X03405D02*
X034149Y0225D01*
X034449D02*
X034249D01*
X034449Y022699*
Y022749*
X034399Y022799*
X034299*
X034249Y022749*
X034749Y0225D02*
X034549D01*
X034749Y022699*
Y022749*
X034699Y022799*
X034599*
X034549Y022749*
X03575Y0225D02*
Y022799D01*
X0359*
X035949Y022749*
Y02265*
X0359Y0226*
X03575*
X03585D02*
X035949Y0225D01*
X036249D02*
X036049D01*
X036249Y022699*
Y022749*
X036199Y022799*
X036099*
X036049Y022749*
X036349Y0225D02*
X036449D01*
X036399*
Y022799*
X036349Y022749*
X051172Y019166D02*
Y019466D01*
X051322*
X051372Y019416*
Y019316*
X051322Y019266*
X051172*
X051272D02*
X051372Y019166D01*
X051472D02*
X051572D01*
X051522*
Y019466*
X051472Y019416*
X051922Y019466D02*
X051822Y019416D01*
X051722Y019316*
Y019216*
X051772Y019166*
X051872*
X051922Y019216*
Y019266*
X051872Y019316*
X051722*
X05005Y01415D02*
Y014449D01*
X0502*
X050249Y014399*
Y014299*
X0502Y01425*
X05005*
X05015D02*
X050249Y01415D01*
X050349D02*
X050449D01*
X050399*
Y014449*
X050349Y014399*
X050799Y014449D02*
X050599D01*
Y014299*
X050699Y014349*
X050749*
X050799Y014299*
Y0142*
X050749Y01415*
X050649*
X050599Y0142*
X05025Y0081D02*
Y008399D01*
X0504*
X050449Y008349*
Y008249*
X0504Y0082*
X05025*
X05035D02*
X050449Y0081D01*
X050549D02*
X050649D01*
X050599*
Y008399*
X050549Y008349*
X050799D02*
X050849Y008399D01*
X050949*
X050999Y008349*
Y00815*
X050949Y0081*
X050849*
X050799Y00815*
Y008349*
X05015Y0017D02*
Y001999D01*
X0503*
X050349Y001949*
Y001849*
X0503Y0018*
X05015*
X05025D02*
X050349Y0017D01*
X050449Y00175D02*
X050499Y0017D01*
X050599*
X050649Y00175*
Y001949*
X050599Y001999*
X050499*
X050449Y001949*
Y001899*
X050499Y001849*
X050649*
X0136Y00365D02*
Y003949D01*
X01375*
X013799Y003899*
Y003799*
X01375Y00375*
X0136*
X0137D02*
X013799Y00365D01*
X013899Y003949D02*
X014099D01*
Y003899*
X013899Y0037*
Y00365*
X02175Y0306D02*
Y030899D01*
X0219*
X021949Y030849*
Y03075*
X0219Y0307*
X02175*
X02185D02*
X021949Y0306D01*
X022249Y030899D02*
X022149Y030849D01*
X022049Y03075*
Y03065*
X022099Y0306*
X022199*
X022249Y03065*
Y0307*
X022199Y03075*
X022049*
X0456Y0239D02*
Y024199D01*
X04575*
X045799Y024149*
Y024049*
X04575Y024*
X0456*
X0457D02*
X045799Y0239D01*
X046099Y024199D02*
X045899D01*
Y024049*
X045999Y024099*
X046049*
X046099Y024049*
Y02395*
X046049Y0239*
X045949*
X045899Y02395*
X02255Y0276D02*
Y027899D01*
X0227*
X022749Y027849*
Y02775*
X0227Y0277*
X02255*
X02265D02*
X022749Y0276D01*
X022999D02*
Y027899D01*
X022849Y02775*
X023049*
X0393Y00285D02*
Y003149D01*
X03945*
X039499Y003099*
Y003*
X03945Y00295*
X0393*
X0394D02*
X039499Y00285D01*
X039799D02*
X039599D01*
X039799Y003049*
Y003099*
X039749Y003149*
X039649*
X039599Y003099*
X0449Y02165D02*
Y021949D01*
X04505*
X045099Y021899*
Y0218*
X04505Y02175*
X0449*
X045D02*
X045099Y02165D01*
X045199D02*
X045299D01*
X045249*
Y021949*
X045199Y021899*
X0152Y003299D02*
Y003D01*
X01535*
X015399Y00305*
Y003249*
X01535Y003299*
X0152*
X015499Y003249D02*
X015549Y003299D01*
X015649*
X015699Y003249*
Y003199*
X015649Y003149*
X015599*
X015649*
X015699Y0031*
Y00305*
X015649Y003*
X015549*
X015499Y00305*
X04445Y026299D02*
Y026D01*
X0446*
X044649Y02605*
Y026249*
X0446Y026299*
X04445*
X044949Y026D02*
X044749D01*
X044949Y026199*
Y026249*
X044899Y026299*
X044799*
X044749Y026249*
X0387Y005499D02*
Y0052D01*
X03885*
X038899Y00525*
Y005449*
X03885Y005499*
X0387*
X038999Y0052D02*
X039099D01*
X039049*
Y005499*
X038999Y005449*
X01125Y011149D02*
X0112Y0111D01*
Y011*
X01125Y01095*
X01145*
X0115Y011*
Y0111*
X01145Y011149*
X0115Y011399D02*
X0112D01*
X01135Y011249*
Y011449*
X01145Y011549D02*
X0115Y011599D01*
Y011699*
X01145Y011749*
X01125*
X0112Y011699*
Y011599*
X01125Y011549*
X0113*
X01135Y011599*
Y011749*
X009399Y011099D02*
X009349Y011149D01*
X00925*
X0092Y011099*
Y0109*
X00925Y01085*
X009349*
X009399Y0109*
X009649Y01085D02*
Y011149D01*
X009499Y011*
X009699*
X009799Y011149D02*
X009999D01*
Y011099*
X009799Y0109*
Y01085*
X033049Y029949D02*
X033Y029999D01*
X0329*
X03285Y029949*
Y02975*
X0329Y0297*
X033*
X033049Y02975*
X033299Y0297D02*
Y029999D01*
X033149Y029849*
X033349*
X033649Y029999D02*
X033449D01*
Y029849*
X033549Y029899*
X033599*
X033649Y029849*
Y02975*
X033599Y0297*
X033499*
X033449Y02975*
X032799Y028899D02*
X03275Y028949D01*
X03265*
X0326Y028899*
Y0287*
X03265Y02865*
X03275*
X032799Y0287*
X033049Y02865D02*
Y028949D01*
X032899Y0288*
X033099*
X033349Y02865D02*
Y028949D01*
X033199Y0288*
X033399*
X038299Y030249D02*
X03825Y030299D01*
X03815*
X0381Y030249*
Y03005*
X03815Y03*
X03825*
X038299Y03005*
X038549Y03D02*
Y030299D01*
X038399Y03015*
X038599*
X038699Y030249D02*
X038749Y030299D01*
X038849*
X038899Y030249*
Y030199*
X038849Y03015*
X038799*
X038849*
X038899Y0301*
Y03005*
X038849Y03*
X038749*
X038699Y03005*
X036249Y028899D02*
X0362Y028949D01*
X0361*
X03605Y028899*
Y0287*
X0361Y02865*
X0362*
X036249Y0287*
X036499Y02865D02*
Y028949D01*
X036349Y0288*
X036549*
X036849Y02865D02*
X036649D01*
X036849Y028849*
Y028899*
X036799Y028949*
X036699*
X036649Y028899*
X041149Y028849D02*
X0411Y028899D01*
X041*
X04095Y028849*
Y02865*
X041Y0286*
X0411*
X041149Y02865*
X041399Y0286D02*
Y028899D01*
X041249Y028749*
X041449*
X041549Y0286D02*
X041649D01*
X041599*
Y028899*
X041549Y028849*
X030999Y030749D02*
X03095Y030799D01*
X03085*
X0308Y030749*
Y03055*
X03085Y0305*
X03095*
X030999Y03055*
X031249Y0305D02*
Y030799D01*
X031099Y03065*
X031299*
X031399Y030749D02*
X031449Y030799D01*
X031549*
X031599Y030749*
Y03055*
X031549Y0305*
X031449*
X031399Y03055*
Y030749*
X029349Y030049D02*
X0293Y030099D01*
X0292*
X02915Y030049*
Y02985*
X0292Y0298*
X0293*
X029349Y02985*
X029449Y030049D02*
X029499Y030099D01*
X029599*
X029649Y030049*
Y029999*
X029599Y02995*
X029549*
X029599*
X029649Y0299*
Y02985*
X029599Y0298*
X029499*
X029449Y02985*
X029749D02*
X029799Y0298D01*
X029899*
X029949Y02985*
Y030049*
X029899Y030099*
X029799*
X029749Y030049*
Y029999*
X029799Y02995*
X029949*
X036649Y020899D02*
X0366Y020949D01*
X0365*
X03645Y020899*
Y0207*
X0365Y02065*
X0366*
X036649Y0207*
X036749Y020899D02*
X036799Y020949D01*
X036899*
X036949Y020899*
Y020849*
X036899Y020799*
X036849*
X036899*
X036949Y02075*
Y0207*
X036899Y02065*
X036799*
X036749Y0207*
X037049Y020899D02*
X037099Y020949D01*
X037199*
X037249Y020899*
Y020849*
X037199Y020799*
X037249Y02075*
Y0207*
X037199Y02065*
X037099*
X037049Y0207*
Y02075*
X037099Y020799*
X037049Y020849*
Y020899*
X037099Y020799D02*
X037199D01*
X032449Y019649D02*
X0324Y019699D01*
X0323*
X03225Y019649*
Y01945*
X0323Y0194*
X0324*
X032449Y01945*
X032549Y019649D02*
X032599Y019699D01*
X032699*
X032749Y019649*
Y019599*
X032699Y01955*
X032649*
X032699*
X032749Y0195*
Y01945*
X032699Y0194*
X032599*
X032549Y01945*
X032849Y019699D02*
X033049D01*
Y019649*
X032849Y01945*
Y0194*
X044899Y028699D02*
X04485Y028749D01*
X04475*
X0447Y028699*
Y0285*
X04475Y02845*
X04485*
X044899Y0285*
X044999Y028699D02*
X045049Y028749D01*
X045149*
X045199Y028699*
Y028649*
X045149Y028599*
X045099*
X045149*
X045199Y02855*
Y0285*
X045149Y02845*
X045049*
X044999Y0285*
X045449Y02845D02*
Y028749D01*
X045299Y028599*
X045499*
X012349Y003949D02*
X0123Y003999D01*
X0122*
X01215Y003949*
Y00375*
X0122Y0037*
X0123*
X012349Y00375*
X012449Y003949D02*
X012499Y003999D01*
X012599*
X012649Y003949*
Y003899*
X012599Y00385*
X012549*
X012599*
X012649Y0038*
Y00375*
X012599Y0037*
X012499*
X012449Y00375*
X012949Y0037D02*
X012749D01*
X012949Y003899*
Y003949*
X012899Y003999*
X012799*
X012749Y003949*
X049599Y024749D02*
X04955Y024799D01*
X04945*
X0494Y024749*
Y02455*
X04945Y0245*
X04955*
X049599Y02455*
X049699Y024749D02*
X049749Y024799D01*
X049849*
X049899Y024749*
Y024699*
X049849Y024649*
X049799*
X049849*
X049899Y0246*
Y02455*
X049849Y0245*
X049749*
X049699Y02455*
X049999Y0245D02*
X050099D01*
X050049*
Y024799*
X049999Y024749*
X048799Y030399D02*
X04875Y030449D01*
X04865*
X0486Y030399*
Y0302*
X04865Y03015*
X04875*
X048799Y0302*
X048899Y030399D02*
X048949Y030449D01*
X049049*
X049099Y030399*
Y030349*
X049049Y030299*
X048999*
X049049*
X049099Y03025*
Y0302*
X049049Y03015*
X048949*
X048899Y0302*
X049199Y030399D02*
X049249Y030449D01*
X049349*
X049399Y030399*
Y0302*
X049349Y03015*
X049249*
X049199Y0302*
Y030399*
X038749Y007749D02*
X0387Y007799D01*
X0386*
X03855Y007749*
Y00755*
X0386Y0075*
X0387*
X038749Y00755*
X039049Y0075D02*
X038849D01*
X039049Y007699*
Y007749*
X038999Y007799*
X038899*
X038849Y007749*
X039149Y00755D02*
X039199Y0075D01*
X039299*
X039349Y00755*
Y007749*
X039299Y007799*
X039199*
X039149Y007749*
Y007699*
X039199Y007649*
X039349*
X019449Y028499D02*
X0194Y028549D01*
X0193*
X01925Y028499*
Y0283*
X0193Y02825*
X0194*
X019449Y0283*
X019749Y02825D02*
X019549D01*
X019749Y028449*
Y028499*
X019699Y028549*
X019599*
X019549Y028499*
X019849D02*
X019899Y028549D01*
X019999*
X020049Y028499*
Y028449*
X019999Y028399*
X020049Y02835*
Y0283*
X019999Y02825*
X019899*
X019849Y0283*
Y02835*
X019899Y028399*
X019849Y028449*
Y028499*
X019899Y028399D02*
X019999D01*
X023349Y029249D02*
X0233Y029299D01*
X0232*
X02315Y029249*
Y02905*
X0232Y029*
X0233*
X023349Y02905*
X023649Y029D02*
X023449D01*
X023649Y029199*
Y029249*
X023599Y029299*
X023499*
X023449Y029249*
X023749Y029299D02*
X023949D01*
Y029249*
X023749Y02905*
Y029*
X042399Y002399D02*
X04235Y002449D01*
X04225*
X0422Y002399*
Y0022*
X04225Y00215*
X04235*
X042399Y0022*
X042699Y00215D02*
X042499D01*
X042699Y002349*
Y002399*
X042649Y002449*
X042549*
X042499Y002399*
X042999Y002449D02*
X042899Y002399D01*
X042799Y002299*
Y0022*
X042849Y00215*
X042949*
X042999Y0022*
Y00225*
X042949Y002299*
X042799*
X043349Y008499D02*
X0433Y008549D01*
X0432*
X04315Y008499*
Y0083*
X0432Y00825*
X0433*
X043349Y0083*
X043649Y00825D02*
X043449D01*
X043649Y008449*
Y008499*
X043599Y008549*
X043499*
X043449Y008499*
X043949Y008549D02*
X043749D01*
Y0084*
X043849Y008449*
X043899*
X043949Y0084*
Y0083*
X043899Y00825*
X043799*
X043749Y0083*
X023299Y026599D02*
X02325Y026649D01*
X02315*
X0231Y026599*
Y0264*
X02315Y02635*
X02325*
X023299Y0264*
X023599Y02635D02*
X023399D01*
X023599Y026549*
Y026599*
X023549Y026649*
X023449*
X023399Y026599*
X023849Y02635D02*
Y026649D01*
X023699Y0265*
X023899*
X020649Y024799D02*
X0206Y024849D01*
X0205*
X02045Y024799*
Y0246*
X0205Y02455*
X0206*
X020649Y0246*
X020949Y02455D02*
X020749D01*
X020949Y024749*
Y024799*
X020899Y024849*
X020799*
X020749Y024799*
X021049D02*
X021099Y024849D01*
X021199*
X021249Y024799*
Y024749*
X021199Y0247*
X021149*
X021199*
X021249Y02465*
Y0246*
X021199Y02455*
X021099*
X021049Y0246*
X034249Y008849D02*
X0342Y008899D01*
X0341*
X03405Y008849*
Y00865*
X0341Y0086*
X0342*
X034249Y00865*
X034549Y0086D02*
X034349D01*
X034549Y008799*
Y008849*
X034499Y008899*
X034399*
X034349Y008849*
X034849Y0086D02*
X034649D01*
X034849Y008799*
Y008849*
X034799Y008899*
X034699*
X034649Y008849*
X029699Y008249D02*
X02965Y008299D01*
X02955*
X0295Y008249*
Y00805*
X02955Y008*
X02965*
X029699Y00805*
X029999Y008D02*
X029799D01*
X029999Y008199*
Y008249*
X029949Y008299*
X029849*
X029799Y008249*
X030099D02*
X030149Y008299D01*
X030249*
X030299Y008249*
Y00805*
X030249Y008*
X030149*
X030099Y00805*
Y008249*
X034549Y011749D02*
X0345Y011799D01*
X0344*
X03435Y011749*
Y01155*
X0344Y0115*
X0345*
X034549Y01155*
X034649Y0115D02*
X034749D01*
X034699*
Y011799*
X034649Y011749*
X034899Y01155D02*
X034949Y0115D01*
X035049*
X035099Y01155*
Y011749*
X035049Y011799*
X034949*
X034899Y011749*
Y011699*
X034949Y011649*
X035099*
X024299Y011249D02*
X02425Y011299D01*
X02415*
X0241Y011249*
Y01105*
X02415Y011*
X02425*
X024299Y01105*
X024399Y011D02*
X024499D01*
X024449*
Y011299*
X024399Y011249*
X024649D02*
X024699Y011299D01*
X024799*
X024849Y011249*
Y011199*
X024799Y01115*
X024849Y0111*
Y01105*
X024799Y011*
X024699*
X024649Y01105*
Y0111*
X024699Y01115*
X024649Y011199*
Y011249*
X024699Y01115D02*
X024799D01*
X027649Y008149D02*
X0276Y008199D01*
X0275*
X02745Y008149*
Y00795*
X0275Y0079*
X0276*
X027649Y00795*
X027749Y0079D02*
X027849D01*
X027799*
Y008199*
X027749Y008149*
X027999Y008199D02*
X028199D01*
Y008149*
X027999Y00795*
Y0079*
X034749Y013599D02*
X0347Y013649D01*
X0346*
X03455Y013599*
Y0134*
X0346Y01335*
X0347*
X034749Y0134*
X034849Y01335D02*
X034949D01*
X034899*
Y013649*
X034849Y013599*
X035299Y013649D02*
X035199Y013599D01*
X035099Y0135*
Y0134*
X035149Y01335*
X035249*
X035299Y0134*
Y01345*
X035249Y0135*
X035099*
X034649Y015549D02*
X0346Y015599D01*
X0345*
X03445Y015549*
Y01535*
X0345Y0153*
X0346*
X034649Y01535*
X034749Y0153D02*
X034849D01*
X034799*
Y015599*
X034749Y015549*
X035199Y015599D02*
X034999D01*
Y015449*
X035099Y015499*
X035149*
X035199Y015449*
Y01535*
X035149Y0153*
X035049*
X034999Y01535*
X031279Y017719D02*
X03123Y017769D01*
X03113*
X03108Y017719*
Y01752*
X03113Y01747*
X03123*
X031279Y01752*
X031379Y01747D02*
X031479D01*
X031429*
Y017769*
X031379Y017719*
X031779Y01747D02*
Y017769D01*
X031629Y01762*
X031829*
X028999Y017749D02*
X02895Y017799D01*
X02885*
X0288Y017749*
Y01755*
X02885Y0175*
X02895*
X028999Y01755*
X029099Y0175D02*
X029199D01*
X029149*
Y017799*
X029099Y017749*
X029349D02*
X029399Y017799D01*
X029499*
X029549Y017749*
Y017699*
X029499Y017649*
X029449*
X029499*
X029549Y0176*
Y01755*
X029499Y0175*
X029399*
X029349Y01755*
X023799Y014299D02*
X02375Y014349D01*
X02365*
X0236Y014299*
Y0141*
X02365Y01405*
X02375*
X023799Y0141*
X023899Y01405D02*
X023999D01*
X023949*
Y014349*
X023899Y014299*
X024349Y01405D02*
X024149D01*
X024349Y014249*
Y014299*
X024299Y014349*
X024199*
X024149Y014299*
X023899Y013349D02*
X02385Y013399D01*
X02375*
X0237Y013349*
Y01315*
X02375Y0131*
X02385*
X023899Y01315*
X023999Y0131D02*
X024099D01*
X024049*
Y013399*
X023999Y013349*
X024249Y0131D02*
X024349D01*
X024299*
Y013399*
X024249Y013349*
X017699Y027399D02*
X01765Y027449D01*
X01755*
X0175Y027399*
Y0272*
X01755Y02715*
X01765*
X017699Y0272*
X017799Y02715D02*
X017899D01*
X017849*
Y027449*
X017799Y027399*
X018049D02*
X018099Y027449D01*
X018199*
X018249Y027399*
Y0272*
X018199Y02715*
X018099*
X018049Y0272*
Y027399*
X023299Y022549D02*
X02325Y022599D01*
X02315*
X0231Y022549*
Y02235*
X02315Y0223*
X02325*
X023299Y02235*
X023399Y022599D02*
X023599D01*
Y022549*
X023399Y02235*
Y0223*
X017399Y021749D02*
X01735Y021799D01*
X01725*
X0172Y021749*
Y02155*
X01725Y0215*
X01735*
X017399Y02155*
X017699Y021799D02*
X017599Y021749D01*
X017499Y021649*
Y02155*
X017549Y0215*
X017649*
X017699Y02155*
Y0216*
X017649Y021649*
X017499*
X017449Y020499D02*
X0174Y020549D01*
X0173*
X01725Y020499*
Y0203*
X0173Y02025*
X0174*
X017449Y0203*
X017749Y020549D02*
X017549D01*
Y020399*
X017649Y020449*
X017699*
X017749Y020399*
Y0203*
X017699Y02025*
X017599*
X017549Y0203*
X024149Y023699D02*
X0241Y023749D01*
X024*
X02395Y023699*
Y0235*
X024Y02345*
X0241*
X024149Y0235*
X024399Y02345D02*
Y023749D01*
X024249Y023599*
X024449*
X026949Y022699D02*
X0269Y022749D01*
X0268*
X02675Y022699*
Y0225*
X0268Y02245*
X0269*
X026949Y0225*
X027049Y022699D02*
X027099Y022749D01*
X027199*
X027249Y022699*
Y022649*
X027199Y022599*
X027149*
X027199*
X027249Y02255*
Y0225*
X027199Y02245*
X027099*
X027049Y0225*
X026449Y024149D02*
X0264Y024199D01*
X0263*
X02625Y024149*
Y02395*
X0263Y0239*
X0264*
X026449Y02395*
X026749Y0239D02*
X026549D01*
X026749Y024099*
Y024149*
X026699Y024199*
X026599*
X026549Y024149*
X022249Y020799D02*
X0222Y020849D01*
X0221*
X02205Y020799*
Y0206*
X0221Y02055*
X0222*
X022249Y0206*
X022349Y02055D02*
X022449D01*
X022399*
Y020849*
X022349Y020799*
X0261Y021549D02*
Y0213D01*
X02615Y02125*
X02625*
X026299Y0213*
Y021549*
X026399Y02125D02*
X026499D01*
X026449*
Y021549*
X026399Y021499*
X0345Y020249D02*
Y02D01*
X03455Y01995*
X03465*
X034699Y02*
Y020249*
X034799Y01995D02*
X034899D01*
X034849*
Y020249*
X034799Y020199*
X035249Y020249D02*
X035049D01*
Y020099*
X035149Y020149*
X035199*
X035249Y020099*
Y02*
X035199Y01995*
X035099*
X035049Y02*
X03205Y026749D02*
Y0265D01*
X0321Y02645*
X0322*
X032249Y0265*
Y026749*
X032349Y02645D02*
X032449D01*
X032399*
Y026749*
X032349Y026699*
X032799Y026749D02*
X032699Y026699D01*
X032599Y0266*
Y0265*
X032649Y02645*
X032749*
X032799Y0265*
Y02655*
X032749Y0266*
X032599*
X0186Y022649D02*
Y0224D01*
X01865Y02235*
X01875*
X018799Y0224*
Y022649*
X019099Y02235D02*
X018899D01*
X019099Y022549*
Y022599*
X019049Y022649*
X018949*
X018899Y022599*
X00559Y031299D02*
Y03105D01*
X00564Y031*
X00574*
X005789Y03105*
Y031299*
X006089D02*
X005889D01*
Y03115*
X005989Y031199*
X006039*
X006089Y03115*
Y03105*
X006039Y031*
X005939*
X005889Y03105*
X03885Y019099D02*
Y01885D01*
X0389Y0188*
X039*
X039049Y01885*
Y019099*
X039149Y019049D02*
X039199Y019099D01*
X039299*
X039349Y019049*
Y018999*
X039299Y018949*
X039349Y0189*
Y01885*
X039299Y0188*
X039199*
X039149Y01885*
Y0189*
X039199Y018949*
X039149Y018999*
Y019049*
X039199Y018949D02*
X039299D01*
X0399Y027349D02*
Y0271D01*
X03995Y02705*
X04005*
X040099Y0271*
Y027349*
X040199Y02705D02*
X040299D01*
X040249*
Y027349*
X040199Y027299*
X040449Y027349D02*
X040649D01*
Y027299*
X040449Y0271*
Y02705*
X045Y02245D02*
Y022749D01*
X04515*
X045199Y022699*
Y022599*
X04515Y02255*
X045*
X0451D02*
X045199Y02245D01*
X045299Y022699D02*
X045349Y022749D01*
X045449*
X045499Y022699*
Y022649*
X045449Y022599*
X045399*
X045449*
X045499Y02255*
Y0225*
X045449Y02245*
X045349*
X045299Y0225*
X04885Y003124D02*
Y003424D01*
X049*
X049049Y003374*
Y003274*
X049Y003224*
X04885*
X04895D02*
X049049Y003124D01*
X049149D02*
X049249D01*
X049199*
Y003424*
X049149Y003374*
X049399Y003124D02*
X049499D01*
X049449*
Y003424*
X049399Y003374*
X04875Y0084D02*
Y008699D01*
X0489*
X048949Y008649*
Y00855*
X0489Y0085*
X04875*
X04885D02*
X048949Y0084D01*
X049049D02*
X049149D01*
X049099*
Y008699*
X049049Y008649*
X049499Y0084D02*
X049299D01*
X049499Y008599*
Y008649*
X049449Y008699*
X049349*
X049299Y008649*
X04835Y015D02*
Y015299D01*
X0485*
X048549Y015249*
Y015149*
X0485Y0151*
X04835*
X04845D02*
X048549Y015D01*
X048649D02*
X048749D01*
X048699*
Y015299*
X048649Y015249*
X048899Y015299D02*
X049099D01*
Y015249*
X048899Y01505*
Y015*
X0487Y01965D02*
Y019949D01*
X04885*
X048899Y019899*
Y0198*
X04885Y01975*
X0487*
X0488D02*
X048899Y01965D01*
X048999D02*
X049099D01*
X049049*
Y019949*
X048999Y019899*
X049249D02*
X049299Y019949D01*
X049399*
X049449Y019899*
Y019849*
X049399Y0198*
X049449Y01975*
Y0197*
X049399Y01965*
X049299*
X049249Y0197*
Y01975*
X049299Y0198*
X049249Y019849*
Y019899*
X049299Y0198D02*
X049399D01*
X0494Y00625D02*
Y006549D01*
X04955*
X049599Y006499*
Y006399*
X04955Y00635*
X0494*
X0495D02*
X049599Y00625D01*
X049699D02*
X049799D01*
X049749*
Y006549*
X049699Y006499*
X049949D02*
X049999Y006549D01*
X050099*
X050149Y006499*
Y006449*
X050099Y006399*
X050049*
X050099*
X050149Y00635*
Y0063*
X050099Y00625*
X049999*
X049949Y0063*
X0495Y01185D02*
Y012149D01*
X04965*
X049699Y012099*
Y012*
X04965Y01195*
X0495*
X0496D02*
X049699Y01185D01*
X049799D02*
X049899D01*
X049849*
Y012149*
X049799Y012099*
X050199Y01185D02*
Y012149D01*
X050049Y012*
X050249*
X04945Y01755D02*
Y017849D01*
X0496*
X049649Y017799*
Y017699*
X0496Y01765*
X04945*
X04955D02*
X049649Y01755D01*
X049749D02*
X049849D01*
X049799*
Y017849*
X049749Y017799*
X049999Y0176D02*
X050049Y01755D01*
X050149*
X050199Y0176*
Y017799*
X050149Y017849*
X050049*
X049999Y017799*
Y017749*
X050049Y017699*
X050199*
X0491Y02305D02*
Y023349D01*
X04925*
X049299Y023299*
Y023199*
X04925Y02315*
X0491*
X0492D02*
X049299Y02305D01*
X049599D02*
X049399D01*
X049599Y023249*
Y023299*
X049549Y023349*
X049449*
X049399Y023299*
X049699D02*
X049749Y023349D01*
X049849*
X049899Y023299*
Y0231*
X049849Y02305*
X049749*
X049699Y0231*
Y023299*
X01745Y029349D02*
Y02905D01*
X017649*
X017949D02*
X017749D01*
X017949Y029249*
Y029299*
X017899Y029349*
X017799*
X017749Y029299*
X03415Y007349D02*
Y00705D01*
X034349*
X034599D02*
Y007349D01*
X034449Y0072*
X034649*
X0425Y007249D02*
Y00695D01*
X042699*
X042999Y007249D02*
X042799D01*
Y007099*
X042899Y007149*
X042949*
X042999Y007099*
Y007*
X042949Y00695*
X042849*
X042799Y007*
X049Y028699D02*
Y0284D01*
X049199*
X049499Y028699D02*
X049399Y028649D01*
X049299Y02855*
Y02845*
X049349Y0284*
X049449*
X049499Y02845*
Y0285*
X049449Y02855*
X049299*
X052149Y0073D02*
Y007499D01*
X0521Y007549*
X052*
X05195Y007499*
Y0073*
X052Y00725*
X0521*
X05205Y00735D02*
X052149Y00725D01*
X0521D02*
X052149Y0073D01*
X052249Y00725D02*
X052349D01*
X052299*
Y007549*
X052249Y007499*
Y01285D02*
Y013049D01*
X0522Y013099*
X0521*
X05205Y013049*
Y01285*
X0521Y0128*
X0522*
X05215Y0129D02*
X052249Y0128D01*
X0522D02*
X052249Y01285D01*
X052549Y0128D02*
X052349D01*
X052549Y012999*
Y013049*
X052499Y013099*
X052399*
X052349Y013049*
X051899Y01845D02*
Y018649D01*
X05185Y018699*
X05175*
X0517Y018649*
Y01845*
X05175Y0184*
X05185*
X0518Y0185D02*
X051899Y0184D01*
X05185D02*
X051899Y01845D01*
X051999Y018649D02*
X052049Y018699D01*
X052149*
X052199Y018649*
Y018599*
X052149Y01855*
X052099*
X052149*
X052199Y0185*
Y01845*
X052149Y0184*
X052049*
X051999Y01845*
X051749Y0239D02*
Y024099D01*
X0517Y024149*
X0516*
X05155Y024099*
Y0239*
X0516Y02385*
X0517*
X05165Y02395D02*
X051749Y02385D01*
X0517D02*
X051749Y0239D01*
X051999Y02385D02*
Y024149D01*
X051849Y024*
X052049*
X005799Y017499D02*
X0057D01*
X005749*
Y01725*
X0057Y0172*
X00565*
X0056Y01725*
X006099Y0172D02*
X005899D01*
X006099Y017399*
Y017449*
X006049Y017499*
X005949*
X005899Y017449*
X00832Y024089D02*
X00822D01*
X00827*
Y02384*
X00822Y02379*
X00817*
X00812Y02384*
X008619Y024089D02*
X008419D01*
Y02394*
X008519Y023989*
X008569*
X008619Y02394*
Y02384*
X008569Y02379*
X008469*
X008419Y02384*
X058109Y019459D02*
X05801D01*
X05806*
Y01921*
X05801Y01916*
X05796*
X05791Y01921*
X058209Y01916D02*
X058309D01*
X058259*
Y019459*
X058209Y019409*
X058459D02*
X058509Y019459D01*
X058609*
X058659Y019409*
Y01921*
X058609Y01916*
X058509*
X058459Y01921*
Y019409*
X01915Y0275D02*
Y027799D01*
X0193*
X019349Y027749*
Y02765*
X0193Y0276*
X01915*
X01925D02*
X019349Y0275D01*
X019649D02*
X019449D01*
X019649Y027699*
Y027749*
X019599Y027799*
X019499*
X019449Y027749*
X019949Y027799D02*
X019749D01*
Y02765*
X019849Y027699*
X019899*
X019949Y02765*
Y02755*
X019899Y0275*
X019799*
X019749Y02755*
X0198Y0302D02*
X0195D01*
Y03035*
X01955Y030399*
X01965*
X0197Y03035*
Y0302*
Y0303D02*
X0198Y030399D01*
Y030699D02*
Y030499D01*
X0196Y030699*
X01955*
X0195Y030649*
Y030549*
X01955Y030499*
X0195Y030999D02*
X01955Y030899D01*
X01965Y030799*
X01975*
X0198Y030849*
Y030949*
X01975Y030999*
X0197*
X01965Y030949*
Y030799*
X013099Y000999D02*
X01305Y001049D01*
X01295*
X0129Y000999*
Y0008*
X01295Y00075*
X01305*
X013099Y0008*
X013199Y000999D02*
X013249Y001049D01*
X013349*
X013399Y000999*
Y000949*
X013349Y000899*
X013299*
X013349*
X013399Y00085*
Y0008*
X013349Y00075*
X013249*
X013199Y0008*
X013499Y000999D02*
X013549Y001049D01*
X013649*
X013699Y000999*
Y000949*
X013649Y000899*
X013599*
X013649*
X013699Y00085*
Y0008*
X013649Y00075*
X013549*
X013499Y0008*
X010849Y004999D02*
X0108Y005049D01*
X0107*
X01065Y004999*
Y0048*
X0107Y00475*
X0108*
X010849Y0048*
X011149Y005049D02*
X010949D01*
Y0049*
X011049Y004949*
X011099*
X011149Y0049*
Y0048*
X011099Y00475*
X010999*
X010949Y0048*
X011449Y005049D02*
X011249D01*
Y0049*
X011349Y004949*
X011399*
X011449Y0049*
Y0048*
X011399Y00475*
X011299*
X011249Y0048*
X0349Y026067D02*
X035099D01*
X035*
Y025767*
X035199D02*
Y026067D01*
X035349*
X035399Y026017*
Y025917*
X035349Y025867*
X035199*
X035499Y025767D02*
X035599D01*
X035549*
Y026067*
X035499Y026017*
X01875Y018599D02*
X018949D01*
X01885*
Y0183*
X019049D02*
Y018599D01*
X019199*
X019249Y018549*
Y01845*
X019199Y0184*
X019049*
X019549Y0183D02*
X019349D01*
X019549Y018499*
Y018549*
X019499Y018599*
X019399*
X019349Y018549*
X04465Y020599D02*
X044849D01*
X04475*
Y0203*
X044949D02*
Y020599D01*
X045099*
X045149Y020549*
Y02045*
X045099Y0204*
X044949*
X045249Y020549D02*
X045299Y020599D01*
X045399*
X045449Y020549*
Y020499*
X045399Y02045*
X045349*
X045399*
X045449Y0204*
Y02035*
X045399Y0203*
X045299*
X045249Y02035*
X04815Y006649D02*
X048349D01*
X04825*
Y00635*
X048449D02*
Y006649D01*
X048599*
X048649Y006599*
Y0065*
X048599Y00645*
X048449*
X048899Y00635D02*
Y006649D01*
X048749Y0065*
X048949*
X04775Y012049D02*
X047949D01*
X04785*
Y01175*
X048049D02*
Y012049D01*
X048199*
X048249Y011999*
Y0119*
X048199Y01185*
X048049*
X048549Y012049D02*
X048349D01*
Y0119*
X048449Y011949*
X048499*
X048549Y0119*
Y0118*
X048499Y01175*
X048399*
X048349Y0118*
X0484Y017949D02*
X048599D01*
X0485*
Y01765*
X048699D02*
Y017949D01*
X048849*
X048899Y017899*
Y017799*
X048849Y01775*
X048699*
X049199Y017949D02*
X049099Y017899D01*
X048999Y017799*
Y0177*
X049049Y01765*
X049149*
X049199Y0177*
Y01775*
X049149Y017799*
X048999*
X01985Y013359D02*
X02005D01*
X01995*
Y01306*
X020149D02*
Y013359D01*
X020299*
X020349Y013309*
Y013209*
X020299Y01316*
X020149*
X020449Y013359D02*
X020649D01*
Y013309*
X020449Y01311*
Y01306*
X04777Y022989D02*
X047969D01*
X04787*
Y02269*
X048069D02*
Y022989D01*
X048219*
X048269Y022939*
Y02284*
X048219Y02279*
X048069*
X048369Y022939D02*
X048419Y022989D01*
X048519*
X048569Y022939*
Y022889*
X048519Y02284*
X048569Y02279*
Y02274*
X048519Y02269*
X048419*
X048369Y02274*
Y02279*
X048419Y02284*
X048369Y022889*
Y022939*
X048419Y02284D02*
X048519D01*
X0206Y014299D02*
X020799D01*
X0207*
Y014*
X020899D02*
Y014299D01*
X021049*
X021099Y014249*
Y014149*
X021049Y0141*
X020899*
X021199Y01405D02*
X021249Y014D01*
X021349*
X021399Y01405*
Y014249*
X021349Y014299*
X021249*
X021199Y014249*
Y014199*
X021249Y014149*
X021399*
X01635Y002849D02*
X016549D01*
X01645*
Y00255*
X016649D02*
Y002849D01*
X016799*
X016849Y002799*
Y0027*
X016799Y00265*
X016649*
X016949Y00255D02*
X017049D01*
X016999*
Y002849*
X016949Y002799*
X017199D02*
X017249Y002849D01*
X017349*
X017399Y002799*
Y0026*
X017349Y00255*
X017249*
X017199Y0026*
Y002799*
X0282Y019699D02*
X028399D01*
X0283*
Y0194*
X028499D02*
Y019699D01*
X028649*
X028699Y019649*
Y01955*
X028649Y0195*
X028499*
X028799Y0194D02*
X028899D01*
X028849*
Y019699*
X028799Y019649*
X029049Y0194D02*
X029149D01*
X029099*
Y019699*
X029049Y019649*
X0436Y029649D02*
X043799D01*
X0437*
Y02935*
X043899D02*
Y029649D01*
X044049*
X044099Y029599*
Y0295*
X044049Y02945*
X043899*
X044199Y02935D02*
X044299D01*
X044249*
Y029649*
X044199Y029599*
X044649Y02935D02*
X044449D01*
X044649Y029549*
Y029599*
X044599Y029649*
X044499*
X044449Y029599*
X0262Y020899D02*
X026399D01*
X0263*
Y0206*
X026499D02*
Y020899D01*
X026649*
X026699Y020849*
Y02075*
X026649Y0207*
X026499*
X026799Y0206D02*
X026899D01*
X026849*
Y020899*
X026799Y020849*
X027049D02*
X027099Y020899D01*
X027199*
X027249Y020849*
Y020799*
X027199Y02075*
X027149*
X027199*
X027249Y0207*
Y02065*
X027199Y0206*
X027099*
X027049Y02065*
X032425Y026149D02*
X032624D01*
X032525*
Y02585*
X032724D02*
Y026149D01*
X032874*
X032924Y026099*
Y025999*
X032874Y02595*
X032724*
X033024Y02585D02*
X033124D01*
X033074*
Y026149*
X033024Y026099*
X033424Y02585D02*
Y026149D01*
X033274Y025999*
X033474*
X03265Y024649D02*
X032849D01*
X03275*
Y02435*
X032949D02*
Y024649D01*
X033099*
X033149Y024599*
Y0245*
X033099Y02445*
X032949*
X033249Y02435D02*
X033349D01*
X033299*
Y024649*
X033249Y024599*
X033699Y024649D02*
X033499D01*
Y0245*
X033599Y024549*
X033649*
X033699Y0245*
Y0244*
X033649Y02435*
X033549*
X033499Y0244*
X01295Y015149D02*
X013149D01*
X01305*
Y01485*
X013249D02*
Y015149D01*
X013399*
X013449Y015099*
Y014999*
X013399Y01495*
X013249*
X013549Y01485D02*
X013649D01*
X013599*
Y015149*
X013549Y015099*
X013999Y015149D02*
X013899Y015099D01*
X013799Y014999*
Y0149*
X013849Y01485*
X013949*
X013999Y0149*
Y01495*
X013949Y014999*
X013799*
X04805Y002199D02*
X048249D01*
X04815*
Y0019*
X048349D02*
Y002199D01*
X048499*
X048549Y002149*
Y00205*
X048499Y002*
X048349*
X048649Y0019D02*
X048749D01*
X048699*
Y002199*
X048649Y002149*
X048899Y002199D02*
X049099D01*
Y002149*
X048899Y00195*
Y0019*
X0117Y014599D02*
X011899D01*
X0118*
Y0143*
X011999D02*
Y014599D01*
X012149*
X012199Y014549*
Y01445*
X012149Y0144*
X011999*
X012299Y0143D02*
X012399D01*
X012349*
Y014599*
X012299Y014549*
X012549D02*
X012599Y014599D01*
X012699*
X012749Y014549*
Y014499*
X012699Y01445*
X012749Y0144*
Y01435*
X012699Y0143*
X012599*
X012549Y01435*
Y0144*
X012599Y01445*
X012549Y014499*
Y014549*
X012599Y01445D02*
X012699D01*
X04735Y008299D02*
X047549D01*
X04745*
Y008*
X047649D02*
Y008299D01*
X047799*
X047849Y008249*
Y008149*
X047799Y0081*
X047649*
X047949Y008D02*
X048049D01*
X047999*
Y008299*
X047949Y008249*
X048199Y00805D02*
X048249Y008D01*
X048349*
X048399Y00805*
Y008249*
X048349Y008299*
X048249*
X048199Y008249*
Y008199*
X048249Y008149*
X048399*
X0132Y013749D02*
X013399D01*
X0133*
Y01345*
X013499D02*
Y013749D01*
X013649*
X013699Y013699*
Y0136*
X013649Y01355*
X013499*
X013999Y01345D02*
X013799D01*
X013999Y013649*
Y013699*
X013949Y013749*
X013849*
X013799Y013699*
X014099D02*
X014149Y013749D01*
X014249*
X014299Y013699*
Y0135*
X014249Y01345*
X014149*
X014099Y0135*
Y013699*
X0474Y014499D02*
X047599D01*
X0475*
Y0142*
X047699D02*
Y014499D01*
X047849*
X047899Y014449*
Y01435*
X047849Y0143*
X047699*
X048199Y0142D02*
X047999D01*
X048199Y014399*
Y014449*
X048149Y014499*
X048049*
X047999Y014449*
X048299Y0142D02*
X048399D01*
X048349*
Y014499*
X048299Y014449*
X01235Y012249D02*
X012549D01*
X01245*
Y01195*
X012649D02*
Y012249D01*
X012799*
X012849Y012199*
Y0121*
X012799Y01205*
X012649*
X013149Y01195D02*
X012949D01*
X013149Y012149*
Y012199*
X013099Y012249*
X012999*
X012949Y012199*
X013449Y01195D02*
X013249D01*
X013449Y012149*
Y012199*
X013399Y012249*
X013299*
X013249Y012199*
X04794Y019419D02*
X048139D01*
X04804*
Y01912*
X048239D02*
Y019419D01*
X048389*
X048439Y019369*
Y01927*
X048389Y01922*
X048239*
X048739Y01912D02*
X048539D01*
X048739Y019319*
Y019369*
X048689Y019419*
X048589*
X048539Y019369*
X048839D02*
X048889Y019419D01*
X048989*
X049039Y019369*
Y019319*
X048989Y01927*
X048939*
X048989*
X049039Y01922*
Y01917*
X048989Y01912*
X048889*
X048839Y01917*
X0252Y008849D02*
X025399D01*
X0253*
Y00855*
X025499D02*
Y008849D01*
X025649*
X025699Y008799*
Y008699*
X025649Y00865*
X025499*
X025999Y00855D02*
X025799D01*
X025999Y008749*
Y008799*
X025949Y008849*
X025849*
X025799Y008799*
X026249Y00855D02*
Y008849D01*
X026099Y008699*
X026299*
X01665Y003599D02*
X016849D01*
X01675*
Y0033*
X016949D02*
Y003599D01*
X017099*
X017149Y003549*
Y003449*
X017099Y0034*
X016949*
X017449Y0033D02*
X017249D01*
X017449Y003499*
Y003549*
X017399Y003599*
X017299*
X017249Y003549*
X017749Y003599D02*
X017649Y003549D01*
X017549Y003449*
Y00335*
X017599Y0033*
X017699*
X017749Y00335*
Y0034*
X017699Y003449*
X017549*
X01615Y004331D02*
X016349D01*
X01625*
Y004031*
X016449D02*
Y004331D01*
X016599*
X016649Y004281*
Y004181*
X016599Y004131*
X016449*
X016949Y004031D02*
X016749D01*
X016949Y004231*
Y004281*
X016899Y004331*
X016799*
X016749Y004281*
X017049D02*
X017099Y004331D01*
X017199*
X017249Y004281*
Y004231*
X017199Y004181*
X017249Y004131*
Y004081*
X017199Y004031*
X017099*
X017049Y004081*
Y004131*
X017099Y004181*
X017049Y004231*
Y004281*
X017099Y004181D02*
X017199D01*
X01605Y005349D02*
X016249D01*
X01615*
Y00505*
X016349D02*
Y005349D01*
X016499*
X016549Y005299*
Y005199*
X016499Y00515*
X016349*
X016849Y00505D02*
X016649D01*
X016849Y005249*
Y005299*
X016799Y005349*
X016699*
X016649Y005299*
X016949Y0051D02*
X016999Y00505D01*
X017099*
X017149Y0051*
Y005299*
X017099Y005349*
X016999*
X016949Y005299*
Y005249*
X016999Y005199*
X017149*
X04314Y014169D02*
X043339D01*
X04324*
Y01387*
X043439D02*
Y014169D01*
X043589*
X043639Y014119*
Y01402*
X043589Y01397*
X043439*
X043739Y014119D02*
X043789Y014169D01*
X043889*
X043939Y014119*
Y014069*
X043889Y01402*
X043839*
X043889*
X043939Y01397*
Y01392*
X043889Y01387*
X043789*
X043739Y01392*
X044039Y014119D02*
X044089Y014169D01*
X044189*
X044239Y014119*
Y01392*
X044189Y01387*
X044089*
X044039Y01392*
Y014119*
X014224Y004849D02*
X014424D01*
X014324*
Y00455*
X014524D02*
Y004849D01*
X014674*
X014724Y004799*
Y004699*
X014674Y00465*
X014524*
X014824Y004799D02*
X014874Y004849D01*
X014974*
X015024Y004799*
Y004749*
X014974Y004699*
X014924*
X014974*
X015024Y00465*
Y0046*
X014974Y00455*
X014874*
X014824Y0046*
X015124Y00455D02*
X015223D01*
X015174*
Y004849*
X015124Y004799*
X04344Y018069D02*
X043639D01*
X04354*
Y01777*
X043739D02*
Y018069D01*
X043889*
X043939Y018019*
Y01792*
X043889Y01787*
X043739*
X044039Y018019D02*
X044089Y018069D01*
X044189*
X044239Y018019*
Y017969*
X044189Y01792*
X044139*
X044189*
X044239Y01787*
Y01782*
X044189Y01777*
X044089*
X044039Y01782*
X044539Y01777D02*
X044339D01*
X044539Y017969*
Y018019*
X044489Y018069*
X044389*
X044339Y018019*
X0277Y022899D02*
X027899D01*
X0278*
Y0226*
X027999D02*
Y022899D01*
X028149*
X028199Y022849*
Y02275*
X028149Y0227*
X027999*
X028299Y022849D02*
X028349Y022899D01*
X028449*
X028499Y022849*
Y022799*
X028449Y02275*
X028399*
X028449*
X028499Y0227*
Y02265*
X028449Y0226*
X028349*
X028299Y02265*
X028599Y022849D02*
X028649Y022899D01*
X028749*
X028799Y022849*
Y022799*
X028749Y02275*
X028699*
X028749*
X028799Y0227*
Y02265*
X028749Y0226*
X028649*
X028599Y02265*
X02805Y021199D02*
X028249D01*
X02815*
Y0209*
X028349D02*
Y021199D01*
X028499*
X028549Y021149*
Y02105*
X028499Y021*
X028349*
X028649Y021149D02*
X028699Y021199D01*
X028799*
X028849Y021149*
Y021099*
X028799Y02105*
X028749*
X028799*
X028849Y021*
Y02095*
X028799Y0209*
X028699*
X028649Y02095*
X029149Y021199D02*
X028949D01*
Y02105*
X029049Y021099*
X029099*
X029149Y02105*
Y02095*
X029099Y0209*
X028999*
X028949Y02095*
X01705Y012349D02*
X017249D01*
X01715*
Y01205*
X017349D02*
Y012349D01*
X017499*
X017549Y012299*
Y0122*
X017499Y01215*
X017349*
X017649Y012299D02*
X017699Y012349D01*
X017799*
X017849Y012299*
Y012249*
X017799Y0122*
X017749*
X017799*
X017849Y01215*
Y0121*
X017799Y01205*
X017699*
X017649Y0121*
X018149Y012349D02*
X018049Y012299D01*
X017949Y0122*
Y0121*
X017999Y01205*
X018099*
X018149Y0121*
Y01215*
X018099Y0122*
X017949*
X029Y022299D02*
X029199D01*
X0291*
Y022*
X029299D02*
Y022299D01*
X029449*
X029499Y022249*
Y02215*
X029449Y0221*
X029299*
X029599Y022249D02*
X029649Y022299D01*
X029749*
X029799Y022249*
Y022199*
X029749Y02215*
X029699*
X029749*
X029799Y0221*
Y02205*
X029749Y022*
X029649*
X029599Y02205*
X029899Y022299D02*
X030099D01*
Y022249*
X029899Y02205*
Y022*
X0286Y021749D02*
X028799D01*
X0287*
Y02145*
X028899D02*
Y021749D01*
X029049*
X029099Y021699*
Y0216*
X029049Y02155*
X028899*
X029199Y021699D02*
X029249Y021749D01*
X029349*
X029399Y021699*
Y021649*
X029349Y0216*
X029299*
X029349*
X029399Y02155*
Y0215*
X029349Y02145*
X029249*
X029199Y0215*
X029499Y021699D02*
X029549Y021749D01*
X029649*
X029699Y021699*
Y021649*
X029649Y0216*
X029699Y02155*
Y0215*
X029649Y02145*
X029549*
X029499Y0215*
Y02155*
X029549Y0216*
X029499Y021649*
Y021699*
X029549Y0216D02*
X029649D01*
X0149Y013299D02*
X015099D01*
X015*
Y013*
X015199D02*
Y013299D01*
X015349*
X015399Y013249*
Y01315*
X015349Y0131*
X015199*
X015499Y013249D02*
X015549Y013299D01*
X015649*
X015699Y013249*
Y013199*
X015649Y01315*
X015599*
X015649*
X015699Y0131*
Y01305*
X015649Y013*
X015549*
X015499Y01305*
X015799D02*
X015849Y013D01*
X015949*
X015999Y01305*
Y013249*
X015949Y013299*
X015849*
X015799Y013249*
Y013199*
X015849Y01315*
X015999*
X01354Y030219D02*
X013739D01*
X01364*
Y02992*
X013839D02*
Y030219D01*
X013989*
X014039Y030169*
Y03007*
X013989Y03002*
X013839*
X014289Y02992D02*
Y030219D01*
X014139Y03007*
X014339*
X014439Y030169D02*
X014489Y030219D01*
X014589*
X014639Y030169*
Y02997*
X014589Y02992*
X014489*
X014439Y02997*
Y030169*
X03865Y014149D02*
X038849D01*
X03875*
Y01385*
X038949D02*
Y014149D01*
X039099*
X039149Y014099*
Y013999*
X039099Y01395*
X038949*
X039399Y01385D02*
Y014149D01*
X039249Y013999*
X039449*
X039549Y01385D02*
X039649D01*
X039599*
Y014149*
X039549Y014099*
X0176Y016349D02*
X017799D01*
X0177*
Y01605*
X017899D02*
Y016349D01*
X018049*
X018099Y016299*
Y016199*
X018049Y01615*
X017899*
X018349Y01605D02*
Y016349D01*
X018199Y016199*
X018399*
X018699Y01605D02*
X018499D01*
X018699Y016249*
Y016299*
X018649Y016349*
X018549*
X018499Y016299*
X03645Y017199D02*
X036649D01*
X03655*
Y0169*
X036749D02*
Y017199D01*
X036899*
X036949Y017149*
Y01705*
X036899Y017*
X036749*
X037199Y0169D02*
Y017199D01*
X037049Y01705*
X037249*
X037349Y017149D02*
X037399Y017199D01*
X037499*
X037549Y017149*
Y017099*
X037499Y01705*
X037449*
X037499*
X037549Y017*
Y01695*
X037499Y0169*
X037399*
X037349Y01695*
X03694Y016019D02*
X037139D01*
X03704*
Y01572*
X037239D02*
Y016019D01*
X037389*
X037439Y015969*
Y01587*
X037389Y01582*
X037239*
X037689Y01572D02*
Y016019D01*
X037539Y01587*
X037739*
X037989Y01572D02*
Y016019D01*
X037839Y01587*
X038039*
X01565Y014299D02*
X015849D01*
X01575*
Y014*
X015949D02*
Y014299D01*
X016099*
X016149Y014249*
Y014149*
X016099Y0141*
X015949*
X016399Y014D02*
Y014299D01*
X016249Y014149*
X016449*
X016749Y014299D02*
X016549D01*
Y014149*
X016649Y014199*
X016699*
X016749Y014149*
Y01405*
X016699Y014*
X016599*
X016549Y01405*
X0359Y017899D02*
X036099D01*
X036*
Y0176*
X036199D02*
Y017899D01*
X036349*
X036399Y017849*
Y017749*
X036349Y0177*
X036199*
X036649Y0176D02*
Y017899D01*
X036499Y017749*
X036699*
X036999Y017899D02*
X036899Y017849D01*
X036799Y017749*
Y01765*
X036849Y0176*
X036949*
X036999Y01765*
Y0177*
X036949Y017749*
X036799*
X0178Y013299D02*
X017999D01*
X0179*
Y013*
X018099D02*
Y013299D01*
X018249*
X018299Y013249*
Y01315*
X018249Y0131*
X018099*
X018549Y013D02*
Y013299D01*
X018399Y01315*
X018599*
X018699Y013299D02*
X018899D01*
Y013249*
X018699Y01305*
Y013*
X0244Y018549D02*
X024599D01*
X0245*
Y01825*
X024699D02*
Y018549D01*
X024849*
X024899Y018499*
Y0184*
X024849Y01835*
X024699*
X025149Y01825D02*
Y018549D01*
X024999Y0184*
X025199*
X025299Y018499D02*
X025349Y018549D01*
X025449*
X025499Y018499*
Y018449*
X025449Y0184*
X025499Y01835*
Y0183*
X025449Y01825*
X025349*
X025299Y0183*
Y01835*
X025349Y0184*
X025299Y018449*
Y018499*
X025349Y0184D02*
X025449D01*
X02175Y018449D02*
X021949D01*
X02185*
Y01815*
X022049D02*
Y018449D01*
X022199*
X022249Y018399*
Y0183*
X022199Y01825*
X022049*
X022549Y018449D02*
X022349D01*
Y0183*
X022449Y018349*
X022499*
X022549Y0183*
Y0182*
X022499Y01815*
X022399*
X022349Y0182*
X022649Y018399D02*
X022699Y018449D01*
X022799*
X022849Y018399*
Y0182*
X022799Y01815*
X022699*
X022649Y0182*
Y018399*
X0184Y013849D02*
X018599D01*
X0185*
Y01355*
X018699D02*
Y013849D01*
X018849*
X018899Y013799*
Y013699*
X018849Y01365*
X018699*
X019199Y013849D02*
X018999D01*
Y013699*
X019099Y013749*
X019149*
X019199Y013699*
Y0136*
X019149Y01355*
X019049*
X018999Y0136*
X019299Y01355D02*
X019399D01*
X019349*
Y013849*
X019299Y013799*
X0202Y018599D02*
X020399D01*
X0203*
Y0183*
X020499D02*
Y018599D01*
X020649*
X020699Y018549*
Y01845*
X020649Y0184*
X020499*
X020999Y018599D02*
X020799D01*
Y01845*
X020899Y018499*
X020949*
X020999Y01845*
Y01835*
X020949Y0183*
X020849*
X020799Y01835*
X021299Y0183D02*
X021099D01*
X021299Y018499*
Y018549*
X021249Y018599*
X021149*
X021099Y018549*
X01645Y015249D02*
X016649D01*
X01655*
Y01495*
X016749D02*
Y015249D01*
X016899*
X016949Y015199*
Y015099*
X016899Y01505*
X016749*
X017249Y015249D02*
X017049D01*
Y015099*
X017149Y015149*
X017199*
X017249Y015099*
Y015*
X017199Y01495*
X017099*
X017049Y015*
X017349Y015199D02*
X017399Y015249D01*
X017499*
X017549Y015199*
Y015149*
X017499Y015099*
X017449*
X017499*
X017549Y01505*
Y015*
X017499Y01495*
X017399*
X017349Y015*
X022932Y019599D02*
X023132D01*
X023032*
Y0193*
X023232D02*
Y019599D01*
X023382*
X023432Y019549*
Y01945*
X023382Y0194*
X023232*
X023732Y019599D02*
X023532D01*
Y01945*
X023632Y019499*
X023682*
X023732Y01945*
Y01935*
X023682Y0193*
X023582*
X023532Y01935*
X023982Y0193D02*
Y019599D01*
X023832Y01945*
X024032*
X01875Y014349D02*
X018949D01*
X01885*
Y01405*
X019049D02*
Y014349D01*
X019199*
X019249Y014299*
Y014199*
X019199Y01415*
X019049*
X019549Y014349D02*
X019349D01*
Y014199*
X019449Y014249*
X019499*
X019549Y014199*
Y0141*
X019499Y01405*
X019399*
X019349Y0141*
X019849Y014349D02*
X019649D01*
Y014199*
X019749Y014249*
X019799*
X019849Y014199*
Y0141*
X019799Y01405*
X019699*
X019649Y0141*
X01695Y015749D02*
X017149D01*
X01705*
Y01545*
X017249D02*
Y015749D01*
X017399*
X017449Y015699*
Y0156*
X017399Y01555*
X017249*
X017749Y015749D02*
X017549D01*
Y0156*
X017649Y015649*
X017699*
X017749Y0156*
Y0155*
X017699Y01545*
X017599*
X017549Y0155*
X018049Y015749D02*
X017949Y015699D01*
X017849Y0156*
Y0155*
X017899Y01545*
X017999*
X018049Y0155*
Y01555*
X017999Y0156*
X017849*
X02965Y023299D02*
X029849D01*
X02975*
Y023*
X029949D02*
Y023299D01*
X030099*
X030149Y023249*
Y02315*
X030099Y0231*
X029949*
X030449Y023299D02*
X030249D01*
Y02315*
X030349Y023199*
X030399*
X030449Y02315*
Y02305*
X030399Y023*
X030299*
X030249Y02305*
X030549Y023299D02*
X030749D01*
Y023249*
X030549Y02305*
Y023*
X01935Y015099D02*
X019549D01*
X01945*
Y0148*
X019649D02*
Y015099D01*
X019799*
X019849Y015049*
Y014949*
X019799Y0149*
X019649*
X020149Y015099D02*
X019949D01*
Y014949*
X020049Y014999*
X020099*
X020149Y014949*
Y01485*
X020099Y0148*
X019999*
X019949Y01485*
X020249Y015049D02*
X020299Y015099D01*
X020399*
X020449Y015049*
Y014999*
X020399Y014949*
X020449Y0149*
Y01485*
X020399Y0148*
X020299*
X020249Y01485*
Y0149*
X020299Y014949*
X020249Y014999*
Y015049*
X020299Y014949D02*
X020399D01*
X03Y021699D02*
X030199D01*
X0301*
Y0214*
X030299D02*
Y021699D01*
X030449*
X030499Y021649*
Y02155*
X030449Y0215*
X030299*
X030799Y021699D02*
X030599D01*
Y02155*
X030699Y021599*
X030749*
X030799Y02155*
Y02145*
X030749Y0214*
X030649*
X030599Y02145*
X030899D02*
X030949Y0214D01*
X031049*
X031099Y02145*
Y021649*
X031049Y021699*
X030949*
X030899Y021649*
Y021599*
X030949Y02155*
X031099*
X0271Y020349D02*
X027299D01*
X0272*
Y02005*
X027399D02*
Y020349D01*
X027549*
X027599Y020299*
Y0202*
X027549Y02015*
X027399*
X027899Y020349D02*
X027799Y020299D01*
X027699Y0202*
Y0201*
X027749Y02005*
X027849*
X027899Y0201*
Y02015*
X027849Y0202*
X027699*
X028149Y02005D02*
Y020349D01*
X027999Y0202*
X028199*
X02575Y017049D02*
X025949D01*
X02585*
Y01675*
X026049D02*
Y017049D01*
X026199*
X026249Y016999*
Y0169*
X026199Y01685*
X026049*
X026549Y017049D02*
X026449Y016999D01*
X026349Y0169*
Y0168*
X026399Y01675*
X026499*
X026549Y0168*
Y01685*
X026499Y0169*
X026349*
X026849Y017049D02*
X026649D01*
Y0169*
X026749Y016949*
X026799*
X026849Y0169*
Y0168*
X026799Y01675*
X026699*
X026649Y0168*
X02445Y020149D02*
X024649D01*
X02455*
Y01985*
X024749D02*
Y020149D01*
X024899*
X024949Y020099*
Y02*
X024899Y01995*
X024749*
X025249Y020149D02*
X025149Y020099D01*
X025049Y02*
Y0199*
X025099Y01985*
X025199*
X025249Y0199*
Y01995*
X025199Y02*
X025049*
X025549Y020149D02*
X025449Y020099D01*
X025349Y02*
Y0199*
X025399Y01985*
X025499*
X025549Y0199*
Y01995*
X025499Y02*
X025349*
X01059Y030769D02*
X010789D01*
X01069*
Y03047*
X010889D02*
Y030769D01*
X011039*
X011089Y030719*
Y03062*
X011039Y03057*
X010889*
X011389Y030769D02*
X011289Y030719D01*
X011189Y03062*
Y03052*
X011239Y03047*
X011339*
X011389Y03052*
Y03057*
X011339Y03062*
X011189*
X011489Y030769D02*
X011689D01*
Y030719*
X011489Y03052*
Y03047*
X02605Y019349D02*
X026249D01*
X02615*
Y01905*
X026349D02*
Y019349D01*
X026499*
X026549Y019299*
Y019199*
X026499Y01915*
X026349*
X026849Y019349D02*
X026749Y019299D01*
X026649Y019199*
Y0191*
X026699Y01905*
X026799*
X026849Y0191*
Y01915*
X026799Y019199*
X026649*
X026949Y019299D02*
X026999Y019349D01*
X027099*
X027149Y019299*
Y019249*
X027099Y019199*
X027149Y01915*
Y0191*
X027099Y01905*
X026999*
X026949Y0191*
Y01915*
X026999Y019199*
X026949Y019249*
Y019299*
X026999Y019199D02*
X027099D01*
X02675Y018649D02*
X026949D01*
X02685*
Y01835*
X027049D02*
Y018649D01*
X027199*
X027249Y018599*
Y0185*
X027199Y01845*
X027049*
X027349Y018649D02*
X027549D01*
Y018599*
X027349Y0184*
Y01835*
X027649Y018599D02*
X027699Y018649D01*
X027799*
X027849Y018599*
Y0184*
X027799Y01835*
X027699*
X027649Y0184*
Y018599*
X01465Y027759D02*
X01455D01*
X0146*
Y02751*
X01455Y02746*
X0145*
X01445Y02751*
X014749Y027709D02*
X014799Y027759D01*
X014899*
X014949Y027709*
Y027659*
X014899Y02761*
X014849*
X014899*
X014949Y02756*
Y02751*
X014899Y02746*
X014799*
X014749Y02751*
X055019Y029999D02*
X05492D01*
X05497*
Y02975*
X05492Y0297*
X05487*
X05482Y02975*
X055119Y029949D02*
X055169Y029999D01*
X055269*
X055319Y029949*
Y029899*
X055269Y02985*
X055319Y0298*
Y02975*
X055269Y0297*
X055169*
X055119Y02975*
Y0298*
X055169Y02985*
X055119Y029899*
Y029949*
X055169Y02985D02*
X055269D01*
X032599Y018999D02*
X03255Y019049D01*
X03245*
X0324Y018999*
Y0188*
X03245Y01875*
X03255*
X032599Y0188*
Y018899*
X0325*
X032699Y01875D02*
X032799D01*
X032749*
Y019049*
X032699*
X032999Y01875D02*
X033099D01*
X033149Y0188*
Y018899*
X033099Y018949*
X032999*
X032949Y018899*
Y0188*
X032999Y01875*
X033249Y019049D02*
Y01875D01*
X033399*
X033449Y0188*
Y01885*
Y018899*
X033399Y018949*
X033249*
X033599D02*
X033699D01*
X033749Y018899*
Y01875*
X033599*
X033549Y0188*
X033599Y01885*
X033749*
X033849Y01875D02*
X033949D01*
X033899*
Y019049*
X033849*
X034099Y01875D02*
X034249D01*
X034299Y0188*
X034249Y01885*
X034149*
X034099Y018899*
X034149Y018949*
X034299*
X034449Y018999D02*
Y018949D01*
X034399*
X034499*
X034449*
Y0188*
X034499Y01875*
X034699Y018949D02*
X034799D01*
X034849Y018899*
Y01875*
X034699*
X034649Y0188*
X034699Y01885*
X034849*
X034949Y018949D02*
Y01875D01*
Y01885*
X034999Y018899*
X035049Y018949*
X035099*
X021199Y015949D02*
X02115Y015999D01*
X02105*
X021Y015949*
Y01575*
X02105Y0157*
X02115*
X021199Y01575*
X021349Y0157D02*
X021449D01*
X021499Y01575*
Y01585*
X021449Y015899*
X021349*
X021299Y01585*
Y01575*
X021349Y0157*
X021599D02*
Y015899D01*
X021749*
X021799Y01585*
Y0157*
X021899D02*
X022049D01*
X022099Y01575*
X022049Y0158*
X021949*
X021899Y01585*
X021949Y015899*
X022099*
X022249Y0157D02*
X022349D01*
X022399Y01575*
Y01585*
X022349Y015899*
X022249*
X022199Y01585*
Y01575*
X022249Y0157*
X022499D02*
X022599D01*
X022549*
Y015999*
X022499*
X022899Y0157D02*
X022799D01*
X022749Y01575*
Y01585*
X022799Y015899*
X022899*
X022949Y01585*
Y0158*
X022749*
X0063Y000849D02*
Y00065D01*
X0064Y00055*
X006499Y00065*
Y000849*
X006599Y00055D02*
Y000849D01*
X006749*
X006799Y000799*
Y0007*
X006749Y00065*
X006599*
X006699D02*
X006799Y00055D01*
X006899D02*
Y000749D01*
X006999Y000849*
X007099Y000749*
Y00055*
Y0007*
X006899*
X007199Y000849D02*
Y00055D01*
X007349*
X007399Y0006*
Y000799*
X007349Y000849*
X007199*
X007499D02*
X007599D01*
X007549*
Y00055*
X007499*
X007599*
X007899Y000849D02*
X007799D01*
X007749Y000799*
Y0006*
X007799Y00055*
X007899*
X007949Y0006*
Y000799*
X007899Y000849*
X01655Y030299D02*
Y0301D01*
X01665Y03*
X016749Y0301*
Y030299*
X017049Y030249D02*
X016999Y030299D01*
X016899*
X016849Y030249*
Y03005*
X016899Y03*
X016999*
X017049Y03005*
X017149Y03D02*
Y030199D01*
X017249Y030299*
X017349Y030199*
Y03*
Y03015*
X017149*
X017449Y03D02*
Y030299D01*
X017549Y030199*
X017649Y030299*
Y03*
X017749Y030249D02*
X017799Y030299D01*
X017899*
X017949Y030249*
Y030199*
X017899Y03015*
X017849*
X017899*
X017949Y0301*
Y03005*
X017899Y03*
X017799*
X017749Y03005*
X0178Y024049D02*
Y02385D01*
X0179Y02375*
X017999Y02385*
Y024049*
X018299Y023999D02*
X018249Y024049D01*
X018149*
X018099Y023999*
Y0238*
X018149Y02375*
X018249*
X018299Y0238*
X018399Y02375D02*
Y023949D01*
X018499Y024049*
X018599Y023949*
Y02375*
Y0239*
X018399*
X018699Y02375D02*
Y024049D01*
X018799Y023949*
X018899Y024049*
Y02375*
X018999D02*
X019099D01*
X019049*
Y024049*
X018999Y023999*
X019249Y0237D02*
X019449D01*
X019549Y023999D02*
X019599Y024049D01*
X019699*
X019749Y023999*
Y023949*
X019699Y0239*
X019749Y02385*
Y0238*
X019699Y02375*
X019599*
X019549Y0238*
Y02385*
X019599Y0239*
X019549Y023949*
Y023999*
X019599Y0239D02*
X019699D01*
X0365Y001249D02*
Y00105D01*
X0366Y00095*
X036699Y00105*
Y001249*
X036799Y0009D02*
X036999D01*
X037299Y001199D02*
X037249Y001249D01*
X037149*
X037099Y001199*
Y001149*
X037149Y0011*
X037249*
X037299Y00105*
Y001*
X037249Y00095*
X037149*
X037099Y001*
X037399Y001249D02*
Y001199D01*
X037499Y0011*
X037599Y001199*
Y001249*
X037499Y0011D02*
Y00095D01*
X037899Y001199D02*
X037849Y001249D01*
X037749*
X037699Y001199*
Y001149*
X037749Y0011*
X037849*
X037899Y00105*
Y001*
X037849Y00095*
X037749*
X037699Y001*
X05115Y029549D02*
Y02935D01*
X05125Y02925*
X051349Y02935*
Y029549*
X051449D02*
Y02925D01*
X051599*
X051649Y0293*
Y02935*
X051599Y0294*
X051449*
X051599*
X051649Y029449*
Y029499*
X051599Y029549*
X051449*
X051749Y02925D02*
Y029449D01*
X051849Y029549*
X051949Y029449*
Y02925*
Y0294*
X051749*
X052049Y029549D02*
X052249D01*
X052149*
Y02925*
X052349Y029549D02*
X052549D01*
X052449*
Y02925*
X04125Y025149D02*
Y02495D01*
X04135Y02485*
X041449Y02495*
Y025149*
X041549Y0248D02*
X041749D01*
X042049Y025099D02*
X041999Y025149D01*
X041899*
X041849Y025099*
Y025049*
X041899Y024999*
X041999*
X042049Y02495*
Y0249*
X041999Y02485*
X041899*
X041849Y0249*
X042349Y025149D02*
X042149D01*
Y02485*
X042349*
X042149Y024999D02*
X042249D01*
X042449Y02485D02*
Y025149D01*
X042649Y02485*
Y025149*
X042949Y025099D02*
X042899Y025149D01*
X042799*
X042749Y025099*
Y025049*
X042799Y024999*
X042899*
X042949Y02495*
Y0249*
X042899Y02485*
X042799*
X042749Y0249*
X0006Y00555D02*
Y005949D01*
X000866Y00555*
Y005949*
X000999D02*
Y005616D01*
X001066Y00555*
X001199*
X001266Y005616*
Y005949*
X001799Y00555D02*
Y005816D01*
X001932Y005949*
X002066Y005816*
Y00555*
Y005749*
X001799*
X002199Y005949D02*
X002332D01*
X002266*
Y00555*
X002199*
X002332*
X002532D02*
Y005816D01*
X002666Y005949*
X002799Y005816*
Y00555*
Y005749*
X002532*
X002932Y00555D02*
Y005816D01*
X003065Y005949*
X003199Y005816*
Y00555*
Y005749*
X002932*
X0006Y005199D02*
Y0049D01*
Y005*
X000799Y005199*
X00065Y005049*
X000799Y0049*
X000949Y005099D02*
X001049D01*
X001099Y005049*
Y0049*
X000949*
X000899Y00495*
X000949Y005*
X001099*
X001199Y005099D02*
Y0049D01*
Y005*
X001249Y005049*
X001299Y005099*
X001349*
X001499Y0049D02*
Y005099D01*
X001549*
X001599Y005049*
Y0049*
Y005049*
X001649Y005099*
X001699Y005049*
Y0049*
X001849Y005099D02*
X001949D01*
X001999Y005049*
Y0049*
X001849*
X001799Y00495*
X001849Y005*
X001999*
X002099Y0049D02*
Y005099D01*
X002249*
X002299Y005049*
Y0049*
X002699D02*
Y005099D01*
X002799Y005199*
X002899Y005099*
Y0049*
Y005049*
X002699*
X002999Y005099D02*
X003099Y0049D01*
X003199Y005099*
X003299Y0049D02*
X003399D01*
X003349*
Y005099*
X003299*
X003599Y0049D02*
X003699D01*
X003749Y00495*
Y005049*
X003699Y005099*
X003599*
X003549Y005049*
Y00495*
X003599Y0049*
X003848D02*
Y005099D01*
X003998*
X004048Y005049*
Y0049*
X004148D02*
X004248D01*
X004198*
Y005099*
X004148*
X004598D02*
X004448D01*
X004398Y005049*
Y00495*
X004448Y0049*
X004598*
X004698D02*
X004848D01*
X004898Y00495*
X004848Y005*
X004748*
X004698Y005049*
X004748Y005099*
X004898*
X005298Y0049D02*
Y005199D01*
X005398Y005099*
X005498Y005199*
Y0049*
X005648Y005099D02*
X005748D01*
X005798Y005049*
Y0049*
X005648*
X005598Y00495*
X005648Y005*
X005798*
X005898Y0049D02*
X005998D01*
X005948*
Y005099*
X005898*
X006148Y0049D02*
Y005099D01*
X006298*
X006348Y005049*
Y0049*
X006748Y005199D02*
Y0049D01*
X006898*
X006948Y00495*
Y005*
X006898Y005049*
X006748*
X006898*
X006948Y005099*
Y005149*
X006898Y005199*
X006748*
X007097Y0049D02*
X007197D01*
X007247Y00495*
Y005049*
X007197Y005099*
X007097*
X007047Y005049*
Y00495*
X007097Y0049*
X007397Y005099D02*
X007497D01*
X007547Y005049*
Y0049*
X007397*
X007347Y00495*
X007397Y005*
X007547*
X007647Y005099D02*
Y0049D01*
Y005*
X007697Y005049*
X007747Y005099*
X007797*
X008147Y005199D02*
Y0049D01*
X007997*
X007947Y00495*
Y005049*
X007997Y005099*
X008147*
X00055Y00425D02*
Y004549D01*
X0007*
X000749Y004499*
Y004399*
X0007Y00435*
X00055*
X00065D02*
X000749Y00425D01*
X001049Y004549D02*
X000849D01*
Y00425*
X001049*
X000849Y004399D02*
X000949D01*
X001149Y004549D02*
Y00435D01*
X001249Y00425*
X001349Y00435*
Y004549*
X001749Y00425D02*
Y004449D01*
X001849Y004549*
X001949Y004449*
Y00425*
Y004399*
X001749*
X002099Y0042D02*
X002149Y00425D01*
Y0043*
X002099*
Y00425*
X002149*
X002099Y0042*
X002049Y00415*
X002649Y00425D02*
Y004549D01*
X002849Y00425*
Y004549*
X002999Y00425D02*
X003099D01*
X003149Y0043*
Y004399*
X003099Y004449*
X002999*
X002949Y004399*
Y0043*
X002999Y00425*
X003249Y004449D02*
X003349Y00425D01*
X003449Y004449*
X004048Y00425D02*
X003848D01*
X004048Y004449*
Y004499*
X003998Y004549*
X003898*
X003848Y004499*
X004148D02*
X004198Y004549D01*
X004298*
X004348Y004499*
Y0043*
X004298Y00425*
X004198*
X004148Y0043*
Y004499*
X004448Y00425D02*
X004548D01*
X004498*
Y004549*
X004448Y004499*
X004898Y004549D02*
X004698D01*
Y004399*
X004798Y004449*
X004848*
X004898Y004399*
Y0043*
X004848Y00425*
X004748*
X004698Y0043*
G54D96*
X010121Y006685D02*
D01*
D01*
G75*
G03X010022I-000049J0D01*
G74*G01*
D01*
G75*
G03X010121I000049J0D01*
G74*G01*
X011591Y001215D02*
D01*
D01*
G75*
G03X011492I-000049J0D01*
G74*G01*
D01*
G75*
G03X011591I000049J0D01*
G74*G01*
X031561Y020468D02*
D01*
D01*
G75*
G03X031462I-000049J0D01*
G74*G01*
D01*
G75*
G03X031561I000049J0D01*
G74*G01*
X009602Y012937D02*
D01*
D01*
G75*
G03X009503I-000049J0D01*
G74*G01*
D01*
G75*
G03X009602I000049J0D01*
G74*G01*
X021708Y028481D02*
D01*
D01*
G75*
G03X02161I-000049J0D01*
G74*G01*
D01*
G75*
G03X021708I000049J0D01*
G74*G01*
X021629Y025705D02*
D01*
D01*
G75*
G03X021531I-000049J0D01*
G74*G01*
D01*
G75*
G03X021629I000049J0D01*
G74*G01*
X032736Y010126D02*
D01*
D01*
G75*
G03X032637I-000049J0D01*
G74*G01*
D01*
G75*
G03X032736I000049J0D01*
G74*G01*
X024131Y02191D02*
D01*
D01*
G75*
G03X024033I-000049J0D01*
G74*G01*
D01*
G75*
G03X024131I000049J0D01*
G74*G01*
X030438Y028716D02*
D01*
D01*
G75*
G03X030339I-000049J0D01*
G74*G01*
D01*
G75*
G03X030438I000049J0D01*
G74*G01*
X01862Y021989D02*
D01*
D01*
G75*
G03X018522I-000049J0D01*
G74*G01*
D01*
G75*
G03X01862I000049J0D01*
G74*G01*
X010342Y026417D02*
D01*
D01*
G75*
G03X010243I-000049J0D01*
G74*G01*
D01*
G75*
G03X010342I000049J0D01*
G74*G01*
X042549Y014405D02*
D01*
D01*
G75*
G03X04245I-000049J0D01*
G74*G01*
D01*
G75*
G03X042549I000049J0D01*
G74*G01*
X040013Y027629D02*
D01*
D01*
G75*
G03X039915I-000049J0D01*
G74*G01*
D01*
G75*
G03X040013I000049J0D01*
G74*G01*
X051178Y006373D02*
D01*
D01*
G75*
G03X051079I-000049J0D01*
G74*G01*
D01*
G75*
G03X051178I000049J0D01*
G74*G01*
X051128Y011873D02*
D01*
D01*
G75*
G03X051029I-000049J0D01*
G74*G01*
D01*
G75*
G03X051128I000049J0D01*
G74*G01*
Y017673D02*
D01*
D01*
G75*
G03X051029I-000049J0D01*
G74*G01*
D01*
G75*
G03X051128I000049J0D01*
G74*G01*
Y022923D02*
D01*
D01*
G75*
G03X051029I-000049J0D01*
G74*G01*
D01*
G75*
G03X051128I000049J0D01*
G74*G01*
G54D97*
X047896Y028727D02*
D01*
D01*
G75*
G03X047857I-000019J0D01*
G74*G01*
D01*
G75*
G03X047896I000019J0D01*
G74*G01*
X041821Y007227D02*
D01*
D01*
G75*
G03X041782I-000019J0D01*
G74*G01*
D01*
G75*
G03X041821I000019J0D01*
G74*G01*
X033977Y021793D02*
D01*
D01*
G75*
G03X033937I-000019J0D01*
G74*G01*
D01*
G75*
G03X033977I000019J0D01*
G74*G01*
X010533Y012739D02*
X010641D01*
Y012699D02*
Y012739D01*
Y011872D02*
Y011912D01*
X010533Y011872D02*
X010641D01*
X010159Y012739D02*
X010277D01*
X010149Y012709D02*
Y012739D01*
Y011872D02*
X010267D01*
X010149Y011912D02*
Y011872D01*
X005176Y029233D02*
Y030168D01*
X004034Y029233D02*
X005176D01*
X004034D02*
Y030168D01*
X005176*
X014394Y027155D02*
X017268D01*
X014394Y025354D02*
Y027155D01*
Y025354D02*
X017268D01*
Y027155*
G54D98*
X031899Y010697D02*
D01*
D01*
G75*
G03X031663I-000118J0D01*
G74*G01*
D01*
G75*
G03X031899I000118J0D01*
G74*G01*
X041663Y014866D02*
D01*
D01*
G75*
G03X041427I-000118J0D01*
G74*G01*
D01*
G75*
G03X041663I000118J0D01*
G74*G01*
G54D99*
X011459Y008633D02*
X011705D01*
Y008387D02*
Y008633D01*
Y006941D02*
Y007187D01*
X011459Y006941D02*
X011705D01*
X010013Y008633D02*
X010259D01*
X010013Y008387D02*
Y008633D01*
Y006941D02*
Y007187D01*
Y006941D02*
X010259D01*
X009809Y003849D02*
X01099D01*
X009809Y00125D02*
X01099D01*
X009809D02*
Y003849D01*
X01099Y00125D02*
Y003849D01*
X033214Y021561D02*
Y022161D01*
X033263*
X033214Y020901D02*
Y021502D01*
Y020901D02*
X033263D01*
X031285Y021561D02*
Y022161D01*
X031236D02*
X031285D01*
X03126Y020901D02*
X031285Y020877D01*
Y021502*
X031236Y020901D02*
X03126D01*
X011206Y013193D02*
Y013351D01*
X011048Y013193D02*
X011206D01*
Y014748D02*
Y014906D01*
X011048D02*
X011206D01*
X009493D02*
X009651D01*
X009493Y014748D02*
Y014906D01*
Y013193D02*
Y013351D01*
Y013193D02*
X009651D01*
X04638Y029672D02*
X046599D01*
X0475D02*
X047719D01*
X04638Y028727D02*
X046599D01*
X0475D02*
X047719D01*
X04638Y029603D02*
Y029672D01*
Y028727D02*
Y028796D01*
X047719Y029603D02*
Y029672D01*
Y028727D02*
Y028796D01*
X020862Y02859D02*
X021255D01*
X020862Y02981D02*
X021255D01*
Y02859D02*
Y02981D01*
X020862Y02859D02*
Y02981D01*
X040305Y008172D02*
X040524D01*
X041426D02*
X041644D01*
X040305Y007227D02*
X040524D01*
X041426D02*
X041644D01*
X040305Y008103D02*
Y008172D01*
Y007227D02*
Y007296D01*
X041644Y008103D02*
Y008172D01*
Y007227D02*
Y007296D01*
X020783Y025814D02*
X021177D01*
X020783Y027034D02*
X021177D01*
Y025814D02*
Y027034D01*
X020783Y025814D02*
Y027034D01*
X032175Y010303D02*
Y015225D01*
X027253Y010303D02*
Y015225D01*
Y010303D02*
X032175D01*
X027253Y015225D02*
X032175D01*
X014294Y002424D02*
Y002975D01*
X014905Y002424D02*
Y002975D01*
X045905Y025724D02*
Y026275D01*
X045294Y025724D02*
Y026275D01*
X039955Y004424D02*
Y004975D01*
X039344Y004424D02*
Y004975D01*
X024338Y02191D02*
Y021969D01*
X024594*
X02542D02*
X025676D01*
Y02191D02*
Y021969D01*
Y02063D02*
Y020689D01*
X02542Y02063D02*
X025676D01*
X024338D02*
Y020689D01*
Y02063D02*
X024594D01*
X035213Y020494D02*
X035414D01*
X034115D02*
X034315D01*
X035213Y021793D02*
X035414D01*
X034115D02*
X034315D01*
X035414Y020494D02*
Y020503D01*
Y021783D02*
Y021793D01*
X034115Y020494D02*
Y020503D01*
Y021783D02*
Y021793D01*
X030644Y027024D02*
X03092D01*
X030644D02*
Y027299D01*
X032121Y027024D02*
X032396D01*
Y027299*
Y0285D02*
Y028776D01*
X032121D02*
X032396D01*
X030644D02*
X03092D01*
X030644Y0285D02*
Y028776D01*
X018827Y019568D02*
X019221D01*
X018827D02*
Y019962D01*
X020914Y019568D02*
X021307D01*
Y019962*
Y021655D02*
Y022048D01*
X020914D02*
X021307D01*
X018827D02*
X019221D01*
X018827Y021655D02*
Y022048D01*
X005942Y030295D02*
X007812D01*
X005942Y030197D02*
Y030295D01*
X008009D02*
X009879D01*
Y030197D02*
Y030295D01*
X005942Y026004D02*
X007812D01*
X005942D02*
Y026102D01*
X00983Y026004D02*
X009879Y026053D01*
X008009Y026004D02*
X00983D01*
X009879Y026053D02*
Y026102D01*
X039301Y018527D02*
X041939D01*
X039301Y014472D02*
X041939D01*
X039301D02*
Y018527D01*
X041939Y014472D02*
Y018527D01*
X03954Y028929D02*
X039708D01*
Y028761D02*
Y028929D01*
X03835D02*
X038517D01*
X03835Y028761D02*
Y028929D01*
Y02757D02*
Y027738D01*
Y02757D02*
X038517D01*
X03954D02*
X039708D01*
Y027738*
X040216Y003863D02*
Y006737D01*
X042933Y003863D02*
Y006737D01*
X040216Y003863D02*
X041004D01*
X040216Y006737D02*
X041004D01*
X042146Y003863D02*
X042933D01*
X042146Y006737D02*
X042933D01*
X046291Y025363D02*
Y028237D01*
X049008Y025363D02*
Y028237D01*
X046291Y025363D02*
X047079D01*
X046291Y028237D02*
X047079D01*
X04822Y025363D02*
X049008D01*
X04822Y028237D02*
X049008D01*
X052408Y002902D02*
X053018D01*
X052408D02*
Y006997D01*
X053018*
X052358Y008402D02*
X052968D01*
X052358D02*
Y012497D01*
X052968*
X052358Y014202D02*
X052968D01*
X052358D02*
Y018297D01*
X052968*
X052358Y019452D02*
X052968D01*
X052358D02*
Y023547D01*
X052968*
M02*