%FSTAX24Y24*%
%MOIN*%
%SFA1B1*%

%IPPOS*%
%ADD58C,0.008000*%
%ADD96C,0.009840*%
%ADD99C,0.007870*%
%LNkarmandb-1*%
%LPD*%
G54D58*
X0472Y00473D02*
Y005029D01*
X04705*
X047Y004979*
Y00488*
X04705Y00483*
X0472*
X0471D02*
X047Y00473D01*
X0469Y004979D02*
X04685Y005029D01*
X04675*
X0467Y004979*
Y004929*
X04675Y00488*
X0467Y00483*
Y00478*
X04675Y00473*
X04685*
X0469Y00478*
Y00483*
X04685Y00488*
X0469Y004929*
Y004979*
X04685Y00488D02*
X04675D01*
X05933Y021549D02*
X05938Y021599D01*
X05948*
X05953Y021549*
Y02135*
X05948Y0213*
X05938*
X05933Y02135*
X05923Y021549D02*
X05918Y021599D01*
X05908*
X05903Y021549*
Y021499*
X05908Y02145*
X05913*
X05908*
X05903Y0214*
Y02135*
X05908Y0213*
X05918*
X05923Y02135*
X05873Y021599D02*
X05893D01*
Y02145*
X05883Y021499*
X05878*
X05873Y02145*
Y02135*
X05878Y0213*
X05888*
X05893Y02135*
X05138Y021499D02*
X05143Y021549D01*
X05153*
X05158Y021499*
Y0213*
X05153Y02125*
X05143*
X05138Y0213*
X05128Y021499D02*
X05123Y021549D01*
X05113*
X05108Y021499*
Y021449*
X05113Y0214*
X05118*
X05113*
X05108Y02135*
Y0213*
X05113Y02125*
X05123*
X05128Y0213*
X05078Y021549D02*
X05088Y021499D01*
X05098Y0214*
Y0213*
X05093Y02125*
X05083*
X05078Y0213*
Y02135*
X05083Y0214*
X05098*
X01571Y006669D02*
X01551D01*
X01561*
Y00637*
X01541D02*
Y006669D01*
X01526*
X01521Y006619*
Y00652*
X01526Y00647*
X01541*
X01491Y00637D02*
X01511D01*
X01491Y006569*
Y006619*
X01496Y006669*
X01506*
X01511Y006619*
X01461Y006669D02*
X01481D01*
Y00652*
X01471Y006569*
X01466*
X01461Y00652*
Y00642*
X01466Y00637*
X01476*
X01481Y00642*
X01711Y006169D02*
X01691D01*
X01701*
Y00587*
X01681D02*
Y006169D01*
X01666*
X01661Y006119*
Y00602*
X01666Y00597*
X01681*
X01631Y00587D02*
X01651D01*
X01631Y006069*
Y006119*
X01636Y006169*
X01646*
X01651Y006119*
X01621Y006169D02*
X01601D01*
Y006119*
X01621Y00592*
Y00587*
X01521Y015519D02*
X01501D01*
X01511*
Y01522*
X01491D02*
Y015519D01*
X01476*
X01471Y015469*
Y01537*
X01476Y01532*
X01491*
X01461Y015519D02*
X01441D01*
Y015469*
X01461Y01527*
Y01522*
X01411D02*
X01431D01*
X01411Y015419*
Y015469*
X01416Y015519*
X01426*
X01431Y015469*
X01596Y015969D02*
X01576D01*
X01586*
Y01567*
X01566D02*
Y015969D01*
X01551*
X01546Y015919*
Y01582*
X01551Y01577*
X01566*
X01536Y015969D02*
X01516D01*
Y015919*
X01536Y01572*
Y01567*
X01506Y015919D02*
X01501Y015969D01*
X01491*
X01486Y015919*
Y015869*
X01491Y01582*
X01496*
X01491*
X01486Y01577*
Y01572*
X01491Y01567*
X01501*
X01506Y01572*
G54D96*
X059474Y006546D02*
D01*
D01*
G75*
G03X059376I-000049J0D01*
G74*G01*
D01*
G75*
G03X059474I000049J0D01*
G74*G01*
X051524Y006496D02*
D01*
D01*
G75*
G03X051426I-000049J0D01*
G74*G01*
D01*
G75*
G03X051524I000049J0D01*
G74*G01*
G54D99*
X04712Y002073D02*
Y003726D01*
X045879Y002073D02*
Y003726D01*
X059543Y0082D02*
Y018908D01*
X057378D02*
X059543D01*
X052456Y0082D02*
Y018908D01*
X054582*
X051593Y00815D02*
Y018858D01*
X049428D02*
X051593D01*
X044506Y00815D02*
Y018858D01*
X046632*
M02*