%FSTAX24Y24*%
%MOIN*%
%SFA1B1*%

%IPPOS*%
%ADD21C,0.039370*%
%ADD55C,0.010000*%
%ADD56C,0.009000*%
%ADD58C,0.008000*%
%ADD75C,0.098430*%
%ADD76C,0.070870*%
%ADD77C,0.030000*%
%ADD78C,0.032000*%
%ADD89R,0.131890X0.045280*%
%ADD90R,0.137800X0.228350*%
%ADD91R,0.236220X0.177160*%
%ADD92R,0.085000X0.030000*%
%ADD93R,0.080000X0.035000*%
%ADD94R,0.065000X0.030000*%
%ADD95R,0.070000X0.030000*%
%LNkarmandb-1*%
%LPD*%
G36*
X061Y0325D02*
Y0D01*
X0*
Y0325*
X061*
G37*
%LNkarmandb-2*%
%LPC*%
G36*
X0038Y01139D02*
X003733Y011383D01*
X003622Y011349*
X003519Y011294*
X003429Y01122*
X003355Y01113*
X0033Y011027*
X003266Y010916*
X003259Y01085*
X0038*
Y01139*
G37*
G36*
X0039D02*
Y01085D01*
X00444*
X004433Y010916*
X004399Y011027*
X004344Y01113*
X00427Y01122*
X00418Y011294*
X004077Y011349*
X003966Y011383*
X0039Y01139*
G37*
G36*
X0018D02*
X001733Y011383D01*
X001622Y011349*
X001519Y011294*
X001429Y01122*
X001355Y01113*
X0013Y011027*
X001266Y010916*
X001259Y01085*
X0018*
Y01139*
G37*
G36*
X0019D02*
Y01085D01*
X00244*
X002433Y010916*
X002399Y011027*
X002344Y01113*
X00227Y01122*
X00218Y011294*
X002077Y011349*
X001966Y011383*
X0019Y01139*
G37*
G36*
X00244Y0142D02*
X0019D01*
Y013659*
X001966Y013666*
X002077Y0137*
X00218Y013755*
X00227Y013829*
X002344Y013919*
X002399Y014022*
X002433Y014133*
X00244Y0142*
G37*
G36*
X0038D02*
X003259D01*
X003266Y014133*
X0033Y014022*
X003355Y013919*
X003429Y013829*
X003519Y013755*
X003622Y0137*
X003733Y013666*
X0038Y013659*
Y0142*
G37*
G36*
X011346Y013255D02*
X011261Y013237D01*
X011188Y013189*
X011139Y013116*
X011122Y01303*
X011139Y012944*
X011188Y012872*
X011261Y012823*
X011346Y012806*
X011432Y012823*
X011505Y012872*
X011554Y012944*
X011571Y01303*
X011554Y013116*
X011505Y013189*
X011432Y013237*
X011346Y013255*
G37*
G36*
X0018Y0142D02*
X001259D01*
X001266Y014133*
X0013Y014022*
X001355Y013919*
X001429Y013829*
X001519Y013755*
X001622Y0137*
X001733Y013666*
X0018Y013659*
Y0142*
G37*
G36*
X0038Y01075D02*
X003259D01*
X003266Y010683*
X003268Y010678*
X003201Y010623*
X003193Y010628*
X003024Y010679*
X00285Y010696*
X002675Y010679*
X002506Y010628*
X002499Y010623*
X002432Y010678*
X002433Y010683*
X00244Y01075*
X0019*
Y010209*
X001966Y010216*
X001971Y010218*
X002026Y010151*
X002021Y010143*
X00197Y009974*
X001953Y0098*
X00197Y009625*
X002021Y009456*
X002026Y009449*
X001971Y009382*
X001966Y009383*
X0019Y00939*
Y00885*
X00244*
X002433Y008916*
X002432Y008921*
X002499Y008976*
X002506Y008971*
X002675Y00892*
X00285Y008903*
X003024Y00892*
X003193Y008971*
X003201Y008976*
X003268Y008921*
X003266Y008916*
X003259Y00885*
X0038*
Y00939*
X003733Y009383*
X003728Y009382*
X003673Y009449*
X003678Y009456*
X003729Y009625*
X003746Y0098*
X003729Y009974*
X003678Y010143*
X003673Y010151*
X003728Y010218*
X003733Y010216*
X0038Y010209*
Y01075*
G37*
G36*
X0593Y018463D02*
X059191Y018449D01*
X059091Y018407*
X059004Y018341*
X058938Y018254*
X058896Y018153*
X058882Y018045*
X058896Y017937*
X058938Y017836*
X059004Y01775*
X059091Y017683*
X059191Y017642*
X059177Y017564*
X058262*
X058251Y01756*
X058238*
X058216Y01755*
X058206Y017541*
X058195Y017536*
X058029Y01737*
X057854Y017195*
X057813Y017155*
X057808Y017143*
X057799Y017134*
X05779Y017111*
Y017099*
X057785Y017087*
Y016026*
X057747Y015989*
X050023Y008264*
X044266*
X044263*
X044262*
X044251Y00826*
X04424*
X044238*
X044217Y008251*
X044216Y00825*
X044214Y008249*
X044196Y008237*
X044195Y008236*
X044175Y008216*
X044104Y008145*
X043689Y007731*
X043687Y007726*
X043683Y007723*
X043654Y007685*
X043652Y007677*
X043646Y007671*
Y007654*
X043642Y007637*
X043646Y00763*
Y007622*
X043649Y007616*
X043658Y007606*
X043663Y007595*
X043665Y007592*
X043685Y007573*
Y007564*
Y007557*
Y007509*
Y005012*
X04369Y005001*
Y004988*
X043699Y004966*
X043708Y004956*
X043713Y004945*
X044654Y004004*
X045594Y003063*
X045606Y003058*
X045616Y003049*
X045638Y00304*
X045651*
X045662Y003035*
X050443*
X050444Y003035*
X050445Y003035*
X050467Y003044*
X050489Y003054*
X050489Y003054*
X05049Y003055*
X050507Y003072*
Y003072*
X050508Y003076*
X05051Y003079*
X050515Y003084*
X050532Y003111*
X050535Y003131*
X050539Y003137*
X050554Y00321*
X050588Y003261*
X050639Y003296*
X0507Y003308*
X05076Y003296*
X050811Y003261*
X050846Y00321*
X05086Y003137*
X050864Y003131*
X050867Y003111*
X050884Y003084*
X05089Y003079*
X050891Y003076*
X050892Y003072*
X050909Y003055*
X05091Y003054*
X05091Y003054*
X050932Y003044*
X050954Y003035*
X050955Y003035*
X050956Y003035*
X051093*
X051094Y003035*
X051095Y003035*
X051117Y003044*
X051139Y003054*
X051139Y003054*
X05114Y003055*
X051157Y003072*
Y003072*
X051158Y003076*
X05116Y003079*
X051165Y003084*
X051182Y003111*
X051185Y003131*
X051189Y003137*
X051204Y00321*
X051238Y003261*
X051289Y003296*
X05135Y003308*
X05141Y003296*
X051461Y003261*
X051496Y00321*
X05151Y003137*
X051514Y003131*
X051517Y003111*
X051534Y003084*
X05154Y003079*
X051541Y003076*
X051542Y003072*
X051559Y003055*
X05156Y003054*
X05156Y003054*
X051582Y003044*
X051604Y003035*
X051605Y003035*
X051606Y003035*
X058187*
X058199Y00304*
X058211*
X058234Y003049*
X058243Y003058*
X058255Y003063*
X058274Y003082*
X060636Y005444*
X060641Y005456*
X06065Y005466*
X06066Y005488*
Y005501*
X060664Y005512*
Y01725*
Y017337*
X06066Y017349*
Y017361*
X06065Y017384*
X060641Y017393*
X060636Y017405*
X060505Y017536*
X060493Y017541*
X060484Y01755*
X060462Y01756*
X060449*
X060437Y017564*
X059422*
X059408Y017642*
X059509Y017683*
X059595Y01775*
X059661Y017836*
X059703Y017937*
X059717Y018045*
X059703Y018153*
X059661Y018254*
X059595Y018341*
X059509Y018407*
X059408Y018449*
X0593Y018463*
G37*
G36*
X02815Y008874D02*
X028064Y008857D01*
X027991Y008808*
X027942Y008735*
X027925Y00865*
X027942Y008564*
X027991Y008491*
X028064Y008442*
X02815Y008425*
X028235Y008442*
X028308Y008491*
X028357Y008564*
X028374Y00865*
X028357Y008735*
X028308Y008808*
X028235Y008857*
X02815Y008874*
G37*
G36*
X0038Y00875D02*
X003259D01*
X003266Y008683*
X0033Y008572*
X003355Y008469*
X003429Y008379*
X003519Y008305*
X003622Y00825*
X003733Y008216*
X0038Y008209*
Y00875*
G37*
G36*
X00444D02*
X0039D01*
Y008209*
X003966Y008216*
X004077Y00825*
X00418Y008305*
X00427Y008379*
X004344Y008469*
X004399Y008572*
X004433Y008683*
X00444Y00875*
G37*
G36*
X0018Y01075D02*
X001259D01*
X001266Y010683*
X0013Y010572*
X001355Y010469*
X001429Y010379*
X001519Y010305*
X001622Y01025*
X001733Y010216*
X0018Y010209*
Y01075*
G37*
G36*
X00444D02*
X0039D01*
Y010209*
X003966Y010216*
X004077Y01025*
X00418Y010305*
X00427Y010379*
X004344Y010469*
X004399Y010572*
X004433Y010683*
X00444Y01075*
G37*
G36*
X0018Y00939D02*
X001733Y009383D01*
X001622Y009349*
X001519Y009294*
X001429Y00922*
X001355Y00913*
X0013Y009027*
X001266Y008916*
X001259Y00885*
X0018*
Y00939*
G37*
G36*
X0039D02*
Y00885D01*
X00444*
X004433Y008916*
X004399Y009027*
X004344Y00913*
X00427Y00922*
X00418Y009294*
X004077Y009349*
X003966Y009383*
X0039Y00939*
G37*
G36*
Y01684D02*
Y0163D01*
X00444*
X004433Y016366*
X004399Y016477*
X004344Y01658*
X00427Y01667*
X00418Y016744*
X004077Y016799*
X003966Y016833*
X0039Y01684*
G37*
G36*
X048Y019989D02*
X046768D01*
Y019053*
X048*
Y019989*
G37*
G36*
X0019Y01684D02*
Y0163D01*
X00244*
X002433Y016366*
X002399Y016477*
X002344Y01658*
X00227Y01667*
X00218Y016744*
X002077Y016799*
X001966Y016833*
X0019Y01684*
G37*
G36*
X0038D02*
X003733Y016833D01*
X003622Y016799*
X003519Y016744*
X003429Y01667*
X003355Y01658*
X0033Y016477*
X003266Y016366*
X003259Y0163*
X0038*
Y01684*
G37*
G36*
X057281Y020039D02*
X05605D01*
Y019103*
X057281*
Y020039*
G37*
G36*
X02146Y019733D02*
X021374Y019715D01*
X021301Y019667*
X021253Y019594*
X021235Y019508*
X021253Y019422*
X021301Y01935*
X021374Y019301*
X02146Y019284*
X021546Y019301*
X021618Y01935*
X021667Y019422*
X021684Y019508*
X021667Y019594*
X021618Y019667*
X021546Y019715*
X02146Y019733*
G37*
G36*
X049331Y019989D02*
X0481D01*
Y019053*
X049331*
Y019989*
G37*
G36*
X05595Y020039D02*
X054718D01*
Y019103*
X05595*
Y020039*
G37*
G36*
X0018Y01684D02*
X001733Y016833D01*
X001622Y016799*
X001519Y016744*
X001429Y01667*
X001355Y01658*
X0013Y016477*
X001266Y016366*
X001259Y0163*
X0018*
Y01684*
G37*
G36*
X0039Y01484D02*
Y0143D01*
X00444*
X004433Y014366*
X004399Y014477*
X004344Y01458*
X00427Y01467*
X00418Y014744*
X004077Y014799*
X003966Y014833*
X0039Y01484*
G37*
G36*
X0116Y015024D02*
X011514Y015007D01*
X011441Y014958*
X011392Y014885*
X011375Y0148*
X011392Y014714*
X011441Y014641*
X011514Y014592*
X0116Y014575*
X011685Y014592*
X011758Y014641*
X011807Y014714*
X011824Y0148*
X011807Y014885*
X011758Y014958*
X011685Y015007*
X0116Y015024*
G37*
G36*
X00444Y0142D02*
X0039D01*
Y013659*
X003966Y013666*
X004077Y0137*
X00418Y013755*
X00427Y013829*
X004344Y013919*
X004399Y014022*
X004433Y014133*
X00444Y0142*
G37*
G36*
X0018Y01484D02*
X001733Y014833D01*
X001622Y014799*
X001519Y014744*
X001429Y01467*
X001355Y01458*
X0013Y014477*
X001266Y014366*
X001259Y0143*
X0018*
Y01484*
G37*
G36*
X00444Y0162D02*
X0039D01*
Y015659*
X003966Y015666*
X004077Y0157*
X00418Y015755*
X00427Y015829*
X004344Y015919*
X004399Y016022*
X004433Y016133*
X00444Y0162*
G37*
G36*
X0038D02*
X003259D01*
X003266Y016133*
X003268Y016128*
X003201Y016073*
X003193Y016078*
X003024Y016129*
X00285Y016146*
X002675Y016129*
X002506Y016078*
X002499Y016073*
X002432Y016128*
X002433Y016133*
X00244Y0162*
X0019*
Y015659*
X001966Y015666*
X001971Y015668*
X002026Y015601*
X002021Y015593*
X00197Y015424*
X001953Y01525*
X00197Y015075*
X002021Y014906*
X002026Y014899*
X001971Y014832*
X001966Y014833*
X0019Y01484*
Y0143*
X00244*
X002433Y014366*
X002432Y014371*
X002499Y014426*
X002506Y014421*
X002675Y01437*
X00285Y014353*
X003024Y01437*
X003193Y014421*
X003201Y014426*
X003268Y014371*
X003266Y014366*
X003259Y0143*
X0038*
Y01484*
X003733Y014833*
X003728Y014832*
X003673Y014899*
X003678Y014906*
X003729Y015075*
X003746Y01525*
X003729Y015424*
X003678Y015593*
X003673Y015601*
X003728Y015668*
X003733Y015666*
X0038Y015659*
Y0162*
G37*
G36*
X0434Y015474D02*
X043314Y015457D01*
X043241Y015408*
X043192Y015335*
X043175Y01525*
X043192Y015164*
X043241Y015091*
X043314Y015042*
X0434Y015025*
X043485Y015042*
X043558Y015091*
X043607Y015164*
X043624Y01525*
X043607Y015335*
X043558Y015408*
X043485Y015457*
X0434Y015474*
G37*
G36*
X0018Y0162D02*
X001259D01*
X001266Y016133*
X0013Y016022*
X001355Y015919*
X001429Y015829*
X001519Y015755*
X001622Y0157*
X001733Y015666*
X0018Y015659*
Y0162*
G37*
G36*
X0368Y002467D02*
X036691Y002453D01*
X036591Y002411*
X036504Y002345*
X036438Y002259*
X036396Y002158*
X036382Y00205*
X036396Y001941*
X036438Y001841*
X036504Y001754*
X036591Y001688*
X036691Y001646*
X0368Y001632*
X036908Y001646*
X037009Y001688*
X037095Y001754*
X037161Y001841*
X037203Y001941*
X037217Y00205*
X037203Y002158*
X037161Y002259*
X037095Y002345*
X037009Y002411*
X036908Y002453*
X0368Y002467*
G37*
G36*
X01255Y002274D02*
X012464Y002257D01*
X012391Y002208*
X012342Y002135*
X012325Y00205*
X012342Y001964*
X012391Y001891*
X012464Y001842*
X01255Y001825*
X012635Y001842*
X012708Y001891*
X012757Y001964*
X012774Y00205*
X012757Y002135*
X012708Y002208*
X012635Y002257*
X01255Y002274*
G37*
G36*
X0076Y002001D02*
X007531Y001992D01*
X00742Y001946*
X007326Y001874*
X007253Y001779*
X007207Y001668*
X007198Y0016*
X0076*
Y002001*
G37*
G36*
X0077D02*
Y0016D01*
X008101*
X008092Y001668*
X008046Y001779*
X007974Y001874*
X007879Y001946*
X007768Y001992*
X0077Y002001*
G37*
G36*
X041575Y003224D02*
X041489Y003207D01*
X041416Y003158*
X041368Y003085*
X04135Y003*
X041368Y002914*
X041416Y002841*
X041489Y002792*
X041575Y002775*
X041661Y002792*
X041733Y002841*
X041782Y002914*
X041799Y003*
X041782Y003085*
X041733Y003158*
X041661Y003207*
X041575Y003224*
G37*
G36*
X0125Y003274D02*
X012414Y003257D01*
X012341Y003208*
X012292Y003135*
X012275Y00305*
X012292Y002964*
X012341Y002891*
X012414Y002842*
X0125Y002825*
X012585Y002842*
X012658Y002891*
X012707Y002964*
X012724Y00305*
X012707Y003135*
X012658Y003208*
X012585Y003257*
X0125Y003274*
G37*
G36*
X03775Y002501D02*
X037681Y002492D01*
X03757Y002446*
X037476Y002374*
X037403Y002279*
X037357Y002168*
X037348Y0021*
X03775*
Y002501*
G37*
G36*
X03785D02*
Y0021D01*
X038251*
X038242Y002168*
X038196Y002279*
X038124Y002374*
X038029Y002446*
X037918Y002492*
X03785Y002501*
G37*
G36*
X038251Y002D02*
X03785D01*
Y001598*
X037918Y001607*
X038029Y001653*
X038124Y001726*
X038196Y00182*
X038242Y001931*
X038251Y002*
G37*
G36*
X0595Y002266D02*
X05935Y002251D01*
X059206Y002207*
X059074Y002137*
X058958Y002041*
X058862Y001925*
X058792Y001793*
X058748Y001649*
X058733Y0015*
X058748Y00135*
X058792Y001206*
X058862Y001074*
X058958Y000958*
X059074Y000862*
X059206Y000792*
X05935Y000748*
X0595Y000733*
X059649Y000748*
X059793Y000792*
X059925Y000862*
X060041Y000958*
X060137Y001074*
X060207Y001206*
X060251Y00135*
X060266Y0015*
X060251Y001649*
X060207Y001793*
X060137Y001925*
X060041Y002041*
X059925Y002137*
X059793Y002207*
X059649Y002251*
X0595Y002266*
G37*
G36*
X02284Y001639D02*
X019311D01*
Y00086*
X02284*
Y001639*
G37*
G36*
X0474Y002264D02*
X04545D01*
X045404Y002245*
X045385Y0022*
Y0008*
X045398Y000767*
X045404Y000754*
X045654Y000504*
X0457Y000485*
X04725*
X047295Y000504*
X047345Y000554*
X047445Y000654*
X047464Y0007*
Y0022*
X047445Y002245*
X0474Y002264*
G37*
G36*
X0015Y002266D02*
X00135Y002251D01*
X001206Y002207*
X001074Y002137*
X000958Y002041*
X000862Y001925*
X000792Y001793*
X000748Y001649*
X000733Y0015*
X000748Y00135*
X000792Y001206*
X000862Y001074*
X000958Y000958*
X001074Y000862*
X001206Y000792*
X00135Y000748*
X0015Y000733*
X001649Y000748*
X001793Y000792*
X001925Y000862*
X002041Y000958*
X002137Y001074*
X002207Y001206*
X002251Y00135*
X002266Y0015*
X002251Y001649*
X002207Y001793*
X002137Y001925*
X002041Y002041*
X001925Y002137*
X001793Y002207*
X001649Y002251*
X0015Y002266*
G37*
G36*
X00665Y001967D02*
X006541Y001953D01*
X006441Y001911*
X006354Y001845*
X006288Y001759*
X006246Y001658*
X006232Y00155*
X006246Y001441*
X006288Y001341*
X006354Y001254*
X006441Y001188*
X006541Y001146*
X00665Y001132*
X006758Y001146*
X006859Y001188*
X006945Y001254*
X007011Y001341*
X007053Y001441*
X007067Y00155*
X007053Y001658*
X007011Y001759*
X006945Y001845*
X006859Y001911*
X006758Y001953*
X00665Y001967*
G37*
G36*
X03775Y002D02*
X037348D01*
X037357Y001931*
X037403Y00182*
X037476Y001726*
X03757Y001653*
X037681Y001607*
X03775Y001598*
Y002*
G37*
G36*
X0076Y0015D02*
X007198D01*
X007207Y001431*
X007253Y00132*
X007326Y001226*
X00742Y001153*
X007531Y001107*
X0076Y001098*
Y0015*
G37*
G36*
X008101D02*
X0077D01*
Y001098*
X007768Y001107*
X007879Y001153*
X007974Y001226*
X008046Y00132*
X008092Y001431*
X008101Y0015*
G37*
G36*
X02735Y005824D02*
X027264Y005807D01*
X027191Y005758*
X02716Y005712*
X020989*
X020958Y005758*
X020885Y005807*
X0208Y005824*
X020714Y005807*
X020641Y005758*
X020592Y005685*
X020575Y0056*
X020592Y005514*
X020641Y005441*
X020714Y005392*
X0208Y005375*
X020885Y005392*
X020958Y005441*
X020989Y005487*
X024316*
X024341Y005408*
X024292Y005335*
X024275Y00525*
X024292Y005164*
X024341Y005091*
X024387Y00506*
Y002739*
X024341Y002708*
X024292Y002635*
X024275Y00255*
X024292Y002464*
X024341Y002391*
X024414Y002342*
X0245Y002325*
X024585Y002342*
X024658Y002391*
X024707Y002464*
X024724Y00255*
X024707Y002635*
X024658Y002708*
X024612Y002739*
Y00506*
X024658Y005091*
X024707Y005164*
X024724Y00525*
X024707Y005335*
X024658Y005408*
X024684Y005487*
X02716*
X027191Y005441*
X027264Y005392*
X02735Y005375*
X027435Y005392*
X027508Y005441*
X027557Y005514*
X027574Y0056*
X027557Y005685*
X027508Y005758*
X027435Y005807*
X02735Y005824*
G37*
G36*
X033785Y006974D02*
X033699Y006957D01*
X033626Y006908*
X033578Y006835*
X033561Y00675*
X033578Y006664*
X033626Y006591*
X033699Y006542*
X033785Y006525*
X033871Y006542*
X033944Y006591*
X033992Y006664*
X034009Y00675*
X033992Y006835*
X033944Y006908*
X033871Y006957*
X033785Y006974*
G37*
G36*
X0312Y005701D02*
Y0053D01*
X031601*
X031592Y005368*
X031546Y005479*
X031474Y005574*
X031379Y005646*
X031268Y005692*
X0312Y005701*
G37*
G36*
X011616Y006807D02*
X01153Y00679D01*
X011457Y006742*
X011409Y006669*
X011392Y006583*
X011409Y006497*
X011457Y006424*
X01153Y006376*
X011616Y006359*
X011629Y006361*
X01222Y00577*
X012257Y005746*
X0123Y005737*
X015318*
X015325Y00572*
X015366Y005666*
X01542Y005625*
X015483Y005599*
X01555Y00559*
X015617Y005599*
X015679Y005625*
X015733Y005666*
X015774Y00572*
X015781Y005737*
X01926*
X019291Y005691*
X019364Y005642*
X01945Y005625*
X019535Y005642*
X019608Y005691*
X019657Y005764*
X019674Y00585*
X019657Y005935*
X019608Y006008*
X019535Y006057*
X01945Y006074*
X019364Y006057*
X019291Y006008*
X01926Y005962*
X015781*
X015774Y005979*
X015733Y006033*
X015679Y006074*
X015617Y0061*
X01555Y006109*
X015483Y0061*
X01542Y006074*
X015366Y006033*
X015325Y005979*
X015318Y005962*
X012346*
X011818Y00649*
X011823Y006497*
X01184Y006583*
X011823Y006669*
X011775Y006742*
X011702Y00679*
X011616Y006807*
G37*
G36*
X0018Y00875D02*
X001259D01*
X001266Y008683*
X0013Y008572*
X001355Y008469*
X001429Y008379*
X001519Y008305*
X001622Y00825*
X001733Y008216*
X0018Y008209*
Y00875*
G37*
G36*
X00244D02*
X0019D01*
Y008209*
X001966Y008216*
X002077Y00825*
X00218Y008305*
X00227Y008379*
X002344Y008469*
X002399Y008572*
X002433Y008683*
X00244Y00875*
G37*
G36*
X042125Y007924D02*
X042039Y007907D01*
X041966Y007858*
X041918Y007785*
X0419Y0077*
X041918Y007614*
X041966Y007541*
X042039Y007492*
X042125Y007475*
X042211Y007492*
X042283Y007541*
X042332Y007614*
X042349Y0077*
X042332Y007785*
X042283Y007858*
X042211Y007907*
X042125Y007924*
G37*
G36*
X008266Y008011D02*
X00818Y007994D01*
X008107Y007946*
X008059Y007873*
X008042Y007787*
X008059Y007701*
X008107Y007628*
X00818Y00758*
X008266Y007563*
X008352Y00758*
X008425Y007628*
X008473Y007701*
X00849Y007787*
X008473Y007873*
X008425Y007946*
X008352Y007994*
X008266Y008011*
G37*
G36*
X0311Y005701D02*
X031031Y005692D01*
X03092Y005646*
X030826Y005574*
X030753Y005479*
X030707Y005368*
X030698Y0053*
X0311*
Y005701*
G37*
G36*
X03115Y004667D02*
X031041Y004653D01*
X030941Y004611*
X030854Y004545*
X030788Y004458*
X030746Y004358*
X030732Y00425*
X030746Y004141*
X030788Y004041*
X030854Y003954*
X030941Y003888*
X031041Y003846*
X03115Y003832*
X031258Y003846*
X031359Y003888*
X031445Y003954*
X031511Y004041*
X031553Y004141*
X031567Y00425*
X031553Y004358*
X031511Y004458*
X031445Y004545*
X031359Y004611*
X031258Y004653*
X03115Y004667*
G37*
G36*
X0311Y0052D02*
X030698D01*
X030707Y005131*
X030753Y00502*
X030826Y004926*
X03092Y004853*
X031031Y004807*
X0311Y004798*
Y0052*
G37*
G36*
X02915Y004667D02*
X029041Y004653D01*
X028941Y004611*
X028854Y004545*
X028788Y004458*
X028746Y004358*
X028732Y00425*
X028746Y004141*
X028788Y004041*
X028854Y003954*
X028941Y003888*
X029041Y003846*
X02915Y003832*
X029258Y003846*
X029359Y003888*
X029445Y003954*
X029511Y004041*
X029553Y004141*
X029567Y00425*
X029553Y004358*
X029511Y004458*
X029445Y004545*
X029359Y004611*
X029258Y004653*
X02915Y004667*
G37*
G36*
X03015D02*
X030041Y004653D01*
X029941Y004611*
X029854Y004545*
X029788Y004458*
X029746Y004358*
X029732Y00425*
X029746Y004141*
X029788Y004041*
X029854Y003954*
X029941Y003888*
X030041Y003846*
X03015Y003832*
X030258Y003846*
X030359Y003888*
X030445Y003954*
X030511Y004041*
X030553Y004141*
X030567Y00425*
X030553Y004358*
X030511Y004458*
X030445Y004545*
X030359Y004611*
X030258Y004653*
X03015Y004667*
G37*
G36*
Y005667D02*
X030041Y005653D01*
X029941Y005611*
X029854Y005545*
X029788Y005458*
X029746Y005358*
X029732Y00525*
X029746Y005141*
X029788Y005041*
X029854Y004954*
X029941Y004888*
X030041Y004846*
X03015Y004832*
X030258Y004846*
X030359Y004888*
X030445Y004954*
X030511Y005041*
X030553Y005141*
X030567Y00525*
X030553Y005358*
X030511Y005458*
X030445Y005545*
X030359Y005611*
X030258Y005653*
X03015Y005667*
G37*
G36*
X0102Y005924D02*
X010114Y005907D01*
X010041Y005858*
X009992Y005785*
X009975Y0057*
X009992Y005614*
X010041Y005541*
X010114Y005492*
X0102Y005475*
X010254Y005486*
X01047Y00527*
X010507Y005246*
X01055Y005237*
X016718*
X016725Y00522*
X016766Y005166*
X01682Y005125*
X016883Y005099*
X01695Y00509*
X017017Y005099*
X017079Y005125*
X017133Y005166*
X017174Y00522*
X017181Y005237*
X01881*
X018841Y005191*
X018914Y005142*
X019Y005125*
X019085Y005142*
X019158Y005191*
X019207Y005264*
X019224Y00535*
X019207Y005435*
X019158Y005508*
X019085Y005557*
X019Y005574*
X018914Y005557*
X018841Y005508*
X01881Y005462*
X017181*
X017174Y005479*
X017133Y005533*
X017079Y005574*
X017017Y0056*
X01695Y005609*
X016883Y0056*
X01682Y005574*
X016766Y005533*
X016725Y005479*
X016718Y005462*
X010596*
X010413Y005645*
X010424Y0057*
X010407Y005785*
X010358Y005858*
X010285Y005907*
X0102Y005924*
G37*
G36*
X031601Y0052D02*
X0312D01*
Y004798*
X031268Y004807*
X031379Y004853*
X031474Y004926*
X031546Y00502*
X031592Y005131*
X031601Y0052*
G37*
G36*
X02915Y005667D02*
X029041Y005653D01*
X028941Y005611*
X028854Y005545*
X028788Y005458*
X028746Y005358*
X028732Y00525*
X028746Y005141*
X028788Y005041*
X028854Y004954*
X028941Y004888*
X029041Y004846*
X02915Y004832*
X029258Y004846*
X029359Y004888*
X029445Y004954*
X029511Y005041*
X029553Y005141*
X029567Y00525*
X029553Y005358*
X029511Y005458*
X029445Y005545*
X029359Y005611*
X029258Y005653*
X02915Y005667*
G37*
G36*
X0583Y024474D02*
X058214Y024457D01*
X058141Y024408*
X058092Y024335*
X058075Y02425*
X058092Y024164*
X058141Y024091*
X058214Y024042*
X0583Y024025*
X058385Y024042*
X058458Y024091*
X058507Y024164*
X058524Y02425*
X058507Y024335*
X058458Y024408*
X058385Y024457*
X0583Y024474*
G37*
G36*
X0589D02*
X058814Y024457D01*
X058741Y024408*
X058692Y024335*
X058675Y02425*
X058692Y024164*
X058741Y024091*
X058814Y024042*
X0589Y024025*
X058985Y024042*
X059058Y024091*
X059107Y024164*
X059124Y02425*
X059107Y024335*
X059058Y024408*
X058985Y024457*
X0589Y024474*
G37*
G36*
X04645Y030174D02*
X046364Y030157D01*
X046291Y030108*
X046242Y030035*
X046225Y02995*
X046242Y029864*
X046291Y029791*
X046364Y029742*
X04645Y029725*
X046535Y029742*
X046608Y029791*
X046657Y029864*
X046674Y02995*
X046657Y030035*
X046608Y030108*
X046535Y030157*
X04645Y030174*
G37*
G36*
X05595Y024474D02*
X055864Y024457D01*
X055791Y024408*
X055742Y024335*
X055725Y02425*
X055742Y024164*
X055791Y024091*
X055864Y024042*
X05595Y024025*
X056035Y024042*
X056108Y024091*
X056157Y024164*
X056174Y02425*
X056157Y024335*
X056108Y024408*
X056035Y024457*
X05595Y024474*
G37*
G36*
X0566D02*
X056514Y024457D01*
X056441Y024408*
X056392Y024335*
X056375Y02425*
X056392Y024164*
X056441Y024091*
X056514Y024042*
X0566Y024025*
X056685Y024042*
X056758Y024091*
X056807Y024164*
X056824Y02425*
X056807Y024335*
X056758Y024408*
X056685Y024457*
X0566Y024474*
G37*
G36*
X0575Y025074D02*
X057414Y025057D01*
X057341Y025008*
X057292Y024935*
X057275Y02485*
X057292Y024764*
X057341Y024691*
X057414Y024642*
X0575Y024625*
X057585Y024642*
X057658Y024691*
X057707Y024764*
X057724Y02485*
X057707Y024935*
X057658Y025008*
X057585Y025057*
X0575Y025074*
G37*
G36*
X021Y03038D02*
X020914Y030363D01*
X020841Y030314*
X020792Y030242*
X020775Y030156*
X020786Y030101*
X01713Y026445*
X017106Y026409*
X017097Y026366*
Y025271*
X017106Y025228*
X017107Y025226*
Y025066*
X01662Y024579*
X016596Y024542*
X016587Y0245*
Y020739*
X016541Y020708*
X016492Y020635*
X016475Y02055*
X016492Y020464*
X016541Y020391*
X016614Y020342*
X0167Y020325*
X016785Y020342*
X016858Y020391*
X016889Y020436*
X016907Y020464*
X016912Y02049*
X016915Y020506*
X016916Y020511*
X016917Y020517*
X016918*
X016919Y020517*
X016985Y02051*
X016995Y020509*
X016997Y02043*
Y019664*
X01666Y019327*
X016645Y019303*
X016604Y019263*
X01655Y019274*
X016464Y019257*
X016391Y019208*
X016342Y019135*
X016342Y019132*
X016262Y01914*
Y024909*
X016342Y024917*
X016342Y024914*
X016391Y024841*
X016464Y024792*
X01655Y024775*
X016635Y024792*
X016708Y024841*
X016757Y024914*
X016774Y025*
X016757Y025085*
X016708Y025158*
X016635Y025207*
X01655Y025224*
X016464Y025207*
X016391Y025158*
X016342Y025085*
X016342Y025082*
X016262Y02509*
Y02606*
X016308Y026091*
X016357Y026164*
X016374Y02625*
X016357Y026335*
X016308Y026408*
X016235Y026457*
X01615Y026474*
X016064Y026457*
X015991Y026408*
X015942Y026335*
X015925Y02625*
X015942Y026164*
X015991Y026091*
X016037Y02606*
Y01875*
X016046Y018707*
X01607Y01867*
X017055Y017686*
X017024Y017612*
X015996*
X014162Y019446*
Y02755*
X014153Y027592*
X014129Y027629*
X011871Y029886*
X011874Y0299*
X011857Y029985*
X011808Y030058*
X011735Y030107*
X01165Y030124*
X011564Y030107*
X011491Y030058*
X011442Y029985*
X011425Y0299*
X011442Y029814*
X011491Y029741*
X011564Y029692*
X01165Y029675*
X011735Y029692*
X011743Y029697*
X013937Y027503*
Y0194*
X013946Y019357*
X01397Y01932*
X01587Y01742*
X015907Y017396*
X01595Y017387*
X017127*
X017923Y016592*
X017889Y016512*
X017272*
X016845Y016939*
X016809Y016963*
X016766Y016972*
X013336*
X010712Y019596*
Y022548*
X010809Y022588*
X010895Y022654*
X010961Y022741*
X011003Y022841*
X011017Y02295*
X011003Y023058*
X010961Y023159*
X010895Y023245*
X010809Y023311*
X010708Y023353*
X0106Y023367*
X010491Y023353*
X010391Y023311*
X010304Y023245*
X010238Y023159*
X010196Y023058*
X010182Y02295*
X010196Y022841*
X010238Y022741*
X010304Y022654*
X010391Y022588*
X010487Y022548*
Y01955*
X010496Y019507*
X01052Y01947*
X013105Y016886*
X013074Y016812*
X012096*
X009712Y019196*
Y022548*
X009809Y022588*
X009895Y022654*
X009961Y022741*
X010003Y022841*
X010017Y02295*
X010003Y023058*
X009961Y023159*
X009895Y023245*
X009809Y023311*
X009708Y023353*
X0096Y023367*
X009491Y023353*
X009391Y023311*
X009304Y023245*
X009238Y023159*
X009196Y023058*
X009182Y02295*
X009196Y022841*
X009238Y022741*
X009304Y022654*
X009391Y022588*
X009487Y022548*
Y01915*
X009496Y019107*
X00952Y01907*
X01197Y01662*
X012007Y016596*
X01205Y016587*
X016653*
X01712Y01612*
X017157Y016096*
X0172Y016087*
X023336*
X023375Y016007*
X023338Y015959*
X023296Y015858*
X023282Y01575*
X023296Y015641*
X023338Y015541*
X023404Y015454*
X023433Y015432*
X023406Y015352*
X023058*
X023015Y015343*
X022978Y015319*
X022921Y015262*
X016031*
X016024Y015279*
X015983Y015333*
X015929Y015374*
X015867Y0154*
X0158Y015409*
X015732Y0154*
X01567Y015374*
X015616Y015333*
X015575Y015279*
X015568Y015262*
X013946*
X013463Y015745*
X013474Y0158*
X013457Y015885*
X013408Y015958*
X013335Y016007*
X01325Y016024*
X013164Y016007*
X013091Y015958*
X013042Y015885*
X013025Y0158*
X013042Y015714*
X013091Y015641*
X013164Y015592*
X01325Y015575*
X013304Y015586*
X01382Y01507*
X013857Y015046*
X0139Y015037*
X014984*
X01499Y015032*
X014987Y014994*
X014968Y014944*
X01492Y014924*
X014866Y014883*
X014825Y014829*
X014818Y014812*
X014689*
X014658Y014858*
X014585Y014907*
X0145Y014924*
X014414Y014907*
X014341Y014858*
X014292Y014785*
X014275Y0147*
X014292Y014614*
X014341Y014541*
X014414Y014492*
X0145Y014475*
X014585Y014492*
X014658Y014541*
X014689Y014587*
X014818*
X014825Y01457*
X014866Y014516*
X01492Y014475*
X014982Y014449*
X01505Y01444*
X015117Y014449*
X015179Y014475*
X015233Y014516*
X015274Y01457*
X015281Y014587*
X019068*
X019092Y014507*
X019086Y014504*
X019038Y014431*
X019021Y014345*
X019038Y014259*
X01904Y014256*
X01903Y014172*
X019014Y014162*
X018957Y014124*
X018919Y014067*
X018909Y014051*
X018825Y014041*
X018822Y014043*
X018736Y01406*
X01865Y014043*
X018577Y013994*
X018529Y013922*
X018512Y013836*
X018529Y01375*
X018533Y013744*
X018535Y013663*
X018509Y013646*
X018462Y013614*
X018414Y013542*
X018328Y013523*
X018313Y013534*
X018227Y013551*
X018141Y013534*
X018068Y013485*
X01802Y013413*
X018002Y013327*
X01802Y013241*
X018068Y013168*
X018101Y013146*
X018085Y013061*
X018064Y013057*
X017991Y013008*
X017971Y012978*
X017876Y012976*
X017803Y013025*
X017718Y013042*
X017632Y013025*
X017559Y012976*
X01751Y012903*
X017493Y012818*
X01751Y012732*
X017559Y012659*
X017632Y01261*
X017718Y012593*
X017803Y01261*
X01783Y012628*
X017958Y0125*
X017995Y012476*
X018038Y012467*
X018261*
X018304Y012476*
X018341Y0125*
X018398Y012557*
X018751*
X018977Y012332*
X018944Y012252*
X016306*
X016213Y012345*
X016224Y0124*
X016207Y012485*
X016158Y012558*
X016085Y012607*
X016Y012624*
X015914Y012607*
X015841Y012558*
X015792Y012485*
X015775Y0124*
X015792Y012314*
X015841Y012241*
X015914Y012192*
X016Y012175*
X016054Y012186*
X01618Y01206*
X016214Y012037*
X016217Y012035*
X016252Y011951*
Y01195*
X016242Y011935*
X016225Y01185*
X016242Y011764*
X016291Y011691*
X016364Y011642*
X01645Y011625*
X016535Y011642*
X016555Y011655*
X016627Y011607*
X016625Y0116*
X016642Y011514*
X016691Y011441*
X016764Y011392*
X01685Y011375*
X016935Y011392*
X016987Y011427*
X017045Y011369*
X017022Y011335*
X017005Y01125*
X017022Y011164*
X017071Y011091*
X017144Y011042*
X01723Y011025*
X017315Y011042*
X017388Y011091*
X017419Y011137*
X020116*
X020141Y011058*
X020092Y010985*
X020075Y0109*
X020092Y010814*
X020141Y010741*
X020214Y010692*
X0203Y010675*
X020354Y010686*
X02048Y01056*
X020517Y010536*
X02056Y010527*
X023398*
X02354Y010386*
X023509Y010312*
X0202*
X019933Y010579*
X019896Y010603*
X019853Y010612*
X019239*
X019208Y010658*
X019135Y010707*
X01905Y010724*
X018964Y010707*
X018891Y010658*
X018842Y010585*
X018825Y0105*
X018842Y010414*
X018891Y010341*
X018964Y010292*
X01905Y010275*
X019135Y010292*
X019208Y010341*
X019239Y010387*
X019807*
X019999Y010196*
X019968Y010122*
X019583*
X019558Y010158*
X019485Y010207*
X0194Y010224*
X019314Y010207*
X019241Y010158*
X019192Y010085*
X019175Y01*
X019192Y009914*
X019241Y009841*
X019314Y009792*
X0194Y009775*
X019485Y009792*
X019558Y009841*
X019596Y009897*
X023575*
X024275Y009197*
X024276Y009195*
X0243Y009158*
X024458Y009*
X024495Y008976*
X024497Y008975*
X024701Y008772*
X024737Y008748*
X02478Y008739*
X027162*
X027193Y008693*
X027266Y008644*
X027352Y008627*
X027438Y008644*
X027511Y008693*
X027559Y008765*
X027576Y008851*
X027559Y008937*
X027511Y00901*
X027438Y009059*
X027352Y009076*
X027266Y009059*
X027193Y00901*
X027162Y008963*
X025286*
X025263Y009028*
X02526Y009043*
X025307Y009114*
X025324Y0092*
X025392Y009267*
X02737*
X027413Y009276*
X027449Y0093*
X028281Y010133*
X028336Y010122*
X028422Y010139*
X028495Y010187*
X028543Y01026*
X02856Y010346*
X028543Y010432*
X028495Y010505*
X028422Y010553*
X028336Y01057*
X02825Y010553*
X028178Y010505*
X028129Y010432*
X028112Y010346*
X028123Y010291*
X027323Y009492*
X026965*
X026935Y009566*
X027912Y010543*
X027914Y010542*
X028Y010525*
X028085Y010542*
X028158Y010591*
X028207Y010664*
X028224Y01075*
X028207Y010835*
X028185Y010867*
X028228Y010947*
X028793*
X029088Y010653*
X029124Y010628*
X029167Y01062*
X029328*
X029359Y010573*
X029431Y010525*
X029517Y010508*
X029603Y010525*
X029676Y010573*
X029725Y010646*
X029742Y010732*
X029725Y010818*
X029698Y010857*
X029739Y010937*
X03131*
X031341Y010891*
X031414Y010842*
X0315Y010825*
X031585Y010842*
X031658Y010891*
X031707Y010964*
X031724Y01105*
X031707Y011135*
X031672Y011187*
X031698Y011256*
X031707Y011267*
X032673*
X03277Y01117*
X032807Y011146*
X03285Y011137*
X03316*
X033191Y011091*
X033264Y011042*
X03335Y011025*
X033435Y011042*
X033508Y011091*
X033557Y011164*
X033574Y01125*
X033557Y011335*
X033549Y011347*
X033592Y011427*
X035625*
X035637Y01142*
X035676Y011367*
X035652Y011289*
X035601Y011264*
X03555Y011274*
X035464Y011257*
X035391Y011208*
X035342Y011135*
X035325Y01105*
X035342Y010964*
X035391Y010891*
X035442Y010857*
X035418Y010777*
X034765*
X034722Y010768*
X034685Y010744*
X034597Y010656*
X033639*
X033608Y010702*
X033535Y010751*
X03345Y010768*
X033364Y010751*
X033291Y010702*
X033242Y010629*
X033225Y010544*
X033242Y010458*
X033291Y010385*
X03335Y010346*
X033349Y010289*
X033341Y010262*
X033314Y010257*
X033241Y010208*
X033192Y010135*
X033175Y01005*
X033192Y009964*
X033207Y009942*
X033164Y009862*
X032522*
X032093Y010291*
X032104Y010346*
X032087Y010432*
X032038Y010505*
X031965Y010553*
X031879Y01057*
X031794Y010553*
X031721Y010505*
X031701*
X031631Y010514*
X031572Y010553*
X031486Y01057*
X0314Y010553*
X031327Y010505*
X031279Y010432*
X031261Y010346*
X031279Y01026*
X031327Y010187*
X0314Y010139*
X031486Y010122*
X031541Y010133*
X032068Y009606*
X032037Y009532*
X02942*
X029377Y009523*
X02934Y009499*
X02911Y009268*
X02903Y009284*
X028944Y009267*
X028871Y009218*
X028822Y009146*
X028805Y00906*
X028822Y008974*
X028871Y008901*
X028944Y008853*
X02903Y008835*
X029115Y008853*
X029188Y008901*
X029237Y008974*
X029254Y00906*
X029248Y009089*
X029466Y009307*
X031506*
X031537Y00925*
X031541Y009227*
X031525Y00915*
X031542Y009064*
X031591Y008991*
X031664Y008942*
X031694Y008936*
Y008856*
X031614Y008811*
X03155Y008824*
X031464Y008807*
X031391Y008758*
X031342Y008685*
X031325Y0086*
X031342Y008514*
X031391Y008441*
X031437Y00841*
Y007305*
X031436Y007302*
X031434Y007293*
X030703Y006562*
X026132*
X026089Y006642*
X026097Y006654*
X026114Y00674*
X026097Y006825*
X026048Y006898*
X025975Y006947*
X02589Y006964*
X025804Y006947*
X025776Y006928*
X025718Y006986*
X025737Y007014*
X025754Y0071*
X025737Y007185*
X025688Y007258*
X025644Y007287*
X025666Y007359*
X025743Y007362*
X025771Y007321*
X025844Y007272*
X02593Y007255*
X026015Y007272*
X026088Y007321*
X026137Y007394*
X026154Y00748*
X026137Y007565*
X026088Y007638*
X026015Y007687*
X02593Y007704*
X025844Y007687*
X025771Y007638*
X02574Y007592*
X025318*
X025279Y007672*
X025307Y007714*
X025324Y0078*
X025307Y007885*
X025258Y007958*
X025185Y008007*
X0251Y008024*
X025014Y008007*
X024941Y007958*
X024904Y007903*
X024879Y007903*
X024837Y007981*
X024837Y007984*
X024857Y008014*
X024874Y0081*
X024857Y008185*
X024808Y008258*
X024735Y008307*
X02465Y008324*
X024564Y008307*
X024491Y008258*
X02446Y008212*
X015155*
X015124Y00825*
X015107Y008335*
X015058Y008408*
X014985Y008457*
X0149Y008474*
X014814Y008457*
X014741Y008408*
X014692Y008335*
X014692Y008332*
X014612Y00834*
Y01275*
X014603Y012792*
X014579Y012829*
X013379Y014029*
X013342Y014053*
X0133Y014062*
X0099*
X009857Y014053*
X00982Y014029*
X009254Y013463*
X0092Y013474*
X009114Y013457*
X009041Y013408*
X008992Y013335*
X008975Y01325*
X008992Y013164*
X009041Y013091*
X009114Y013042*
X0092Y013025*
X009285Y013042*
X009358Y013091*
X009407Y013164*
X009424Y01325*
X009413Y013304*
X009946Y013837*
X011814*
X011857Y013757*
X011842Y013735*
X011825Y01365*
X011842Y013564*
X011891Y013491*
X011964Y013442*
X01205Y013425*
X012135Y013442*
X012208Y013491*
X012257Y013564*
X012274Y01365*
X012257Y013735*
X012242Y013757*
X012285Y013837*
X013253*
X014387Y012703*
Y0081*
X014396Y008057*
X01442Y00802*
X01506Y00738*
X015097Y007356*
X01514Y007347*
X015182Y007356*
X0152Y007367*
X02539*
X025415Y007287*
X025371Y007258*
X02534Y007212*
X014739*
X014708Y007258*
X014635Y007307*
X01455Y007324*
X014464Y007307*
X014391Y007258*
X014342Y007185*
X014325Y0071*
X014342Y007014*
X014391Y006941*
X014464Y006892*
X01455Y006875*
X014635Y006892*
X014708Y006941*
X014739Y006987*
X015014*
X015057Y006907*
X015042Y006885*
X015025Y0068*
X015042Y006714*
X015091Y006641*
X015164Y006592*
X01525Y006575*
X015335Y006592*
X015388Y006627*
X023008*
X02305Y006547*
X023042Y006535*
X023025Y00645*
X023042Y006364*
X023091Y006291*
X023066Y006212*
X021589*
X021558Y006258*
X021485Y006307*
X0214Y006324*
X021314Y006307*
X021241Y006258*
X021192Y006185*
X021175Y0061*
X021192Y006014*
X021241Y005941*
X021314Y005892*
X0214Y005875*
X021485Y005892*
X021558Y005941*
X021589Y005987*
X0311*
X031142Y005996*
X031179Y00602*
X031843Y006684*
X031852Y006686*
X031889Y00671*
X031913Y006747*
X031922Y00679*
Y008232*
X031913Y008275*
X031912Y008277*
Y008428*
X031923Y008445*
X031932Y008488*
Y008594*
X032012Y00864*
X032076Y008627*
X032162Y008644*
X032235Y008693*
X032266Y008739*
X040293*
X040301Y008659*
X040289Y008657*
X040216Y008608*
X040168Y008535*
X04015Y00845*
X040168Y008364*
X040216Y008291*
X040289Y008242*
X040375Y008225*
X040461Y008242*
X040533Y008291*
X040582Y008364*
X040599Y00845*
X040582Y008535*
X040533Y008608*
X040461Y008657*
X040449Y008659*
X040457Y008739*
X048144*
X048214Y008692*
X0483Y008675*
X048385Y008692*
X048458Y008741*
X048507Y008814*
X048524Y0089*
X048507Y008985*
X048458Y009058*
X048385Y009107*
X0483Y009124*
X048214Y009107*
X048141Y009058*
X048092Y008985*
X048088Y008963*
X032266*
X032235Y00901*
X032162Y009059*
X032076Y009076*
X032039Y009068*
X031971Y009134*
X031974Y00915*
X031958Y009227*
X031963Y00925*
X031994Y009307*
X043969*
X043975Y0093*
X043992Y009214*
X044041Y009141*
X044114Y009092*
X0442Y009075*
X044285Y009092*
X044358Y009141*
X044407Y009214*
X044424Y0093*
X044407Y009385*
X044399Y009397*
X044442Y009477*
X044617*
X044641Y009441*
X044714Y009392*
X0448Y009375*
X044885Y009392*
X044958Y009441*
X045007Y009514*
X045024Y0096*
X045007Y009685*
X044958Y009758*
X044885Y009807*
X0448Y009824*
X044714Y009807*
X044641Y009758*
X044603Y009702*
X034517*
X034487Y009776*
X034679Y009967*
X046442*
X046442Y009964*
X046491Y009891*
X046564Y009842*
X04665Y009825*
X046735Y009842*
X046808Y009891*
X046857Y009964*
X046874Y01005*
X046857Y010135*
X046808Y010208*
X046735Y010257*
X046732Y010257*
X04674Y010337*
X04771*
X047741Y010291*
X047814Y010242*
X0479Y010225*
X047985Y010242*
X048058Y010291*
X048107Y010364*
X048124Y01045*
X048107Y010535*
X048058Y010608*
X047985Y010657*
X0479Y010674*
X047814Y010657*
X047741Y010608*
X04771Y010562*
X046683*
X04665Y010642*
X046946Y010937*
X04714*
X047171Y010891*
X047244Y010842*
X04733Y010825*
X047415Y010842*
X047488Y010891*
X047537Y010964*
X047554Y01105*
X047537Y011135*
X047488Y011208*
X047415Y011257*
X04733Y011274*
X047244Y011257*
X047171Y011208*
X04714Y011162*
X0469*
X046857Y011153*
X04682Y011129*
X046468Y010777*
X035723*
X035709Y010857*
X035729Y01087*
X035776Y010917*
X04563*
X045672Y010926*
X045689Y010937*
X04575Y010925*
X045835Y010942*
X045908Y010991*
X045957Y011064*
X045974Y01115*
X045957Y011235*
X045908Y011308*
X045835Y011357*
X04575Y011374*
X045664Y011357*
X045591Y011308*
X045542Y011235*
X045525Y01115*
X045519Y011142*
X043728*
X043707Y011176*
X043698Y011222*
X043902Y011425*
X043904Y011426*
X043941Y01145*
X044028Y011537*
X04496*
X044991Y011491*
X045064Y011442*
X04515Y011425*
X045235Y011442*
X045308Y011491*
X045357Y011564*
X045374Y01165*
X045357Y011735*
X045308Y011808*
X045263Y011839*
X045235Y011857*
X045194Y011865*
X045182Y011867*
Y011868*
X045182Y011869*
X045182Y011871*
X045188Y011928*
X04519Y011946*
X045269Y011947*
X045393*
X04577Y01157*
X045807Y011546*
X04585Y011537*
X04611*
X046141Y011491*
X046214Y011442*
X0463Y011425*
X046385Y011442*
X046458Y011491*
X046507Y011564*
X046524Y01165*
X046507Y011735*
X046458Y011808*
X046444Y011817*
X046469Y011897*
X046753*
X046791Y011841*
X046864Y011792*
X04695Y011775*
X047035Y011792*
X047108Y011841*
X047157Y011914*
X047174Y012*
X047157Y012085*
X047108Y012158*
X047035Y012207*
X047032Y012207*
X04704Y012287*
X04811*
X048141Y012241*
X048214Y012192*
X0483Y012175*
X048385Y012192*
X048458Y012241*
X048507Y012314*
X048524Y0124*
X048507Y012485*
X048458Y012558*
X048385Y012607*
X0483Y012624*
X048214Y012607*
X048141Y012558*
X04811Y012512*
X047784*
X047758Y012591*
X047807Y012664*
X047824Y01275*
X047807Y012835*
X047758Y012908*
X047685Y012957*
X0476Y012974*
X047514Y012957*
X047441Y012908*
X04741Y012862*
X045867*
X045824Y012853*
X045788Y012829*
X045661Y012702*
X038619*
X038594Y012782*
X038608Y012791*
X038657Y012864*
X038674Y01295*
X038657Y013035*
X038608Y013108*
X038535Y013157*
X03845Y013174*
X038364Y013157*
X038291Y013108*
X03826Y013062*
X037784*
X037758Y013141*
X037807Y013214*
X037824Y0133*
X037807Y013385*
X037758Y013458*
X037685Y013507*
X0376Y013524*
X037514Y013507*
X037441Y013458*
X037392Y013385*
X037386Y013352*
X035432*
X035285Y013499*
X035249Y013523*
X035206Y013532*
X034887*
X034863Y013552*
X03484Y013582*
X034869Y013657*
X035883*
X035937Y013604*
X035942Y013576*
X035991Y013503*
X036064Y013454*
X03615Y013437*
X036235Y013454*
X036308Y013503*
X036357Y013576*
X036374Y013662*
X036357Y013748*
X036308Y01382*
X036306Y013833*
X036316Y013911*
X036329Y01392*
X036639Y01423*
X036663Y014267*
X036672Y01431*
Y01874*
X036663Y018782*
X036639Y018819*
X035529Y019929*
X035492Y019953*
X03545Y019962*
X031054*
X030437Y020579*
X0304Y020603*
X030357Y020612*
X030357Y020612*
X029396*
X029311Y020697*
X029308Y020791*
X029357Y020864*
X029374Y02095*
X029357Y021035*
X029308Y021108*
X029235Y021157*
X02915Y021174*
X029064Y021157*
X028991Y021108*
X028942Y021035*
X028925Y02095*
X028942Y020864*
X028991Y020791*
X029037Y02076*
Y0207*
X029046Y020657*
X02907Y02062*
X02927Y02042*
X029252Y020336*
X02924Y020322*
X028891*
X028834Y020379*
X028857Y020414*
X028874Y0205*
X028857Y020585*
X028808Y020658*
X028735Y020707*
X02865Y020724*
X028564Y020707*
X028491Y020658*
X02849Y020656*
X02841*
X028408Y020658*
X028335Y020707*
X02825Y020724*
X028164Y020707*
X028091Y020658*
X028042Y020585*
X02804Y020575*
X027959*
X027957Y020585*
X027908Y020658*
X027835Y020707*
X02775Y020724*
X027664Y020707*
X027591Y020658*
X027542Y020585*
X027525Y0205*
X027542Y020414*
X027591Y020341*
X027664Y020292*
X02775Y020275*
X027804Y020286*
X02872Y01937*
X028757Y019346*
X0288Y019337*
X029703*
X03023Y01881*
X030267Y018786*
X03031Y018777*
X03447*
X034755Y018493*
X03472Y018414*
X034641Y018403*
X034541Y018361*
X034454Y018295*
X034388Y018208*
X034346Y018108*
X034332Y018*
X034346Y017891*
X034388Y017791*
X034454Y017704*
X034541Y017638*
X034637Y017598*
Y016946*
X034013Y016322*
X032335*
X032292Y016313*
X032255Y016289*
X030778Y014812*
X030628*
X030565Y014875*
X030528Y0149*
X030485Y014908*
X029904*
X029873Y014955*
X0298Y015003*
X029714Y01502*
X029628Y015003*
X029556Y014955*
X029507Y014882*
X02949Y014796*
X029505Y014718*
X029501Y014696*
X02947Y014638*
X028528*
X028504Y014718*
X028528Y014735*
X028577Y014807*
X028594Y014893*
X028577Y014979*
X028528Y015052*
X028455Y0151*
X02837Y015118*
X028291Y015102*
X027904Y015489*
X027868Y015513*
X027825Y015522*
X025278*
X025235Y015513*
X025198Y015489*
X025068Y015358*
X025004Y015365*
X024979Y015442*
X024995Y015454*
X025061Y015541*
X025103Y015641*
X025117Y01575*
X025103Y015858*
X025061Y015959*
X025024Y016007*
X025063Y016087*
X025182*
X025225Y016096*
X025227Y016097*
X025372*
X025374Y016096*
X025417Y016087*
X025466*
X025491Y016008*
X025442Y015935*
X025425Y01585*
X025442Y015764*
X025491Y015691*
X025564Y015642*
X02565Y015625*
X025735Y015642*
X025808Y015691*
X025857Y015764*
X02586Y015777*
X028567*
X029107Y015237*
X029096Y015182*
X029113Y015096*
X029162Y015024*
X029235Y014975*
X02932Y014958*
X029406Y014975*
X029479Y015024*
X029528Y015096*
X029545Y015182*
X029528Y015268*
X029479Y015341*
X029406Y015389*
X02932Y015407*
X029266Y015396*
X028692Y015969*
X028656Y015993*
X028613Y016002*
X02589*
X025886Y016007*
X025927Y016087*
X027158*
X027201Y016096*
X027237Y01612*
X027355Y016237*
X027496*
X027564Y016192*
X02765Y016175*
X027735Y016192*
X027808Y016241*
X027857Y016314*
X027866Y016359*
X0279Y016374*
X027952Y016383*
X028014Y016342*
X0281Y016325*
X028185Y016342*
X028258Y016391*
X028307Y016464*
X028324Y01655*
X028307Y016635*
X028258Y016708*
X028185Y016757*
X028178Y016758*
X028158Y016841*
X028207Y016914*
X028224Y017*
X028207Y017085*
X028185Y017117*
X028228Y017197*
X02983*
X030238Y016789*
X030228Y016751*
X030203Y016712*
X029939*
X029908Y016758*
X029835Y016807*
X02975Y016824*
X029664Y016807*
X029591Y016758*
X029542Y016685*
X029525Y0166*
X029542Y016514*
X029591Y016441*
X029664Y016392*
X02975Y016375*
X029835Y016392*
X029908Y016441*
X029939Y016487*
X030172*
X030521Y016139*
X030522Y016136*
X030546Y0161*
X030704Y015942*
X03074Y015917*
X030783Y015909*
X031007*
X03105Y015917*
X031086Y015942*
X031245Y0161*
X031269Y016136*
X031269Y016139*
X031618Y016487*
X03295*
X032992Y016496*
X033029Y01652*
X033779Y01727*
X033803Y017307*
X033812Y01735*
Y01759*
X033858Y017596*
X033959Y017638*
X034045Y017704*
X034111Y017791*
X034153Y017891*
X034167Y018*
X034153Y018108*
X034111Y018208*
X034045Y018295*
X033959Y018361*
X033858Y018403*
X03375Y018417*
X033641Y018403*
X033541Y018361*
X033454Y018295*
X033388Y018208*
X033346Y018108*
X033332Y018*
X033346Y017891*
X033388Y017791*
X033454Y017704*
X033541Y017638*
X033587Y017618*
Y017396*
X032903Y016712*
X031572*
X031529Y016703*
X031492Y016679*
X03118Y016366*
X031092Y016392*
X031054Y01645*
X030981Y016498*
X030895Y016515*
X03084Y016504*
X030061Y017283*
X030092Y017357*
X031033*
X031216Y017175*
X031207Y017112*
X031131Y017077*
X031085Y017107*
X031Y017124*
X030914Y017107*
X030841Y017058*
X030792Y016985*
X030775Y0169*
X030792Y016814*
X030841Y016741*
X030914Y016692*
X031Y016675*
X031085Y016692*
X031158Y016741*
X031207Y016814*
X031224Y016898*
X031269Y016927*
X031298Y016936*
X031364Y016892*
X03145Y016875*
X031535Y016892*
X031608Y016941*
X031657Y017014*
X031674Y0171*
X031657Y017185*
X031608Y017258*
X031535Y017307*
X03145Y017324*
X031395Y017313*
X031159Y017549*
X031122Y017573*
X03108Y017582*
X024258*
X024257Y017585*
X024208Y017658*
X024234Y017737*
X0271*
X027142Y017746*
X027179Y01777*
X027646Y018237*
X02885*
X028892Y018246*
X028929Y01827*
X029386Y018728*
X02947Y018723*
X029491Y018691*
X029564Y018642*
X02965Y018625*
X029657Y018627*
X029697Y018635*
X029698Y018633*
X029699Y018626*
X0297Y018623*
X029712Y018566*
X029714Y018557*
X029682Y018536*
X029641Y018508*
X029592Y018435*
X029575Y01835*
X029592Y018264*
X029641Y018191*
X029714Y018142*
X0298Y018125*
X029885Y018142*
X029958Y018191*
X029989Y018237*
X03026*
X030291Y018191*
X030364Y018142*
X03045Y018125*
X030535Y018142*
X030608Y018191*
X030657Y018264*
X030674Y01835*
X030657Y018435*
X030608Y018508*
X030535Y018557*
X03045Y018574*
X030364Y018557*
X030291Y018508*
X03026Y018462*
X029989*
X029958Y018508*
X029885Y018557*
X0298Y018574*
X029792Y018572*
X029752Y018564*
X029751Y018566*
X02975Y018573*
X029749Y018576*
X029737Y018633*
X029735Y018642*
X029767Y018664*
X029808Y018691*
X029857Y018764*
X029874Y01885*
X029857Y018935*
X029808Y019008*
X029735Y019057*
X02965Y019074*
X029564Y019057*
X029491Y019008*
X02946Y018962*
X02935*
X029307Y018953*
X02927Y018929*
X028803Y018462*
X027633*
X0276Y018542*
X027795Y018736*
X02785Y018725*
X027935Y018742*
X028008Y018791*
X028057Y018864*
X028074Y01895*
X028057Y019035*
X028008Y019108*
X027935Y019157*
X02785Y019174*
X027764Y019157*
X027691Y019108*
X027642Y019035*
X027625Y01895*
X027636Y018895*
X027303Y018562*
X026538*
X026495Y018642*
X026517Y018674*
X026534Y01876*
X026517Y018845*
X026468Y018918*
X026395Y018967*
X02631Y018984*
X026224Y018967*
X026151Y018918*
X02612Y018872*
X023336*
X023293Y018863*
X023257Y018839*
X022526Y018109*
X02245Y018124*
X022364Y018107*
X022291Y018058*
X022242Y017985*
X022225Y0179*
X022242Y017814*
X022291Y017741*
X022357Y017697*
X02237Y017678*
X022389Y017615*
X022285Y017512*
X022139*
X022108Y017558*
X022035Y017607*
X02195Y017624*
X021864Y017607*
X021791Y017558*
X021742Y017485*
X021725Y0174*
X021742Y017314*
X021791Y017241*
X021864Y017192*
X02195Y017175*
X022035Y017192*
X022108Y017241*
X022139Y017287*
X022331*
X022331*
X022374Y017296*
X022411Y01732*
X022799Y017708*
X022823Y017745*
X022824Y017747*
X023414Y018337*
X027316*
X027349Y018257*
X027053Y017962*
X02345*
X023407Y017953*
X02337Y017929*
X022954Y017513*
X0229Y017524*
X022814Y017507*
X022741Y017458*
X022692Y017385*
X022675Y0173*
X022692Y017214*
X022741Y017141*
X022814Y017092*
X022817Y017092*
X022809Y017012*
X018046*
X016262Y018796*
Y018959*
X016342Y018967*
X016342Y018964*
X016391Y018891*
X016464Y018842*
X01655Y018825*
X016635Y018842*
X016708Y018891*
X016757Y018964*
X016774Y01905*
X016763Y019104*
X016819Y01916*
X016834Y019183*
X017189Y019538*
X017213Y019574*
X017222Y019617*
Y024363*
X017757Y024899*
X017833Y024861*
X017832Y02485*
X017846Y024741*
X017888Y024641*
X017954Y024554*
X018041Y024488*
X018141Y024446*
X01825Y024432*
X018358Y024446*
X018459Y024488*
X018545Y024554*
X018611Y024641*
X018653Y024741*
X018667Y02485*
X018653Y024958*
X018611Y025058*
X018545Y025145*
X018459Y025211*
X018358Y025253*
X01825Y025267*
X018238Y025266*
X0182Y025342*
X020102Y027244*
X02071*
X020741Y027197*
X020814Y027149*
X0209Y027132*
X020985Y027149*
X021058Y027197*
X021107Y02727*
X021124Y027356*
X021107Y027442*
X021058Y027514*
X020985Y027563*
X0209Y02758*
X020814Y027563*
X020741Y027514*
X02071Y027468*
X020056*
X020013Y027459*
X019977Y027435*
X01703Y024489*
X017006Y024452*
X016997Y02441*
Y020669*
X016995Y02059*
X016919Y020582*
X016918Y020582*
X016917*
X016916Y020588*
X016915Y020594*
X016912Y020609*
X016907Y020635*
X016889Y020663*
X016858Y020708*
X016812Y020739*
Y024453*
X017299Y02494*
X017323Y024977*
X017332Y02502*
Y025261*
X017323Y025304*
X017322Y025306*
Y026319*
X020945Y029942*
X021Y029932*
X021085Y029949*
X021158Y029997*
X021207Y03007*
X021224Y030156*
X021207Y030242*
X021158Y030314*
X021085Y030363*
X021Y03038*
G37*
G36*
X019701Y0248D02*
X0193D01*
Y024398*
X019368Y024407*
X019479Y024453*
X019574Y024526*
X019646Y02462*
X019692Y024731*
X019701Y0248*
G37*
G36*
X04765Y024774D02*
X047564Y024757D01*
X047491Y024708*
X047442Y024635*
X047425Y02455*
X047442Y024464*
X047491Y024391*
X047564Y024342*
X04765Y024325*
X047735Y024342*
X047808Y024391*
X047857Y024464*
X047874Y02455*
X047857Y024635*
X047808Y024708*
X047735Y024757*
X04765Y024774*
G37*
G36*
X0192Y0248D02*
X018798D01*
X018807Y024731*
X018853Y02462*
X018926Y024526*
X01902Y024453*
X019131Y024407*
X0192Y024398*
Y0248*
G37*
G36*
X00535Y02434D02*
Y0238D01*
X00589*
X005883Y023866*
X005849Y023977*
X005794Y02408*
X00572Y02417*
X00563Y024244*
X005527Y024299*
X005416Y024333*
X00535Y02434*
G37*
G36*
X05235Y03025D02*
X051948D01*
X051957Y030181*
X052003Y03007*
X052076Y029976*
X05217Y029903*
X052281Y029857*
X05235Y029848*
Y03025*
G37*
G36*
X00525Y0237D02*
X004709D01*
X004716Y023633*
X004718Y023628*
X004651Y023573*
X004643Y023578*
X004474Y023629*
X0043Y023646*
X004125Y023629*
X003957Y023578*
X003949Y023573*
X003882Y023628*
X003883Y023633*
X00389Y0237*
X00335*
Y023159*
X003416Y023166*
X003421Y023168*
X003476Y023101*
X003471Y023093*
X00342Y022924*
X003403Y02275*
X00342Y022575*
X003471Y022406*
X003476Y022399*
X003421Y022332*
X003416Y022333*
X00335Y02234*
Y0218*
X00389*
X003883Y021866*
X003882Y021871*
X003949Y021926*
X003957Y021921*
X004125Y02187*
X0043Y021853*
X004474Y02187*
X004643Y021921*
X004651Y021926*
X004718Y021871*
X004716Y021866*
X004709Y0218*
X00525*
Y02234*
X005183Y022333*
X005178Y022332*
X005123Y022399*
X005128Y022406*
X005179Y022575*
X005196Y02275*
X005179Y022924*
X005128Y023093*
X005123Y023101*
X005178Y023168*
X005183Y023166*
X00525Y023159*
Y0237*
G37*
G36*
X052851Y03025D02*
X05245D01*
Y029848*
X052518Y029857*
X052629Y029903*
X052724Y029976*
X052796Y03007*
X052842Y030181*
X052851Y03025*
G37*
G36*
X022809Y030324D02*
X022723Y030307D01*
X02265Y030258*
X022601Y030186*
X022584Y0301*
X022601Y030014*
X02265Y029941*
X022723Y029893*
X022809Y029876*
X022894Y029893*
X022967Y029941*
X023016Y030014*
X023033Y0301*
X023016Y030186*
X022967Y030258*
X022894Y030307*
X022809Y030324*
G37*
G36*
X00589Y0237D02*
X00535D01*
Y023159*
X005416Y023166*
X005527Y0232*
X00563Y023255*
X00572Y023329*
X005794Y023419*
X005849Y023522*
X005883Y023633*
X00589Y0237*
G37*
G36*
X019201Y0302D02*
X0188D01*
Y029798*
X018868Y029807*
X018979Y029853*
X019074Y029926*
X019146Y03002*
X019192Y030131*
X019201Y0302*
G37*
G36*
X0187D02*
X018298D01*
X018307Y030131*
X018353Y03002*
X018426Y029926*
X01852Y029853*
X018631Y029807*
X0187Y029798*
Y0302*
G37*
G36*
X00525Y02434D02*
X005183Y024333D01*
X005072Y024299*
X004969Y024244*
X004879Y02417*
X004805Y02408*
X00475Y023977*
X004716Y023866*
X004709Y0238*
X00525*
Y02434*
G37*
G36*
X00325D02*
X003183Y024333D01*
X003072Y024299*
X002969Y024244*
X002879Y02417*
X002805Y02408*
X00275Y023977*
X002716Y023866*
X002709Y0238*
X00325*
Y02434*
G37*
G36*
X00335D02*
Y0238D01*
X00389*
X003883Y023866*
X003849Y023977*
X003794Y02408*
X00372Y02417*
X00363Y024244*
X003527Y024299*
X003416Y024333*
X00335Y02434*
G37*
G36*
X019627Y026013D02*
X019542Y025996D01*
X019469Y025947*
X01942Y025874*
X019403Y025788*
X01942Y025703*
X019469Y02563*
X019542Y025581*
X019627Y025564*
X019713Y025581*
X019786Y02563*
X019835Y025703*
X019852Y025788*
X019835Y025874*
X019786Y025947*
X019713Y025996*
X019627Y026013*
G37*
G36*
X02273Y027548D02*
X022644Y027531D01*
X022571Y027483*
X022523Y02741*
X022506Y027324*
X022523Y027238*
X022571Y027165*
X022644Y027117*
X02273Y0271*
X022816Y027117*
X022888Y027165*
X022937Y027238*
X022954Y027324*
X022937Y02741*
X022888Y027483*
X022816Y027531*
X02273Y027548*
G37*
G36*
X04165Y026317D02*
X041541Y026303D01*
X041441Y026261*
X041354Y026195*
X041288Y026108*
X041246Y026008*
X041232Y0259*
X041246Y025791*
X041288Y025691*
X041354Y025604*
X041441Y025538*
X041541Y025496*
X04165Y025482*
X041758Y025496*
X041859Y025538*
X041945Y025604*
X042011Y025691*
X042053Y025791*
X042067Y0259*
X042053Y026008*
X042011Y026108*
X041945Y026195*
X041859Y026261*
X041758Y026303*
X04165Y026317*
G37*
G36*
X0426Y02585D02*
X042198D01*
X042207Y025781*
X042253Y02567*
X042326Y025576*
X04242Y025503*
X042531Y025457*
X0426Y025448*
Y02585*
G37*
G36*
X043101D02*
X0427D01*
Y025448*
X042768Y025457*
X042879Y025503*
X042974Y025576*
X043046Y02567*
X043092Y025781*
X043101Y02585*
G37*
G36*
X0427Y026351D02*
Y02595D01*
X043101*
X043092Y026018*
X043046Y026129*
X042974Y026224*
X042879Y026296*
X042768Y026342*
X0427Y026351*
G37*
G36*
X056878Y027528D02*
X056754Y027512D01*
X056639Y027464*
X05654Y027388*
X056464Y027289*
X056416Y027173*
X056399Y02705*
X056416Y026926*
X056464Y02681*
X05654Y026711*
X056639Y026635*
X056754Y026587*
X056878Y026571*
X057002Y026587*
X057117Y026635*
X057216Y026711*
X057292Y02681*
X05734Y026926*
X057356Y02705*
X05734Y027173*
X057292Y027289*
X057216Y027388*
X057117Y027464*
X057002Y027512*
X056878Y027528*
G37*
G36*
X0426Y026351D02*
X042531Y026342D01*
X04242Y026296*
X042326Y026224*
X042253Y026129*
X042207Y026018*
X042198Y02595*
X0426*
Y026351*
G37*
G36*
X038714Y027324D02*
X038628Y027307D01*
X038556Y027258*
X038507Y027185*
X03849Y0271*
X038507Y027014*
X038556Y026941*
X038628Y026892*
X038714Y026875*
X0388Y026892*
X038873Y026941*
X038921Y027014*
X038938Y0271*
X038921Y027185*
X038873Y027258*
X0388Y027307*
X038714Y027324*
G37*
G36*
X05865Y027488D02*
X058536Y027473D01*
X05843Y027429*
X058339Y02736*
X05827Y027269*
X058226Y027163*
X058211Y02705*
X058226Y026936*
X05827Y02683*
X058339Y026739*
X05843Y02667*
X058536Y026626*
X05865Y026611*
X058763Y026626*
X058869Y02667*
X05896Y026739*
X059029Y02683*
X059073Y026936*
X059088Y02705*
X059073Y027163*
X059029Y027269*
X05896Y02736*
X058869Y027429*
X058763Y027473*
X05865Y027488*
G37*
G36*
X0575Y025824D02*
X057414Y025807D01*
X057341Y025758*
X057292Y025685*
X057275Y0256*
X057292Y025514*
X057341Y025441*
X057414Y025392*
X0575Y025375*
X057585Y025392*
X057658Y025441*
X057707Y025514*
X057724Y0256*
X057707Y025685*
X057658Y025758*
X057585Y025807*
X0575Y025824*
G37*
G36*
X0192Y025301D02*
X019131Y025292D01*
X01902Y025246*
X018926Y025174*
X018853Y025079*
X018807Y024968*
X018798Y0249*
X0192*
Y025301*
G37*
G36*
X0193D02*
Y0249D01*
X019701*
X019692Y024968*
X019646Y025079*
X019574Y025174*
X019479Y025246*
X019368Y025292*
X0193Y025301*
G37*
G36*
X01875Y029667D02*
X018641Y029653D01*
X018541Y029611*
X018454Y029545*
X018388Y029458*
X018346Y029358*
X018332Y02925*
X018346Y029141*
X018388Y029041*
X018454Y028954*
X018541Y028888*
X018641Y028846*
X01875Y028832*
X018858Y028846*
X018959Y028888*
X019045Y028954*
X019111Y029041*
X019153Y029141*
X019167Y02925*
X019153Y029358*
X019111Y029458*
X019045Y029545*
X018959Y029611*
X018858Y029653*
X01875Y029667*
G37*
G36*
X03295Y025624D02*
X032864Y025607D01*
X032791Y025558*
X032742Y025485*
X032725Y0254*
X032742Y025314*
X032791Y025241*
X032864Y025192*
X03295Y025175*
X033035Y025192*
X033108Y025241*
X033139Y025287*
X039603*
X039966Y024925*
X039925Y024852*
X039905Y024856*
X038277*
X03825Y024862*
X038216*
X038199Y024879*
X038162Y024903*
X03812Y024912*
X033139*
X033108Y024958*
X033035Y025007*
X03295Y025024*
X032864Y025007*
X032791Y024958*
X032742Y024885*
X032725Y0248*
X032742Y024714*
X032791Y024641*
X032864Y024592*
X03295Y024575*
X033035Y024592*
X033108Y024641*
X033139Y024687*
X038073*
X03809Y02467*
X038127Y024646*
X03817Y024637*
X038228*
X038255Y024632*
X039859*
X045136Y019354*
X045125Y0193*
X045142Y019214*
X045191Y019141*
X045264Y019092*
X04535Y019075*
X045435Y019092*
X045508Y019141*
X045557Y019214*
X045558Y019219*
X045645Y019246*
X045736Y019154*
X045725Y0191*
X045742Y019014*
X045791Y018941*
X045864Y018892*
X04595Y018875*
X046035Y018892*
X046108Y018941*
X046157Y019014*
X046174Y0191*
X046157Y019185*
X046108Y019258*
X046035Y019307*
X04595Y019324*
X045895Y019313*
X039729Y025479*
X039692Y025503*
X03965Y025512*
X033139*
X033108Y025558*
X033035Y025607*
X03295Y025624*
G37*
G36*
X0482Y029424D02*
X048114Y029407D01*
X048041Y029358*
X047992Y029285*
X047975Y0292*
X047992Y029114*
X048041Y029041*
X048114Y028992*
X0482Y028975*
X048285Y028992*
X048358Y029041*
X048407Y029114*
X048424Y0292*
X048407Y029285*
X048358Y029358*
X048285Y029407*
X0482Y029424*
G37*
G36*
X040414Y028974D02*
X040328Y028957D01*
X040256Y028908*
X040207Y028835*
X04019Y02875*
X040207Y028664*
X040256Y028591*
X040328Y028542*
X040414Y028525*
X0405Y028542*
X040573Y028591*
X040621Y028664*
X040638Y02875*
X040621Y028835*
X040573Y028908*
X0405Y028957*
X040414Y028974*
G37*
G36*
X022209Y028424D02*
X022123Y028407D01*
X02205Y028358*
X022001Y028286*
X021984Y0282*
X022001Y028114*
X02205Y028041*
X022123Y027993*
X022209Y027976*
X022294Y027993*
X022367Y028041*
X022416Y028114*
X022433Y0282*
X022416Y028286*
X022367Y028358*
X022294Y028407*
X022209Y028424*
G37*
G36*
X030435Y029074D02*
X030349Y029057D01*
X030276Y029008*
X030228Y028935*
X030211Y02885*
X030228Y028764*
X030276Y028691*
X030349Y028642*
X030435Y028625*
X030521Y028642*
X030594Y028691*
X030642Y028764*
X030659Y02885*
X030642Y028935*
X030594Y029008*
X030521Y029057*
X030435Y029074*
G37*
G36*
X0224Y025574D02*
X022314Y025557D01*
X022241Y025508*
X022192Y025435*
X022175Y02535*
X022192Y025264*
X022241Y025191*
X022314Y025142*
X0224Y025125*
X022485Y025142*
X022558Y025191*
X022607Y025264*
X022624Y02535*
X022607Y025435*
X022558Y025508*
X022485Y025557*
X0224Y025574*
G37*
G36*
X01075Y029274D02*
X010664Y029257D01*
X010591Y029208*
X010542Y029135*
X010525Y02905*
X010542Y028964*
X010591Y028891*
X010664Y028842*
X01075Y028825*
X010835Y028842*
X010908Y028891*
X010957Y028964*
X010974Y02905*
X010957Y029135*
X010908Y029208*
X010835Y029257*
X01075Y029274*
G37*
G36*
X0188Y030701D02*
Y0303D01*
X019201*
X019192Y030368*
X019146Y030479*
X019074Y030574*
X018979Y030646*
X018868Y030692*
X0188Y030701*
G37*
G36*
X0086Y023367D02*
X008491Y023353D01*
X008391Y023311*
X008304Y023245*
X008238Y023159*
X008196Y023058*
X008182Y02295*
X008196Y022841*
X008238Y022741*
X008304Y022654*
X008391Y022588*
X008491Y022546*
X0086Y022532*
X008708Y022546*
X008809Y022588*
X008895Y022654*
X008961Y022741*
X009003Y022841*
X009017Y02295*
X009003Y023058*
X008961Y023159*
X008895Y023245*
X008809Y023311*
X008708Y023353*
X0086Y023367*
G37*
G36*
X00525Y0217D02*
X004709D01*
X004716Y021633*
X00475Y021522*
X004805Y021419*
X004879Y021329*
X004969Y021255*
X005072Y0212*
X005183Y021166*
X00525Y021159*
Y0217*
G37*
G36*
X0015Y031766D02*
X00135Y031751D01*
X001206Y031707*
X001074Y031637*
X000958Y031541*
X000862Y031425*
X000792Y031293*
X000748Y031149*
X000733Y031*
X000748Y03085*
X000792Y030706*
X000862Y030574*
X000958Y030458*
X001074Y030362*
X001206Y030292*
X00135Y030248*
X0015Y030233*
X001649Y030248*
X001793Y030292*
X001925Y030362*
X002041Y030458*
X002137Y030574*
X002207Y030706*
X002251Y03085*
X002266Y031*
X002251Y031149*
X002207Y031293*
X002137Y031425*
X002041Y031541*
X001925Y031637*
X001793Y031707*
X001649Y031751*
X0015Y031766*
G37*
G36*
X035343Y022874D02*
X035257Y022857D01*
X035185Y022808*
X035136Y022735*
X035131Y022712*
X031689*
X031658Y022758*
X031585Y022807*
X0315Y022824*
X031414Y022807*
X031341Y022758*
X031292Y022685*
X031275Y0226*
X031292Y022514*
X031341Y022441*
X031414Y022392*
X0315Y022375*
X031585Y022392*
X031658Y022441*
X031689Y022487*
X03519*
X035257Y022442*
X035343Y022425*
X035429Y022442*
X035502Y022491*
X03555Y022564*
X035568Y02265*
X03555Y022735*
X035502Y022808*
X035429Y022857*
X035343Y022874*
G37*
G36*
X0116Y023367D02*
X011491Y023353D01*
X011391Y023311*
X011304Y023245*
X011238Y023159*
X011196Y023058*
X011182Y02295*
X011196Y022841*
X011238Y022741*
X011304Y022654*
X011391Y022588*
X011491Y022546*
X0116Y022532*
X011708Y022546*
X011809Y022588*
X011895Y022654*
X011961Y022741*
X012003Y022841*
X012017Y02295*
X012003Y023058*
X011961Y023159*
X011895Y023245*
X011809Y023311*
X011708Y023353*
X0116Y023367*
G37*
G36*
X0514Y030717D02*
X051291Y030703D01*
X051191Y030661*
X051104Y030595*
X051038Y030508*
X050996Y030408*
X050982Y0303*
X050996Y030191*
X051038Y030091*
X051104Y030004*
X051191Y029938*
X051291Y029896*
X0514Y029882*
X051508Y029896*
X051609Y029938*
X051695Y030004*
X051761Y030091*
X051803Y030191*
X051817Y0303*
X051803Y030408*
X051761Y030508*
X051695Y030595*
X051609Y030661*
X051508Y030703*
X0514Y030717*
G37*
G36*
X0187Y030701D02*
X018631Y030692D01*
X01852Y030646*
X018426Y030574*
X018353Y030479*
X018307Y030368*
X018298Y0303*
X0187*
Y030701*
G37*
G36*
X00325Y02234D02*
X003183Y022333D01*
X003072Y022299*
X002969Y022244*
X002879Y02217*
X002805Y02208*
X00275Y021977*
X002716Y021866*
X002709Y0218*
X00325*
Y02234*
G37*
G36*
X0595Y031766D02*
X05935Y031751D01*
X059206Y031707*
X059074Y031637*
X058958Y031541*
X058862Y031425*
X058792Y031293*
X058748Y031149*
X058733Y031*
X058748Y03085*
X058792Y030706*
X058862Y030574*
X058958Y030458*
X059074Y030362*
X059206Y030292*
X05935Y030248*
X0595Y030233*
X059649Y030248*
X059793Y030292*
X059925Y030362*
X060041Y030458*
X060137Y030574*
X060207Y030706*
X060251Y03085*
X060266Y031*
X060251Y031149*
X060207Y031293*
X060137Y031425*
X060041Y031541*
X059925Y031637*
X059793Y031707*
X059649Y031751*
X0595Y031766*
G37*
G36*
X00535Y02234D02*
Y0218D01*
X00589*
X005883Y021866*
X005849Y021977*
X005794Y02208*
X00572Y02217*
X00563Y022244*
X005527Y022299*
X005416Y022333*
X00535Y02234*
G37*
G36*
X034943Y022361D02*
X034857Y022344D01*
X034785Y022296*
X034736Y022223*
X034719Y022137*
X034736Y022051*
X034785Y021978*
X034857Y02193*
X034943Y021913*
X035029Y02193*
X035102Y021978*
X03515Y022051*
X035168Y022137*
X03515Y022223*
X035102Y022296*
X035029Y022344*
X034943Y022361*
G37*
G36*
X00589Y0217D02*
X00535D01*
Y021159*
X005416Y021166*
X005527Y0212*
X00563Y021255*
X00572Y021329*
X005794Y021419*
X005849Y021522*
X005883Y021633*
X00589Y0217*
G37*
G36*
X036443Y021961D02*
X036357Y021944D01*
X036285Y021896*
X036236Y021823*
X036219Y021737*
X036236Y021651*
X036285Y021578*
X036357Y02153*
X036443Y021513*
X036529Y02153*
X036602Y021578*
X036651Y021651*
X036668Y021737*
X036651Y021823*
X036602Y021896*
X036529Y021944*
X036443Y021961*
G37*
G36*
X00325Y0237D02*
X002709D01*
X002716Y023633*
X00275Y023522*
X002805Y023419*
X002879Y023329*
X002969Y023255*
X003072Y0232*
X003183Y023166*
X00325Y023159*
Y0237*
G37*
G36*
X05595Y021075D02*
X054718D01*
Y020139*
X05595*
Y021075*
G37*
G36*
X05235Y030751D02*
X052281Y030742D01*
X05217Y030696*
X052076Y030624*
X052003Y030529*
X051957Y030418*
X051948Y03035*
X05235*
Y030751*
G37*
G36*
X05245D02*
Y03035D01*
X052851*
X052842Y030418*
X052796Y030529*
X052724Y030624*
X052629Y030696*
X052518Y030742*
X05245Y030751*
G37*
G36*
X048Y021025D02*
X046768D01*
Y020089*
X048*
Y021025*
G37*
G36*
X0312Y020505D02*
X031114Y020488D01*
X031041Y02044*
X030992Y020367*
X030975Y020281*
X030992Y020195*
X031041Y020122*
X031114Y020074*
X0312Y020057*
X031285Y020074*
X031358Y020122*
X031407Y020195*
X031424Y020281*
X031407Y020367*
X031358Y02044*
X031285Y020488*
X0312Y020505*
G37*
G36*
X0335Y020555D02*
X033414Y020538D01*
X033341Y02049*
X033292Y020417*
X033275Y020331*
X033292Y020245*
X033341Y020172*
X033414Y020124*
X0335Y020107*
X033585Y020124*
X033658Y020172*
X033707Y020245*
X033724Y020331*
X033707Y020417*
X033658Y02049*
X033585Y020538*
X0335Y020555*
G37*
G36*
X049331Y021025D02*
X0481D01*
Y020089*
X049331*
Y021025*
G37*
G36*
X0464Y021374D02*
X046314Y021357D01*
X046241Y021308*
X046192Y021235*
X046175Y02115*
X046192Y021064*
X046241Y020991*
X046314Y020942*
X0464Y020925*
X046485Y020942*
X046558Y020991*
X046607Y021064*
X046624Y02115*
X046607Y021235*
X046558Y021308*
X046485Y021357*
X0464Y021374*
G37*
G36*
X00325Y0217D02*
X002709D01*
X002716Y021633*
X00275Y021522*
X002805Y021419*
X002879Y021329*
X002969Y021255*
X003072Y0212*
X003183Y021166*
X00325Y021159*
Y0217*
G37*
G36*
X00389D02*
X00335D01*
Y021159*
X003416Y021166*
X003527Y0212*
X00363Y021255*
X00372Y021329*
X003794Y021419*
X003849Y021522*
X003883Y021633*
X00389Y0217*
G37*
G36*
X02524Y023334D02*
X025154Y023317D01*
X025081Y023268*
X025032Y023195*
X025015Y02311*
X025032Y023024*
X025081Y022951*
X025154Y022902*
X02524Y022885*
X025325Y022902*
X025398Y022951*
X025447Y023024*
X025464Y02311*
X025447Y023195*
X025398Y023268*
X025325Y023317*
X02524Y023334*
G37*
G36*
X057281Y021075D02*
X05605D01*
Y020139*
X057281*
Y021075*
G37*
%LNkarmandb-3*%
%LPD*%
G36*
X02877Y01982D02*
D01*
X028807Y019796*
X02885Y019787*
X029903*
X03052Y01917*
X030557Y019146*
X0306Y019137*
X034653*
X035637Y018153*
Y015566*
X035592Y015533*
X035512Y015567*
Y018006*
X035503Y018049*
X035479Y018086*
X034596Y018969*
X034559Y018993*
X034516Y019002*
X030356*
X029829Y019529*
X029792Y019553*
X02975Y019562*
X028846*
X028221Y020187*
X028254Y020262*
X028318Y020272*
X02877Y01982*
G37*
G36*
X036137Y018353D02*
Y014646D01*
X036052Y014561*
X036037Y014564*
X036001Y014655*
X036007Y014664*
X036024Y01475*
X036007Y014835*
X035974Y014884*
X035969Y014909*
X035945Y014945*
X035909Y014969*
X035866Y014978*
X03578*
X035705Y015052*
X035745Y015126*
X03575Y015125*
X035835Y015142*
X035908Y015191*
X035957Y015264*
X035974Y01535*
X035957Y015435*
X035908Y015508*
X035862Y015539*
Y0182*
X035853Y018242*
X035829Y018279*
X0348Y019307*
X034831Y019387*
X035103*
X036137Y018353*
G37*
G36*
X024466Y007942D02*
X024433Y007862D01*
X015816*
X015783Y007908*
X015817Y007987*
X024433*
X024466Y007942*
G37*
G36*
X025383Y006925D02*
X02536Y006852D01*
X015491*
X015457Y006919*
X015496Y006987*
X025335*
X025383Y006925*
G37*
G36*
X0474Y0007D02*
X0473Y0006D01*
X04725Y00055*
X0457*
X04545Y0008*
Y0022*
X0474*
Y0007*
G37*
G36*
X035287Y017944D02*
Y0152D01*
X035296Y015157*
X03532Y01512*
X035597Y014843*
X035592Y014835*
X035575Y01475*
X035592Y014664*
X035641Y014591*
X035616Y014512*
X033747*
X033735Y014514*
X033519*
X033476Y014506*
X03344Y014481*
X033347Y014388*
X031961*
X031953Y014425*
X031905Y014498*
X031832Y014546*
X031746Y014563*
X03166Y014546*
X031588Y014498*
X031577Y014482*
X031501Y014513*
X031513Y014572*
X031496Y014658*
X031448Y01473*
X031375Y014779*
X031289Y014796*
X031203Y014779*
X03113Y01473*
X031096Y014679*
X031076Y014679*
X031042Y014758*
X032381Y016097*
X03406*
X034102Y016106*
X034139Y01613*
X034829Y01682*
X034853Y016857*
X034862Y0169*
Y017598*
X034959Y017638*
X035045Y017704*
X035111Y017791*
X035153Y017891*
X035161Y017953*
X035236Y017985*
X035287Y017944*
G37*
G36*
X031663Y00715D02*
X031697Y007129D01*
Y006856*
X031053Y006212*
X023467*
X023433Y006292*
X023466Y006337*
X03075*
X030792Y006346*
X030829Y00637*
X031617Y007159*
X031663Y00715*
G37*
G36*
X060459Y01749D02*
X06059Y017359D01*
X0606Y017337*
Y01725*
Y005512*
X06059Y00549*
X058228Y003128*
X058209Y003109*
X058187Y0031*
X051606*
X051589Y003117*
X051573Y003144*
X051574Y00315*
X051557Y003235*
X051508Y003308*
X051435Y003357*
X05135Y003374*
X051264Y003357*
X051191Y003308*
X051142Y003235*
X051125Y00315*
X051126Y003144*
X05111Y003117*
X051093Y0031*
X050956*
X050939Y003117*
X050923Y003144*
X050924Y00315*
X050907Y003235*
X050858Y003308*
X050785Y003357*
X0507Y003374*
X050614Y003357*
X050541Y003308*
X050492Y003235*
X050475Y00315*
X050476Y003144*
X05046Y003117*
X050443Y0031*
X045662*
X04564Y003109*
X0447Y00405*
X043759Y00499*
X04375Y005012*
Y007509*
Y007557*
Y007564*
Y0076*
X043746Y007603*
X043745Y007604*
X043711Y007638*
X043709Y00764*
X043706Y007646*
X043735Y007685*
X04415Y0081*
X04422Y00817*
X04424Y00819*
X044242Y008191*
X044262Y0082*
X05005*
X050069Y008219*
X057793Y015943*
X05785Y016*
Y017087*
X057859Y017109*
X0579Y01715*
X058075Y017325*
X05824Y01749*
X058262Y0175*
X060437*
X060459Y01749*
G37*
G36*
X027814Y017117D02*
X027792Y017085D01*
X027775Y017*
X027792Y016914*
X02783Y016857*
X027804Y016796*
X027792Y016782*
X027473*
X027423Y016844*
X027424Y01685*
X027407Y016935*
X027358Y017008*
X027285Y017057*
X0272Y017074*
X027114Y017057*
X027041Y017008*
X02701Y016962*
X02655*
X026507Y016953*
X02647Y016929*
X026315Y016773*
X026269Y016779*
X026216Y01686*
X026224Y0169*
X026207Y016985*
X026199Y016997*
X026242Y017077*
X02651*
X026552Y017086*
X026589Y01711*
X026676Y017197*
X027771*
X027814Y017117*
G37*
G36*
X022946Y014976D02*
X022945Y01497D01*
X022961Y014892*
X022957Y01487*
X022926Y014812*
X019878*
X019732Y014957*
X019765Y015037*
X022896*
X022946Y014976*
G37*
G36*
X01898Y01348D02*
D01*
X021292*
X021323Y013409*
X021276Y013352*
X018909*
X018858Y013416*
X018866Y013445*
X018937Y013488*
X01898Y01348*
G37*
G36*
X03537Y01287D02*
D01*
X035407Y012846*
X03545Y012837*
X038255*
X038303Y012775*
X03828Y012702*
X035717*
X035715Y012703*
X035672Y012712*
X035014*
X034887Y012839*
X034851Y012863*
X034808Y012872*
X034765Y012863*
X034763Y012862*
X033674*
X033641Y012903*
X033672Y01298*
X033675Y012983*
X034727*
X03477Y012991*
X034806Y013015*
X034938Y013147*
X035093*
X03537Y01287*
G37*
G36*
X02482Y01147D02*
D01*
X024857Y011446*
X0249Y011437*
X02602*
X026029Y011424*
X026102Y011376*
X026187Y011359*
X026225Y011366*
X026265Y011292*
X026184Y011212*
X023985*
X023942Y011292*
X023957Y011314*
X023974Y0114*
X023958Y011477*
X023963Y0115*
X023994Y011557*
X024733*
X02482Y01147*
G37*
G36*
X026932Y014322D02*
X026899Y014242D01*
X025599*
X025569Y014316*
X02574Y014487*
X026767*
X026932Y014322*
G37*
G36*
X021757Y011057D02*
X021742Y011035D01*
X021725Y01095*
X021742Y010864*
X021764Y010832*
X021721Y010752*
X020606*
X020513Y010845*
X020524Y0109*
X020507Y010985*
X020458Y011058*
X020484Y011137*
X021714*
X021757Y011057*
G37*
G36*
X01957Y01437D02*
X019607Y014346D01*
X01965Y014337*
X022403*
X022584Y014156*
X022554Y014082*
X021482*
X021454Y01411*
X021418Y014134*
X021375Y014142*
X021301*
X021265Y014179*
X021228Y014203*
X021185Y014212*
X019537*
X019458Y01429*
X019469Y014345*
X019468Y01435*
X019475Y014365*
X019549Y014392*
X01957Y01437*
G37*
G36*
X021458Y0126D02*
D01*
X021471Y012592*
X021447Y012512*
X019571*
X019557Y012585*
X019508Y012658*
X019534Y012737*
X021321*
X021458Y0126*
G37*
G36*
X027325Y013015D02*
D01*
X027362Y012991*
X027404Y012983*
X02779*
X027814Y012987*
X027864*
X027907Y012907*
X027892Y012885*
X027875Y0128*
X027886Y012745*
X027733Y012592*
X026561*
X026518Y012583*
X026482Y012559*
X026384Y01246*
X026321Y01248*
X026302Y012492*
X026258Y012558*
X026185Y012607*
X0261Y012624*
X026014Y012607*
X025941Y012558*
X025937Y012552*
X02584*
X025832Y012632*
X025885Y012642*
X025958Y012691*
X026007Y012764*
X026024Y01285*
X026007Y012935*
X025958Y013008*
X025984Y013087*
X027253*
X027325Y013015*
G37*
G36*
X025641Y013008D02*
X025592Y012935D01*
X025575Y01285*
X025592Y012764*
X025641Y012691*
X025714Y012642*
X025767Y012632*
X025759Y012552*
X025005*
X024962Y012543*
X024926Y012519*
X024919Y012512*
X023984*
X023958Y012591*
X024007Y012664*
X024024Y01275*
X024007Y012835*
X023979Y012877*
X024018Y012957*
X024276*
X024278Y012956*
X024321Y012947*
X024777*
X02482Y012956*
X024857Y01298*
X024964Y013087*
X025616*
X025641Y013008*
G37*
G36*
X022212Y011447D02*
X022127Y011362D01*
X017419*
X017388Y011408*
X017329Y011447*
X017338Y011514*
X017343Y011527*
X022179*
X022212Y011447*
G37*
G36*
X027791Y012307D02*
X027795Y012289D01*
X027792Y012285*
X027775Y0122*
X027792Y012114*
X027841Y012041*
X027914Y011992*
X028Y011975*
X028085Y011992*
X028158Y012041*
X028196Y012097*
X02838*
X028405Y012017*
X028391Y012008*
X028342Y011935*
X028325Y01185*
X028342Y011764*
X028391Y011691*
X028464Y011642*
X02855Y011625*
X028635Y011642*
X028708Y011691*
X028739Y011737*
X031192*
X031364Y011566*
X031333Y011492*
X02651*
X026467Y011483*
X026402Y011536*
X026412Y011583*
X026395Y011669*
X026346Y011742*
X026292Y011777*
X026314Y011857*
X027092*
X027135Y011866*
X027171Y01189*
X027241Y01196*
X027296Y011949*
X027382Y011966*
X027455Y012015*
X027503Y012088*
X02752Y012174*
X027503Y012259*
X027485Y012287*
X027527Y012367*
X027751*
X027791Y012307*
G37*
G36*
X031123Y012036D02*
X031092Y011962D01*
X028744*
X028696Y012024*
X028719Y012097*
X031061*
X031123Y012036*
G37*
G36*
X024529Y014406D02*
X024498Y014332D01*
X02402*
X023977Y014323*
X02394Y014299*
X023847Y014205*
X023773Y014245*
X023774Y01425*
X023757Y014335*
X023708Y014408*
X023635Y014457*
X02355Y014474*
X023464Y014457*
X023391Y014408*
X023342Y014335*
X023328Y014262*
X022796*
X02255Y014507*
X022581Y014587*
X023918*
X023961Y014596*
X023997Y01462*
X024084Y014707*
X024227*
X024529Y014406*
G37*
G36*
X025108Y0147D02*
D01*
X025145Y014676*
X025188Y014667*
X025411*
X025454Y014676*
X025486Y014661*
X025507Y01457*
X025338Y014402*
X02485*
X024458Y014793*
X024489Y014867*
X024941*
X025108Y0147*
G37*
G36*
X046567Y010257D02*
X046564Y010257D01*
X046491Y010208*
X04648Y010192*
X044755*
X044724Y010266*
X044796Y010337*
X046559*
X046567Y010257*
G37*
G36*
X019267Y014957D02*
X019121Y014812D01*
X015814*
X015809Y014892*
X015867Y014899*
X015929Y014925*
X015983Y014966*
X016024Y01502*
X016031Y015037*
X019234*
X019267Y014957*
G37*
G36*
X028151Y014924D02*
X028145Y014893D01*
X028152Y014862*
X028091Y014782*
X027988*
X027945Y014773*
X027908Y014749*
X027851Y014692*
X027348*
X027171Y014869*
X027135Y014893*
X027092Y014902*
X025554*
X02551Y014982*
X025524Y01505*
X025507Y015135*
X025458Y015208*
X025444Y015217*
X025469Y015297*
X027778*
X028151Y014924*
G37*
G36*
X027083Y013803D02*
X027072Y013748D01*
X027089Y013663*
X027137Y01359*
X027194Y013552*
X02718Y013472*
X025749*
X025728Y013508*
X025715Y013552*
X025757Y013614*
X025774Y0137*
X025758Y013777*
X025763Y0138*
X025794Y013857*
X027028*
X027083Y013803*
G37*
G36*
X030928Y01977D02*
D01*
X030964Y019746*
X031007Y019737*
X031007*
X035403*
X036447Y018693*
Y014356*
X036203Y014112*
X034702*
X0347Y014113*
X034657Y014122*
X033517*
X033517*
X033499Y014118*
X033468Y014193*
X033472Y014196*
X033566Y01429*
X033725*
X033737Y014287*
X03605*
X036092Y014296*
X036129Y01432*
X036329Y01452*
X036353Y014557*
X036362Y0146*
Y0184*
X036353Y018442*
X036329Y018479*
X035229Y019579*
X035192Y019603*
X03515Y019612*
X030896*
X030219Y020289*
X030237Y020372*
X030322Y020376*
X030928Y01977*
G37*
G36*
X026791Y010617D02*
X026635Y010462D01*
X026102*
X0261Y010463*
X026057Y010472*
X024777*
X024734Y010463*
X024698Y010439*
X024371Y010112*
X024131*
X023629Y010613*
X02366Y010687*
X024082*
X024125Y010696*
X024127Y010697*
X026758*
X026791Y010617*
G37*
G36*
X044614Y010472D02*
X044503Y010362D01*
X044399*
X044397Y010364*
X044361Y010388*
X044318Y010397*
X044082*
X044039Y010388*
X044002Y010364*
X044Y010362*
X034702*
X034688Y010434*
X034689Y010442*
X034723Y010464*
X034811Y010552*
X044581*
X044614Y010472*
G37*
G36*
X031534Y014398D02*
X031522Y014339D01*
X031539Y014253*
X031588Y01418*
X03166Y014132*
X031746Y014115*
X031832Y014132*
X031861Y014151*
X031907Y014137*
X031939Y014052*
X031925Y014031*
X031908Y013945*
X031925Y013859*
X03196Y013807*
X031935Y013739*
X031925Y013727*
X03158*
X031535Y013757*
X03145Y013774*
X031364Y013757*
X031291Y013708*
X031242Y013635*
X031225Y01355*
X031242Y013464*
X031291Y013391*
X031364Y013342*
X03145Y013325*
X031535Y013342*
X031608Y013391*
X031657Y013464*
X031665Y013503*
X033349*
X033392Y013511*
X033428Y013535*
X03355Y013657*
X033656*
X033687Y0136*
X033691Y013577*
X033675Y0135*
X033692Y013414*
X033741Y013341*
X033814Y013292*
X033841Y013287*
X033833Y013207*
X032347*
X032339Y013244*
X032291Y013316*
X032218Y013365*
X032132Y013382*
X032046Y013365*
X031974Y013316*
X031925Y013244*
X031908Y013158*
X031925Y013072*
X031974Y012999*
X032046Y012951*
X032132Y012934*
X032218Y012951*
X032266Y012983*
X033258*
X033281Y012932*
X033287Y012903*
X033242Y012835*
X033225Y01275*
X033242Y012664*
X033261Y012636*
X033218Y012556*
X032251*
X032218Y012578*
X032132Y012595*
X032046Y012578*
X031974Y012529*
X031925Y012456*
X031908Y01237*
X031925Y012285*
X031974Y012212*
X031999Y012195*
X031974Y012115*
X031887*
X031858Y012158*
X031785Y012207*
X0317Y012224*
X031614Y012207*
X031541Y012158*
X031497Y012092*
X031478Y01208*
X031415Y01206*
X031187Y012289*
X031151Y012313*
X031108Y012322*
X028183*
X028158Y012358*
X028085Y012407*
X028Y012424*
X027995Y012423*
X027955Y012497*
X028045Y012586*
X0281Y012575*
X028185Y012592*
X028258Y012641*
X028307Y012714*
X028324Y0128*
X028307Y012885*
X028292Y012907*
X028335Y012987*
X03051*
X030541Y012941*
X030614Y012892*
X0307Y012875*
X030785Y012892*
X030858Y012941*
X030907Y013014*
X030924Y0131*
X030907Y013185*
X030858Y013258*
X030785Y013307*
X0307Y013324*
X030614Y013307*
X030541Y013258*
X03051Y013212*
X027953*
X027908Y013284*
X027908Y013292*
X027924Y013372*
X027907Y013458*
X027858Y013531*
X027785Y013579*
X0277Y013596*
X027614Y013579*
X027541Y013531*
X027501Y013472*
X027412*
X027398Y013552*
X027455Y01359*
X027503Y013663*
X02752Y013748*
X027503Y013834*
X027464Y013892*
X027478Y01395*
X027493Y013977*
X027505Y013979*
X027511Y013971*
X027584Y013922*
X02767Y013905*
X027755Y013922*
X027828Y013971*
X027877Y014044*
X027894Y01413*
X027882Y014192*
X027902Y014208*
X027955Y014232*
X028014Y014192*
X0281Y014175*
X028185Y014192*
X028258Y014241*
X028307Y014314*
X028312Y014341*
X028349Y014404*
X028402Y014414*
X03113*
X03113Y014413*
X031203Y014365*
X031289Y014348*
X031375Y014365*
X031448Y014413*
X031458Y014429*
X031534Y014398*
G37*
G36*
X027814Y010867D02*
X027792Y010835D01*
X027775Y01075*
X02778Y010728*
X026703Y009652*
X025765*
X025734Y009726*
X025845Y009836*
X0259Y009825*
X025985Y009842*
X026058Y009891*
X026107Y009964*
X026124Y01005*
X026107Y010135*
X026092Y010157*
X026135Y010237*
X026682*
X026725Y010246*
X026761Y01027*
X027438Y010947*
X027771*
X027814Y010867*
G37*
%LNkarmandb-4*%
%LPC*%
G36*
X04955Y004674D02*
X049464Y004657D01*
X049391Y004608*
X049342Y004535*
X049325Y00445*
X049342Y004364*
X049391Y004291*
X049464Y004242*
X04955Y004225*
X049635Y004242*
X049708Y004291*
X049757Y004364*
X049774Y00445*
X049757Y004535*
X049708Y004608*
X049635Y004657*
X04955Y004674*
G37*
G36*
X0514Y004874D02*
X051314Y004857D01*
X051241Y004808*
X051192Y004735*
X051175Y00465*
X051192Y004564*
X051241Y004491*
X051314Y004442*
X0514Y004425*
X051485Y004442*
X051558Y004491*
X051607Y004564*
X051624Y00465*
X051607Y004735*
X051558Y004808*
X051485Y004857*
X0514Y004874*
G37*
G36*
X04645Y001649D02*
X04574D01*
Y001372*
X04645*
Y001649*
G37*
G36*
X05045Y004874D02*
X050364Y004857D01*
X050291Y004808*
X050242Y004735*
X050225Y00465*
X050242Y004564*
X050291Y004491*
X050364Y004442*
X05045Y004425*
X050535Y004442*
X050608Y004491*
X050657Y004564*
X050674Y00465*
X050657Y004735*
X050608Y004808*
X050535Y004857*
X05045Y004874*
G37*
G36*
X047259Y004427D02*
X04655D01*
Y00415*
X047259*
Y004427*
G37*
G36*
X04955Y003974D02*
X049464Y003957D01*
X049391Y003908*
X049342Y003835*
X049325Y00375*
X049342Y003664*
X049391Y003591*
X049464Y003542*
X04955Y003525*
X049635Y003542*
X049708Y003591*
X049757Y003664*
X049774Y00375*
X049757Y003835*
X049708Y003908*
X049635Y003957*
X04955Y003974*
G37*
G36*
X04645Y002025D02*
X04574D01*
Y001749*
X04645*
Y002025*
G37*
G36*
X047259D02*
X04655D01*
Y001749*
X047259*
Y002025*
G37*
G36*
X04645Y00405D02*
X04574D01*
Y003774*
X04645*
Y00405*
G37*
G36*
Y004427D02*
X04574D01*
Y00415*
X04645*
Y004427*
G37*
G36*
X047259Y001649D02*
X04655D01*
Y001372*
X047259*
Y001649*
G37*
G36*
Y00405D02*
X04655D01*
Y003774*
X047259*
Y00405*
G37*
G36*
X05935Y011607D02*
Y011205D01*
X059751*
X059742Y011274*
X059696Y011385*
X059624Y011479*
X059529Y011552*
X059418Y011598*
X05935Y011607*
G37*
G36*
X05925D02*
X059181Y011598D01*
X05907Y011552*
X058976Y011479*
X058903Y011385*
X058857Y011274*
X058848Y011205*
X05925*
Y011607*
G37*
G36*
Y013861D02*
X058848D01*
X058857Y013793*
X058903Y013682*
X058976Y013587*
X05907Y013515*
X059181Y013469*
X05925Y01346*
Y013861*
G37*
G36*
X0593Y012951D02*
X059191Y012937D01*
X059091Y012895*
X059004Y012829*
X058938Y012742*
X058896Y012642*
X058882Y012533*
X058896Y012425*
X058938Y012324*
X059004Y012238*
X059091Y012172*
X059191Y01213*
X0593Y012116*
X059408Y01213*
X059509Y012172*
X059595Y012238*
X059661Y012324*
X059703Y012425*
X059717Y012533*
X059703Y012642*
X059661Y012742*
X059595Y012829*
X059509Y012895*
X059408Y012937*
X0593Y012951*
G37*
G36*
X059751Y011105D02*
X05935D01*
Y010704*
X059418Y010713*
X059529Y010759*
X059624Y010831*
X059696Y010926*
X059742Y011037*
X059751Y011105*
G37*
G36*
X05935Y008851D02*
Y00845D01*
X059751*
X059742Y008518*
X059696Y008629*
X059624Y008724*
X059529Y008796*
X059418Y008842*
X05935Y008851*
G37*
G36*
X05925D02*
X059181Y008842D01*
X05907Y008796*
X058976Y008724*
X058903Y008629*
X058857Y008518*
X058848Y00845*
X05925*
Y008851*
G37*
G36*
Y011105D02*
X058848D01*
X058857Y011037*
X058903Y010926*
X058976Y010831*
X05907Y010759*
X059181Y010713*
X05925Y010704*
Y011105*
G37*
G36*
X0593Y010195D02*
X059191Y010181D01*
X059091Y010139*
X059004Y010073*
X058938Y009986*
X058896Y009886*
X058882Y009778*
X058896Y009669*
X058938Y009569*
X059004Y009482*
X059091Y009416*
X059191Y009374*
X0593Y00936*
X059408Y009374*
X059509Y009416*
X059595Y009482*
X059661Y009569*
X059703Y009669*
X059717Y009778*
X059703Y009886*
X059661Y009986*
X059595Y010073*
X059509Y010139*
X059408Y010181*
X0593Y010195*
G37*
G36*
X059751Y016617D02*
X05935D01*
Y016216*
X059418Y016225*
X059529Y01627*
X059624Y016343*
X059696Y016438*
X059742Y016549*
X059751Y016617*
G37*
G36*
X05925D02*
X058848D01*
X058857Y016549*
X058903Y016438*
X058976Y016343*
X05907Y01627*
X059181Y016225*
X05925Y016216*
Y016617*
G37*
G36*
X05935Y017119D02*
Y016717D01*
X059751*
X059742Y016786*
X059696Y016896*
X059624Y016991*
X059529Y017064*
X059418Y01711*
X05935Y017119*
G37*
G36*
X05925D02*
X059181Y01711D01*
X05907Y017064*
X058976Y016991*
X058903Y016896*
X058857Y016786*
X058848Y016717*
X05925*
Y017119*
G37*
G36*
X03385Y015674D02*
X033764Y015657D01*
X033691Y015608*
X033642Y015535*
X033625Y01545*
X033642Y015364*
X033691Y015291*
X033764Y015242*
X03385Y015225*
X033935Y015242*
X034008Y015291*
X034057Y015364*
X034074Y01545*
X034057Y015535*
X034008Y015608*
X033935Y015657*
X03385Y015674*
G37*
G36*
X05925Y014363D02*
X059181Y014354D01*
X05907Y014308*
X058976Y014235*
X058903Y01414*
X058857Y01403*
X058848Y013961*
X05925*
Y014363*
G37*
G36*
X059751Y013861D02*
X05935D01*
Y01346*
X059418Y013469*
X059529Y013515*
X059624Y013587*
X059696Y013682*
X059742Y013793*
X059751Y013861*
G37*
G36*
X0593Y015707D02*
X059191Y015693D01*
X059091Y015651*
X059004Y015585*
X058938Y015498*
X058896Y015397*
X058882Y015289*
X058896Y015181*
X058938Y01508*
X059004Y014994*
X059091Y014927*
X059191Y014886*
X0593Y014871*
X059408Y014886*
X059509Y014927*
X059595Y014994*
X059661Y01508*
X059703Y015181*
X059717Y015289*
X059703Y015397*
X059661Y015498*
X059595Y015585*
X059509Y015651*
X059408Y015693*
X0593Y015707*
G37*
G36*
X05935Y014363D02*
Y013961D01*
X059751*
X059742Y01403*
X059696Y01414*
X059624Y014235*
X059529Y014308*
X059418Y014354*
X05935Y014363*
G37*
G36*
X058509Y00626D02*
X05777D01*
Y005068*
X058509*
Y00626*
G37*
G36*
X054229D02*
X053491D01*
Y005068*
X054229*
Y00626*
G37*
G36*
X045441Y007502D02*
X044702D01*
Y00631*
X045441*
Y007502*
G37*
G36*
X059348Y00626D02*
X058609D01*
Y005068*
X059348*
Y00626*
G37*
G36*
X053391D02*
X052652D01*
Y005068*
X053391*
Y00626*
G37*
G36*
X046279Y00621D02*
X045541D01*
Y005018*
X046279*
Y00621*
G37*
G36*
X045441D02*
X044702D01*
Y005018*
X045441*
Y00621*
G37*
G36*
X051398D02*
X050659D01*
Y005018*
X051398*
Y00621*
G37*
G36*
X050559D02*
X04982D01*
Y005018*
X050559*
Y00621*
G37*
G36*
X059348Y007552D02*
X058609D01*
Y00636*
X059348*
Y007552*
G37*
G36*
X058509D02*
X05777D01*
Y00636*
X058509*
Y007552*
G37*
G36*
X059751Y00835D02*
X05935D01*
Y007948*
X059418Y007957*
X059529Y008003*
X059624Y008076*
X059696Y00817*
X059742Y008281*
X059751Y00835*
G37*
G36*
X05925D02*
X058848D01*
X058857Y008281*
X058903Y00817*
X058976Y008076*
X05907Y008003*
X059181Y007957*
X05925Y007948*
Y00835*
G37*
G36*
X054229Y007552D02*
X053491D01*
Y00636*
X054229*
Y007552*
G37*
G36*
X050559Y007502D02*
X04982D01*
Y00631*
X050559*
Y007502*
G37*
G36*
X046279D02*
X045541D01*
Y00631*
X046279*
Y007502*
G37*
G36*
X053391Y007552D02*
X052652D01*
Y00636*
X053391*
Y007552*
G37*
G36*
X051398Y007502D02*
X050659D01*
Y00631*
X051398*
Y007502*
G37*
%LNkarmandb-5*%
%LPD*%
G54D21*
X01555Y00585D03*
X01695Y00535D03*
X01505Y0147D03*
X0158Y01515D03*
G54D55*
X02675Y00954D02*
X02796Y01075D01*
X028*
X027392Y01106D02*
X02884D01*
X02727Y01122D02*
X029159D01*
X02651Y01138D02*
X03272D01*
X026682Y01035D02*
X027392Y01106D01*
X02884D02*
X029167Y010732D01*
X02686Y01081D02*
X02727Y01122D01*
X029159D02*
X029329Y01105D01*
X02623Y0111D02*
X02651Y01138D01*
X03272D02*
X03285Y01125D01*
X022323Y0114D02*
X02375D01*
X022173Y01125D02*
X022323Y0114D01*
X01723Y01125D02*
X022173D01*
X02334Y01164D02*
X02337Y01167D01*
X02478*
X0249Y01155*
X01723Y01164D02*
X02334D01*
X019071Y01207D02*
X025088D01*
X019238Y01223D02*
X025021D01*
X01945Y0124D02*
X024965D01*
X02373Y01268D02*
X0238Y01275D01*
X0249Y01155D02*
X026154D01*
X025461Y01212D02*
X025461D01*
X025138D02*
X025461D01*
X025461D02*
X025771D01*
X025005Y01244D02*
X02606D01*
X025071Y01228D02*
X025838D01*
X025021Y01223D02*
X025071Y01228D01*
X024965Y0124D02*
X025005Y01244D01*
X025088Y01207D02*
X025138Y01212D01*
X025921Y01197D02*
X027092D01*
X026211Y01213D02*
X026561Y01248D01*
X025771Y01212D02*
X025921Y01197D01*
X025988Y01213D02*
X026211D01*
X025838Y01228D02*
X025988Y01213D01*
X022476Y0179D02*
X023336Y01876D01*
X02631*
X027898Y01458D02*
X027988Y01467D01*
X027092Y01479D02*
X027302Y01458D01*
X027898*
X02756Y014402D02*
X028202D01*
X027488Y01433D02*
X02756Y014402D01*
X027083Y01433D02*
X027488D01*
X024988Y01498D02*
X025188Y01478D01*
X024274Y01482D02*
X024804Y01429D01*
X023918Y0147D02*
X024038Y01482D01*
X024274*
X02318Y01498D02*
X024988D01*
X02317Y01497D02*
X02318Y01498D01*
X023058Y01524D02*
X025108D01*
X027567Y01336D02*
X027627Y0133D01*
X024851Y01336D02*
X027567D01*
X027795Y0131D02*
X0307D01*
X02779Y013095D02*
X027795Y0131D01*
X027404Y013095D02*
X02779D01*
X0273Y0132D02*
X027404Y013095D01*
X027627Y0133D02*
X0277Y013372D01*
X024917Y0132D02*
X0273D01*
X02606Y01244D02*
X0261Y0124D01*
X02778Y01248D02*
X0281Y0128D01*
X027092Y01197D02*
X027296Y012174D01*
X019001Y01214D02*
X019071Y01207D01*
X018798Y01267D02*
X019238Y01223D01*
X018351Y01267D02*
X018798D01*
X026561Y01248D02*
X02778D01*
X01935Y0125D02*
D01*
X01945Y0124*
X01626Y01214D02*
X019001D01*
X016Y0124D02*
X01626Y01214D01*
X01815Y01285D02*
X021368D01*
X018615Y01308D02*
X01983D01*
X018823Y01324D02*
X021331D01*
X01985Y01306D02*
X021378D01*
X01983Y01308D02*
X01985Y01306D01*
X018563Y0135D02*
X018823Y01324D01*
X026154Y01155D02*
X026187Y011583D01*
X01685Y0116D02*
X01719D01*
X02195Y0109D02*
Y01095D01*
X02056Y01064D02*
X023444D01*
X0203Y0109D02*
X02056Y01064D01*
X02255Y0111D02*
X02623D01*
X02205Y0108D02*
X024082D01*
X02195Y0109D02*
X02205Y0108D01*
X024082D02*
X024092Y01081D01*
X02686*
X023444Y01064D02*
X024084Y01D01*
X023532Y01295D02*
X023652Y01307D01*
X021368Y01285D02*
X021538Y01268D01*
X018261Y01258D02*
X018351Y01267D01*
X023652Y01307D02*
X024311D01*
X021538Y01268D02*
X02373D01*
X021378Y01306D02*
X021538Y01322D01*
X021486Y01338D02*
X021576Y01347D01*
X021471Y01338D02*
X021486D01*
X021331Y01324D02*
X021471Y01338D01*
X021552Y01322D02*
X021632Y0133D01*
X021538Y01322D02*
X021552D01*
X024321Y01306D02*
X024777D01*
X024311Y01307D02*
X024321Y01306D01*
X018038Y01258D02*
X018261D01*
X01788Y012738D02*
X018038Y01258D01*
X01788Y012738D02*
Y012797D01*
X017859Y012818D02*
X01788Y012797D01*
X017718Y012818D02*
X017859D01*
X018227Y013327D02*
X018368D01*
X018607Y013456D02*
X018621D01*
X018563Y0135D02*
X018607Y013456D01*
X04544Y01206D02*
X04585Y01165D01*
X0463*
X046266Y01201D02*
X04694D01*
X046266D02*
D01*
X04594D02*
X046266D01*
X04694D02*
X04695Y012D01*
X046515Y010665D02*
X0469Y01105D01*
X04733*
X0315Y0226D02*
X035293D01*
X035343Y02265*
X03345Y01275D02*
X034798D01*
X034808Y01276*
X02903Y00906D02*
X02906D01*
X02942Y00942*
X0167Y0245D02*
X01722Y02502D01*
Y025261*
X01721Y025271D02*
Y026366D01*
Y025271D02*
X01722Y025261D01*
X0167Y02055D02*
Y0245D01*
X031165Y016193D02*
X031572Y0166D01*
X031165Y016179D02*
Y016193D01*
X031007Y016021D02*
X031165Y016179D01*
X030783Y016021D02*
X031007D01*
X030625Y016179D02*
X030783Y016021D01*
X030625Y016179D02*
Y016193D01*
X030219Y0166D02*
X030625Y016193D01*
X030825Y0147D02*
X032335Y01621D01*
X030582Y0147D02*
X030825D01*
X030485Y014796D02*
X030582Y0147D01*
X028355Y014526D02*
X031243D01*
X028211Y01467D02*
X028355Y014526D01*
X031243D02*
X031289Y014572D01*
X028341Y014893D02*
X02837D01*
X027825Y01541D02*
X028341Y014893D01*
X027988Y01467D02*
X028211D01*
X022331Y0174D02*
X02272Y017788D01*
X02195Y0174D02*
X022331D01*
X02272Y017802D02*
X023367Y01845D01*
X02272Y017788D02*
Y017802D01*
X02735Y01845D02*
X02785Y01895D01*
X023367Y01845D02*
X02735D01*
X027797Y01667D02*
X027917Y01655D01*
X027132Y0164D02*
X027402Y01667D01*
X027797*
X02755Y01635D02*
X02765Y01645D01*
X027308Y01635D02*
X02755D01*
X027158Y0162D02*
X027308Y01635D01*
X02765Y0164D02*
Y01645D01*
X027917Y01655D02*
X0281D01*
X02633Y01663D02*
X02655Y01685D01*
X018043Y01663D02*
X02633D01*
X02655Y01685D02*
X0272D01*
X028613Y01589D02*
X02932Y015182D01*
X025417Y0162D02*
X027158D01*
X025407Y01621D02*
X025417Y0162D01*
X025192Y01621D02*
X025407D01*
X025182Y0162D02*
X025192Y01621D01*
X023622Y01001D02*
X02438Y009252D01*
X01941Y01001D02*
X023622D01*
X024084Y01D02*
X024417D01*
X023658Y0102D02*
X024158Y0097D01*
X019853Y0105D02*
X020153Y0102D01*
X01905Y0105D02*
X019853D01*
X01531Y00674D02*
X02589D01*
X01516Y00748D02*
X02593D01*
X01514Y00746D02*
X01516Y00748D01*
X0245Y00255D02*
Y00525D01*
X0208Y0056D02*
X02735D01*
X021576Y01347D02*
X023948D01*
X021509Y01363D02*
X023882D01*
X02154Y01379D02*
X023816D01*
X023976Y01395*
X023882Y01363D02*
X023942Y01369D01*
X023948Y01347D02*
X024008Y01353D01*
X024261*
X023942Y01369D02*
X024328D01*
X023976Y01395D02*
X02445D01*
X02402Y01422D02*
X02462D01*
X02377Y01397D02*
X02402Y01422D01*
X021435Y01397D02*
X02377D01*
X02462Y01422D02*
X02471Y01413D01*
X02463Y01368D02*
X02492Y01397D01*
X024338Y01368D02*
X02463D01*
X024696Y01352D02*
X024876Y0137D01*
X024271Y01352D02*
X024696D01*
X024261Y01353D02*
X024271Y01352D01*
X024328Y01369D02*
X024338Y01368D01*
X024876Y0137D02*
X02555D01*
X02492Y01397D02*
X027075D01*
X027296Y013748*
X019831Y0147D02*
X023918D01*
X025278Y01541D02*
X027825D01*
X025108Y01524D02*
X025278Y01541D01*
X025421Y01479D02*
X027092D01*
X025411Y01478D02*
X025421Y01479D01*
X025188Y01478D02*
X025411D01*
X022968Y01515D02*
X023058Y01524D01*
X0139Y01515D02*
X022968D01*
X019611Y01492D02*
X019831Y0147D01*
X021632Y0133D02*
X024791D01*
X02275Y01415D02*
X02355D01*
X019168Y0147D02*
X019388Y01492D01*
X0145Y0147D02*
X019168D01*
X019388Y01492D02*
X019611D01*
X0195Y0146D02*
Y01465D01*
Y0146D02*
D01*
X019116Y013965D02*
X019231Y01385D01*
X0195Y0146D02*
X01965Y01445D01*
X024777Y01306D02*
X024917Y0132D01*
X02471Y01413D02*
X02767D01*
X026813Y014599D02*
X027083Y01433D01*
X025694Y014599D02*
X026813D01*
X025384Y01429D02*
X025694Y014599D01*
X024804Y01429D02*
X025384D01*
X0281Y0143D02*
Y0144D01*
X027962Y01221D02*
X031108D01*
X031238Y01185D02*
X031531Y011557D01*
X02855Y01185D02*
X031238D01*
X027952Y0122D02*
X027962Y01221D01*
X031806Y008739D02*
X03182Y008726D01*
Y008488D02*
Y008726D01*
X03181Y008966D02*
Y00909D01*
X031806Y008963D02*
X03181Y008966D01*
X031806Y008739D02*
Y008963D01*
X0318Y008468D02*
X03182Y008488D01*
X0318Y008242D02*
Y008468D01*
X03155Y00727D02*
Y0086D01*
X032076Y008851D02*
X048251D01*
X04408Y00942D02*
X0442Y0093D01*
X032242Y00959D02*
X04474D01*
X02942Y00942D02*
X04408D01*
X048251Y008851D02*
X0483Y0089D01*
X031486Y010346D02*
X032242Y00959D01*
X034302Y00975D02*
X034632Y01008D01*
X032476Y00975D02*
X034302D01*
X031879Y010346D02*
X032476Y00975D01*
X04474Y00959D02*
X0448Y00965D01*
X03285Y01125D02*
X03335D01*
X033041Y01154D02*
X035672D01*
X032987Y011594D02*
X033041Y01154D01*
X031957Y011594D02*
X032987D01*
X033063Y011744D02*
X033419D01*
X032963Y011843D02*
X033063Y011744D01*
X033369Y01192D02*
X033595D01*
X033353Y011904D02*
X033369Y01192D01*
X033129Y011904D02*
X033353D01*
X03303Y012003D02*
X033129Y011904D01*
X03192Y011557D02*
X031957Y011594D01*
X03198Y011843D02*
X032963D01*
X031703Y012003D02*
X03303D01*
X0317Y012D02*
X031703Y012003D01*
X031854Y011717D02*
X03198Y011843D01*
X033419Y011744D02*
X033463Y0117D01*
X032205Y012444D02*
X033524D01*
X032132Y01237D02*
X032205Y012444D01*
X033524D02*
X033788Y01218D01*
X03339Y013882D02*
X033517Y01401D01*
X03593Y01377D02*
X03612Y01358D01*
X033503Y01377D02*
X03593D01*
X034746Y0135D02*
X034826Y01342D01*
X0339Y0135D02*
X034746D01*
X033349Y013615D02*
X033503Y01377D01*
X031515Y013615D02*
X033349D01*
X03145Y01355D02*
X031515Y013615D01*
X035672Y01154D02*
X035742Y01161D01*
X034302Y0117D02*
X034432Y01183D01*
X034236Y01186D02*
X034366Y01199D01*
X034968Y0126D02*
X035672D01*
X04563Y01103D02*
X04575Y01115D01*
X03417Y01202D02*
X0343Y01215D01*
X034826Y01342D02*
X035206D01*
X033721Y01202D02*
X03417D01*
X03573Y01103D02*
X04563D01*
X03565Y01095D02*
X03573Y01103D01*
X034808Y01276D02*
X034968Y0126D01*
X033655Y01186D02*
X034236D01*
X033463Y0117D02*
X034302D01*
X031601Y011717D02*
X031854D01*
X031108Y01221D02*
X031601Y011717D01*
X031531Y011557D02*
X03192D01*
X034011Y01218D02*
X034231Y0124D01*
X034953*
X03335Y01125D02*
Y01127D01*
X0359Y0113D02*
Y0114D01*
X033595Y01192D02*
X033655Y01186D01*
X033661Y01208D02*
X033721Y01202D01*
X033335Y01208D02*
X033661D01*
X033241Y012174D02*
X033335Y01208D01*
X033788Y01218D02*
X034011D01*
X035386Y01324D02*
X03754D01*
X035206Y01342D02*
X035386Y01324D01*
X03545Y01295D02*
X03845D01*
X03514Y01326D02*
X03545Y01295D01*
X034892Y01326D02*
X03514D01*
X03615Y0136D02*
Y013662D01*
X043421Y01129D02*
X043607D01*
X043411Y01128D02*
X043421Y01129D01*
X043188Y01128D02*
X043411D01*
X043178Y01129D02*
X043188Y01128D01*
X03601Y01129D02*
X043178D01*
X043498Y01196D02*
X043528D01*
X043478Y01198D02*
X043498Y01196D01*
X043121Y01198D02*
X043478D01*
X043111Y01197D02*
X043121Y01198D01*
X0377Y01197D02*
X043111D01*
X043431Y0118D02*
X04375D01*
X043411Y01182D02*
X043431Y0118D01*
X043188Y01182D02*
X043411D01*
X043168Y0118D02*
X043188Y01182D01*
X035567Y0118D02*
X043168D01*
X043938Y01222D02*
X04573D01*
X043928Y01223D02*
X043938Y01222D01*
X043571Y01223D02*
X043928D01*
X043491Y01215D02*
X043571Y01223D01*
X03567Y01215D02*
X043491D01*
X043871Y01206D02*
X04544D01*
X043861Y01207D02*
X043871Y01206D01*
X043638Y01207D02*
X043861D01*
X043528Y01196D02*
X043638Y01207D01*
X043981Y01165D02*
X04515D01*
X043861Y01153D02*
X043981Y01165D01*
X043847Y01153D02*
X043861D01*
X043607Y01129D02*
X043847Y01153D01*
X035407Y01196D02*
X035567Y0118D01*
X0359Y0114D02*
X03601Y01129D01*
X04573Y01222D02*
X04585Y0121D01*
X02165Y01295D02*
X023532D01*
X021472Y013592D02*
X021509Y01363D01*
X01898Y013592D02*
X021472D01*
X018736Y013836D02*
X01898Y013592D01*
X024552Y00908D02*
X02478Y008851D01*
X024538Y00908D02*
X024552D01*
X02438Y009238D02*
X024538Y00908D01*
X02438Y009238D02*
Y009252D01*
X02478Y008851D02*
X027352D01*
X024158Y0097D02*
X02555D01*
X0259Y01005D02*
D01*
X02555Y0097D02*
X0259Y01005D01*
X024777Y01036D02*
X026057D01*
X024417Y01D02*
X024777Y01036D01*
X029167Y010732D02*
X029517D01*
X02489Y00954D02*
X02675D01*
X0099Y01395D02*
X0133D01*
X0092Y01325D02*
X0099Y01395D01*
X011616Y006533D02*
Y006583D01*
Y006533D02*
X0123Y00585D01*
X0102Y0057D02*
X01055Y00535D01*
X019*
X0123Y00585D02*
X01945D01*
X0194Y01D02*
X01941Y01001D01*
X032195Y013095D02*
X034727D01*
X032132Y013158D02*
X032195Y013095D01*
X035957Y01161D02*
X035967Y0116D01*
X035742Y01161D02*
X035957D01*
X035474Y01212D02*
X035624Y01197D01*
X035672Y0126D02*
X035682Y01259D01*
X035606Y01244D02*
X035646Y0124D01*
X01455Y0071D02*
X025529D01*
X01525Y0068D02*
X01531Y00674D01*
X0156Y00775D02*
X02505D01*
X0251Y0078*
X0149Y00815D02*
Y00825D01*
Y00815D02*
X01495Y0081D01*
X01455Y0071D02*
D01*
X0281Y0143D02*
X028202Y014402D01*
X0311Y0061D02*
X0318Y0068D01*
X03181Y00679*
Y008232*
X034376Y01005D02*
X034576Y01025D01*
X034644Y010544D02*
X034765Y010665D01*
X03345Y010544D02*
X034644D01*
X03175Y00915D02*
X03181Y00909D01*
X03154Y00726D02*
X03155Y00727D01*
X0318Y008242D02*
X03181Y008232D01*
X03154Y00726D02*
X03155Y00725D01*
X03075Y00645D02*
X03155Y00725D01*
X02325Y00645D02*
X03075D01*
X0334Y01005D02*
X034376D01*
X034632Y01008D02*
X04655D01*
X034576Y01025D02*
X044047D01*
X020153Y0102D02*
X023658D01*
X03295Y0248D02*
X03812D01*
X032335Y01621D02*
X03406D01*
X021Y030127D02*
Y030156D01*
X029714Y014796D02*
X030485D01*
X031572Y0166D02*
X03295D01*
X02975D02*
X030219D01*
X02737Y00938D02*
X028336Y010346D01*
X02528Y00938D02*
X02737D01*
X0251Y0092D02*
X02528Y00938D01*
X02245Y0179D02*
X022476D01*
X02935Y01885D02*
X02965D01*
X02885Y01835D02*
X02935Y01885D01*
X0214Y0061D02*
X0311D01*
X023482Y01735D02*
X023642Y01719D01*
X028555Y0205D02*
X02865D01*
X028555D02*
X028845Y02021D01*
X029329Y01105D02*
X0315D01*
X026067Y01035D02*
X026682D01*
X026057Y01036D02*
X026067Y01035D01*
X045867Y01275D02*
X0476D01*
X04475Y01045D02*
X0479D01*
X01495Y0081D02*
X02465D01*
X0247Y00935D02*
X02489Y00954D01*
X02565Y01589D02*
X028613D01*
X02465Y00935D02*
X0247D01*
X034722Y01183D02*
X034742Y01181D01*
X034432Y01183D02*
X034722D01*
X034788Y01199D02*
X034808Y01197D01*
X034366Y01199D02*
X034788D01*
X034808Y01197D02*
X034976D01*
X034993Y01244D02*
X035606D01*
X034953Y0124D02*
X034993Y01244D01*
X03554Y01228D02*
X03567Y01215D01*
X035059Y01228D02*
X03554D01*
X034929Y01215D02*
X035059Y01228D01*
X0343Y01215D02*
X034929D01*
X035126Y01212D02*
X035474D01*
X034976Y01197D02*
X035126Y01212D01*
X035192Y01196D02*
X035407D01*
X035042Y01181D02*
X035192Y01196D01*
X034742Y01181D02*
X035042D01*
X033517Y01401D02*
X034657D01*
X034667Y014*
X032132Y013945D02*
X032195Y013882D01*
X033735Y014402D02*
X033737Y0144D01*
X033519Y014402D02*
X033735D01*
X033393Y014276D02*
X033519Y014402D01*
X031809Y014276D02*
X033393D01*
X031746Y014339D02*
X031809Y014276D01*
X0298Y01835D02*
X03045D01*
X045707Y01259D02*
X045867Y01275D01*
X04455Y01025D02*
X04475Y01045D01*
X044353Y01025D02*
X04455D01*
X044047D02*
X044082Y010285D01*
X044318D02*
X044353Y01025D01*
X044082Y010285D02*
X044318D01*
X018368Y013327D02*
X018615Y01308D01*
X024791Y0133D02*
X024851Y01336D01*
X02139Y01379D02*
X02154D01*
X019231Y01385D02*
X02133D01*
X02139Y01379*
X01949Y0141D02*
X021185D01*
X019245Y014345D02*
X01949Y0141D01*
X021269Y014016D02*
D01*
X021185Y0141D02*
X021269Y014016D01*
X021284Y01403D01*
X021375D02*
X021435Y01397D01*
X021284Y01403D02*
X021375D01*
X02245Y01445D02*
X02275Y01415D01*
X01965Y01445D02*
X02245D01*
X020056Y027356D02*
X0209D01*
X0276Y01835D02*
X02885D01*
X0281Y01647D02*
Y01655D01*
X0271Y01785D02*
X0276Y01835D01*
X0229Y0173D02*
X02345Y01785D01*
X0271*
X03108Y01747D02*
X03145Y0171D01*
X029877Y01731D02*
X030895Y016291D01*
X02405Y01747D02*
X03108D01*
X02663Y01731D02*
X029877D01*
X023642Y01719D02*
X02651D01*
X02663Y01731*
X0167Y0167D02*
X0172Y0162D01*
X023493*
X023507Y016214*
X023892*
X023906Y0162*
X024493*
X024507Y016214*
X024892*
X024906Y0162*
X025182*
X016766Y01686D02*
X017226Y0164D01*
X027132*
X018Y0169D02*
X026D01*
X01719Y0116D02*
X01723Y01164D01*
X013375Y015675D02*
X0139Y01515D01*
X0145Y0147D02*
D01*
X03555Y01105D02*
X03565Y01095D01*
X034727Y013095D02*
X034892Y01326D01*
X032195Y013882D02*
X03339D01*
X03612Y01358D02*
X0362D01*
X04585Y0121D02*
D01*
X04594Y01201D01*
X03406Y01621D02*
X03475Y0169D01*
Y018*
X0337Y01735D02*
Y01795D01*
X03375Y018*
X03295Y0166D02*
X0337Y01735D01*
X034667Y014D02*
X03625D01*
X03575Y01535D02*
Y0182D01*
X03625Y014D02*
X03656Y01431D01*
X033737Y0144D02*
X03605D01*
X031007Y01985D02*
X03545D01*
X03656Y01874*
Y01431D02*
Y01874D01*
X02775Y0205D02*
X0288Y01945D01*
X02975*
X02825Y0205D02*
X02885Y0199D01*
X02995*
X02915Y0207D02*
Y02095D01*
Y0207D02*
X02935Y0205D01*
X030357*
X031007Y01985*
X02975Y01945D02*
X03031Y01889D01*
X02995Y0199D02*
X0306Y01925D01*
X0347*
X03575Y0182*
X028845Y02021D02*
X03014D01*
X03085Y0195*
X03515*
X03605Y0144D02*
X03625Y0146D01*
Y0184*
X03515Y0195D02*
X03625Y0184D01*
X035733Y014866D02*
X035866D01*
X03031Y01889D02*
X034516D01*
X0354Y0152D02*
X035733Y014866D01*
X0354Y0152D02*
Y018006D01*
X034516Y01889D02*
X0354Y018006D01*
X01655Y01905D02*
X01674Y01924D01*
Y019247*
X017173Y0175D02*
X018043Y01663D01*
X01674Y019247D02*
X01711Y019617D01*
Y02441D02*
X020056Y027356D01*
X01721Y026366D02*
X021Y030156D01*
X01711Y019617D02*
Y02441D01*
X01405Y0194D02*
X01595Y0175D01*
X017173*
X01405Y0194D02*
Y02755D01*
X01165Y0299D02*
Y02995D01*
X01405Y02755*
X0106Y01955D02*
Y02295D01*
Y01955D02*
X01329Y01686D01*
X016766*
X0096Y01915D02*
Y02295D01*
Y01915D02*
X01205Y0167D01*
X0167*
X01615Y01875D02*
X018Y0169D01*
X01615Y01875D02*
Y02625D01*
X034765Y010665D02*
X046515D01*
X035682Y01259D02*
X045707D01*
X035646Y0124D02*
X0483D01*
X035624Y01197D02*
X037199D01*
X037209Y01198*
X03769*
X0377Y01197*
X035967Y0116D02*
X0389D01*
X03895Y01155*
X0433*
X039905Y024744D02*
X04535Y0193D01*
X038255Y024744D02*
X039905D01*
X03825Y02475D02*
X038255Y024744D01*
X03812Y0248D02*
X03817Y02475D01*
X03825*
X03965Y0254D02*
X04595Y0191D01*
X03295Y0254D02*
X03965D01*
X0145Y0081D02*
X01514Y00746D01*
X0145Y0081D02*
Y01275D01*
X0133Y01395D02*
X0145Y01275D01*
X03754Y01324D02*
X0376Y0133D01*
G54D56*
X0165Y0119D02*
X025089D01*
X025194Y011795*
X01645Y01185D02*
X0165Y0119D01*
G54D58*
X0227Y001D02*
Y001499D01*
X022366Y001*
Y001499*
X0222D02*
Y001083D01*
X022116Y001*
X02195*
X021866Y001083*
Y001499*
X0212Y001D02*
Y001333D01*
X021033Y001499*
X020867Y001333*
Y001*
Y001249*
X0212*
X0207Y001499D02*
X020534D01*
X020617*
Y001*
X0207*
X020534*
X020284D02*
Y001333D01*
X020117Y001499*
X01995Y001333*
Y001*
Y001249*
X020284*
X019784Y001D02*
Y001333D01*
X019617Y001499*
X019451Y001333*
Y001*
Y001249*
X019784*
G54D75*
X00185Y0088D03*
Y0108D03*
X00385D03*
Y0088D03*
X00285Y0098D03*
X0033Y02375D03*
X0053D03*
Y02175D03*
X0033D03*
X0043Y02275D03*
X00185Y01625D03*
X00385D03*
Y01425D03*
X00185D03*
X00285Y01525D03*
G54D76*
X0524Y0303D03*
X0514D03*
X01925Y02485D03*
X01825D03*
X01875Y03025D03*
Y02925D03*
X00765Y00155D03*
X00665D03*
X04265Y0259D03*
X04165D03*
X0378Y00205D03*
X0368D03*
X02915Y00425D03*
X03015D03*
X03115D03*
Y00525D03*
X03015D03*
X02915D03*
X0237Y01575D03*
X0247D03*
X03475Y018D03*
X03375D03*
X0116Y02295D03*
X0106D03*
X0096D03*
X0086D03*
X0593Y018045D03*
Y016667D03*
Y015289D03*
Y013911D03*
Y012533D03*
Y011155D03*
Y0084D03*
Y009778D03*
G54D77*
X008Y01215D03*
X0072Y0161D03*
G54D78*
X028Y01075D03*
X02375Y0114D03*
X0238Y01275D03*
X02525Y01185D03*
X02631Y01876D03*
X02767Y01413D03*
X0277Y013372D03*
X01935Y0125D03*
X02755Y01275D03*
X0258Y01285D03*
X026187Y011583D03*
X01645Y01185D03*
X01685Y0116D03*
X01723Y01125D03*
X02195Y01095D03*
X0203Y0109D03*
X02255Y0111D03*
X027296Y012174D03*
X028Y0122D03*
X0242Y0128D03*
X01815Y01285D03*
X018227Y013327D03*
X017718Y012818D03*
X018621Y013456D03*
X0162Y02775D03*
X0463Y01165D03*
X04665Y01005D03*
X04733Y01105D03*
X0284Y018D03*
X0315Y0226D03*
X03345Y01275D03*
X02903Y00906D03*
X0307Y015D03*
X02837Y014893D03*
X031289Y014572D03*
X02765Y0164D03*
X02565Y01585D03*
X02589Y00674D03*
X02593Y00748D03*
X0245Y00525D03*
X02555Y0137D03*
X02317Y01497D03*
X0253Y01505D03*
X02355Y01425D03*
X02445Y01395D03*
X0195Y01465D03*
X019116Y013965D03*
X0261Y0124D03*
X0281Y0144D03*
X02855Y01185D03*
X03155Y0086D03*
X032076Y008851D03*
X0442Y0093D03*
X0339Y0135D03*
X0317Y012D03*
X035Y01295D03*
X03335Y01125D03*
X0359Y0113D03*
X033241Y012174D03*
X0339Y01245D03*
X03615Y013662D03*
X02165Y01295D03*
X018736Y013836D03*
X0242Y0105D03*
X0259Y01005D03*
X02895Y01055D03*
X0275Y01075D03*
X01315Y0126D03*
X011346Y01303D03*
X01205Y01365D03*
Y01425D03*
X0116Y0148D03*
X01005Y0154D03*
X0099Y0116D03*
X008396Y014622D03*
X011616Y006583D03*
X01235Y0063D03*
X0317Y01275D03*
X019Y00535D03*
X01905Y0105D03*
X01945Y00585D03*
X0194Y01D03*
X03145Y01355D03*
X032132Y013158D03*
X03555Y01105D03*
X025529Y0071D03*
X03295Y0248D03*
X01525Y0068D03*
X0156Y00775D03*
X0149Y00825D03*
X01455Y0071D03*
X0208Y0056D03*
X033785Y00675D03*
X03175Y00915D03*
X0334Y01005D03*
X03345Y010544D03*
X0379Y01775D03*
X05135Y00315D03*
X0507D03*
X04955Y00375D03*
Y00445D03*
X05045Y00465D03*
X0514D03*
X0501Y0086D03*
X0495Y0092D03*
Y01005D03*
X0504Y01045D03*
X0514D03*
X0493Y01585D03*
X05135Y0163D03*
X05045Y01625D03*
X05135Y0215D03*
X0505Y02145D03*
X0495Y0202D03*
Y02105D03*
X05065Y01965D03*
X0515Y0197D03*
X0589Y02425D03*
X0583D03*
X05595D03*
X0566D03*
X0575Y0256D03*
Y02485D03*
Y0293D03*
Y02845D03*
X05595Y02995D03*
X0566D03*
X0583D03*
X05895D03*
X05765Y01945D03*
Y02065D03*
X04635Y0195D03*
Y02045D03*
X02444Y02037D03*
X0102Y0057D03*
X027352Y008851D03*
X01315Y004D03*
X028336Y010346D03*
X0251Y0078D03*
Y0092D03*
X02195Y0174D03*
X0229Y0173D03*
X02245Y0179D03*
X02325Y00645D03*
X0214Y0061D03*
X023482Y01735D03*
X02965Y01885D03*
X02865Y0205D03*
X02825D03*
X02785Y01895D03*
X0315Y01105D03*
X009216Y006187D03*
X008266Y007787D03*
X008316Y008387D03*
X008966Y009087D03*
X011116Y007837D03*
X010766Y008087D03*
Y007637D03*
X009916Y006937D03*
X0476Y01275D03*
X0479Y01045D03*
X0483Y0124D03*
Y0089D03*
X0448Y0096D03*
X02735Y0056D03*
X021Y030156D03*
X0209Y027356D03*
X0287Y0075D03*
X03055Y01795D03*
X02465Y0081D03*
Y00935D03*
X02775Y0205D03*
X032132Y013945D03*
X031746Y014339D03*
X0298Y01835D03*
X03045D03*
X02975Y0166D03*
X0307Y0131D03*
X02415Y01455D03*
X0275Y01485D03*
X02273Y027324D03*
X03145Y0171D03*
X030895Y016291D03*
X04375Y0118D03*
X04665Y0223D03*
X02932Y015182D03*
X04645Y02995D03*
X0434Y01525D03*
X035343Y02265D03*
X00635Y0306D03*
X0098Y02555D03*
X01075Y02905D03*
X01405Y001464D03*
X00925Y0036D03*
X0125Y00305D03*
X01255Y00205D03*
X034935Y0082D03*
X034943Y022137D03*
X03295Y020131D03*
X0312Y020281D03*
X0335Y020331D03*
X030835Y0307D03*
X032735Y027D03*
X036443Y021737D03*
X038314Y02895D03*
X02251Y019558D03*
X02026Y022608D03*
X02875Y01495D03*
X03195Y0147D03*
X0307Y01055D03*
X0306Y0076D03*
X03495Y01495D03*
Y011D03*
X02375Y0214D03*
X01811Y019508D03*
X035993Y019987D03*
X02635Y02195D03*
X02524Y02311D03*
X030435Y02885D03*
X02027Y019048D03*
X01766Y021058D03*
X02146Y019508D03*
X03195Y0108D03*
X0253Y01005D03*
X031Y0169D03*
X03385Y01545D03*
X02815Y00865D03*
X040414Y02875D03*
X041414Y02815D03*
X033743Y021143D03*
X032735Y0288D03*
X038714Y0271D03*
X037864Y0278D03*
X0269Y0231D03*
X0482Y0292D03*
X04765Y02455D03*
X0467Y0285D03*
X041575Y003D03*
X040375Y00845D03*
X040575Y007D03*
X041875Y00835D03*
X042125Y0077D03*
X042875Y0035D03*
X049Y025D03*
X04565Y027445D03*
X039675Y0061D03*
X0224Y02535D03*
X019627Y025788D03*
X02148Y025324D03*
X021559Y02805D03*
X022226Y029268D03*
X02208Y026424D03*
X022209Y0282D03*
X022809Y0301D03*
X0464Y02115D03*
X029714Y014796D03*
X031486Y010346D03*
X029517Y010732D03*
X032132Y01237D03*
X031879Y010346D03*
X0481Y0298D03*
X02405Y0175D03*
X04615Y00095D03*
X04675D03*
X0281Y0128D03*
X027296Y013748D03*
X019245Y014345D03*
X01655Y01905D03*
X0167Y02055D03*
X0272Y01685D03*
X0281Y01655D03*
X028Y017D03*
X026Y0169D03*
X01615Y02625D03*
X016Y0124D03*
X01325Y0158D03*
X0145Y0147D03*
X0433Y01155D03*
X04695Y012D03*
X03575Y01535D03*
X02915Y02095D03*
X0358Y01475D03*
X01165Y0299D03*
X01845Y0285D03*
X01655Y025D03*
X01695Y02515D03*
X04515Y01165D03*
X04575Y01115D03*
X04535Y0193D03*
X04595Y0191D03*
X03295Y0254D03*
X0092Y01325D03*
X01335Y0103D03*
X01415Y0086D03*
X04115Y0139D03*
X0421Y0193D03*
X006745Y029628D03*
X006732Y029228D03*
X004915Y028776D03*
X004972Y02838D03*
Y02798D03*
X00504Y027586D03*
X005039Y027186D03*
X004972Y026791D03*
Y026391D03*
Y025991D03*
Y025591D03*
Y025191D03*
Y024791D03*
Y024391D03*
X005383Y022906D03*
X005371Y022507D03*
X004568Y021686D03*
X004169Y021662D03*
X003202Y022767D03*
X003627Y024675D03*
Y025075D03*
Y025475D03*
Y025875D03*
Y026275D03*
Y026675D03*
X003582Y027073D03*
X003555Y027472D03*
X003627Y028265D03*
X003648Y028665D03*
X0034Y02795D03*
X003492Y029302D03*
X003502Y029702D03*
X003696Y030052D03*
X0055Y0304D03*
X005Y03045D03*
X00455Y0305D03*
X00395Y03045D03*
X002908Y016344D03*
X004814Y015922D03*
X005214D03*
X005614D03*
X006014D03*
X006413Y015895D03*
X006808Y015957D03*
X007604Y015922D03*
X008004Y015921D03*
X008404Y015922D03*
X008801Y015873D03*
X009119Y015631D03*
X009402Y015348D03*
X007675Y014584D03*
X007279Y014524D03*
X006879Y014528D03*
X006484Y014588D03*
X006084Y014577D03*
X005684D03*
X005284D03*
X004884D03*
X004484D03*
X002995Y014164D03*
X002596Y014181D03*
X001783Y014991D03*
X001764Y015391D03*
X008786Y013477D03*
X008386D03*
X008019Y013318D03*
X007822Y01297D03*
X007821Y01257D03*
X007862Y011774D03*
X0078Y011379D03*
X007822Y01098D03*
X00781Y01058D03*
X007626Y010225D03*
X007343Y009942D03*
X00706Y009659D03*
X006778Y009376D03*
X006442Y009158D03*
X006043Y009127D03*
X005643D03*
X005243D03*
X004843D03*
X002942Y008707D03*
X001772Y009594D03*
X001771Y009994D03*
X002931Y010893D03*
X004834Y010472D03*
X005234D03*
X005634D03*
X006029Y010531D03*
X006312Y010813D03*
X006479Y011177D03*
X006477Y011577D03*
X006421Y011973D03*
X006451Y012372D03*
X006503Y012768D03*
X006477Y013168D03*
X006501Y013567D03*
X006708Y013909D03*
X00955Y01285D03*
X00945Y0123D03*
X0095Y01185D03*
X01155Y01175D03*
Y0113D03*
X01165Y00925D03*
X010065Y009663D03*
X010078Y010063D03*
X010068Y010463D03*
X010105Y010861D03*
X010077Y01126D03*
X012Y0112D03*
X01255Y01115D03*
X01265Y01075D03*
Y0103D03*
X0125Y0099D03*
X00535Y02865D03*
X03845Y01295D03*
X0376Y0133D03*
X0245Y00255D03*
X01845Y0046D03*
X0192Y0035D03*
X028Y00285D03*
G54D89*
X0465Y001699D03*
Y0041D03*
G54D90*
X058559Y00631D03*
X053441D03*
X050609Y00626D03*
X045491D03*
G54D91*
X056Y020089D03*
X04805Y020039D03*
G54D92*
X057225Y01945D03*
G54D93*
X05725Y020625D03*
G54D94*
X046675Y0195D03*
G54D95*
X0467Y02045D03*
M02*