%FSTAX24Y24*%
%MOIN*%
%SFA1B1*%

%IPPOS*%
%ADD154C,0.005000*%
%ADD155C,0.006670*%
%LNkarmandb-1*%
%LPD*%
G54D154*
X00165Y0086D02*
Y009D01*
X00205*
Y0086*
X00165*
Y0106D02*
Y011D01*
X00205*
Y0106*
X00165*
X00365D02*
Y011D01*
X00405*
Y0106*
X00365*
Y0086D02*
Y009D01*
X00405*
Y0086*
X00365*
X00265Y0096D02*
Y01D01*
X00305*
Y0096*
X00265*
X0031Y02355D02*
Y02395D01*
X0035*
Y02355*
X0031*
X0051D02*
Y02395D01*
X0055*
Y02355*
X0051*
Y02155D02*
Y02195D01*
X0055*
Y02155*
X0051*
X0031D02*
Y02195D01*
X0035*
Y02155*
X0031*
X0041Y02255D02*
Y02295D01*
X0045*
Y02255*
X0041*
X00165Y01605D02*
Y01645D01*
X00205*
Y01605*
X00165*
X00365D02*
Y01645D01*
X00405*
Y01605*
X00365*
Y01405D02*
Y01445D01*
X00405*
Y01405*
X00365*
X00165D02*
Y01445D01*
X00205*
Y01405*
X00165*
X00265Y01505D02*
Y01545D01*
X00305*
Y01505*
X00265*
X0593Y017845D02*
X0591Y018245D01*
X0595*
X0593Y017845*
Y016467D02*
X0591Y016867D01*
X0595*
X0593Y016467*
Y015089D02*
X0591Y015489D01*
X0595*
X0593Y015089*
Y013711D02*
X0591Y014111D01*
X0595*
X0593Y013711*
Y012333D02*
X0591Y012733D01*
X0595*
X0593Y012333*
Y010955D02*
X0591Y011355D01*
X0595*
X0593Y010955*
Y0082D02*
X0591Y0086D01*
X0595*
X0593Y0082*
Y009578D02*
X0591Y009978D01*
X0595*
X0593Y009578*
X056878Y02685D02*
X056978Y02695D01*
X057078*
X056978Y02705*
X057078Y02715*
X056978*
X056878Y02725*
X056778Y02715*
X056678*
X056778Y02705*
X056678Y02695*
X056778*
X056878Y02685*
X05845D02*
X05855Y02705D01*
X05845Y02725*
X05865Y02715*
X05885Y02725*
X05875Y02705*
X05885Y02685*
X05865Y02695*
X05845Y02685*
X0594Y0014D02*
Y0013D01*
X0596*
Y0014*
X0597*
Y0016*
X0596*
Y0017*
X0594*
Y0016*
X0593*
Y0014*
X0594*
Y0309D02*
Y0308D01*
X0596*
Y0309*
X0597*
Y0311*
X0596*
Y0312*
X0594*
Y0311*
X0593*
Y0309*
X0594*
X0014D02*
Y0308D01*
X0016*
Y0309*
X0017*
Y0311*
X0016*
Y0312*
X0014*
Y0311*
X0013*
Y0309*
X0014*
Y0014D02*
Y0013D01*
X0016*
Y0014*
X0017*
Y0016*
X0016*
Y0017*
X0014*
Y0016*
X0013*
Y0014*
X0014*
X0078Y01195D02*
X0079D01*
X008Y01205*
X0081Y01195*
X0082*
Y01205*
X0081Y01215*
X0082Y01225*
Y01235*
X0081*
X008Y01225*
X0079Y01235*
X0078*
Y01225*
X0079Y01215*
X0078Y01205*
Y01195*
X007Y0159D02*
X0071D01*
X0072Y016*
X0073Y0159*
X0074*
Y016*
X0073Y0161*
X0074Y0162*
Y0163*
X0073*
X0072Y0162*
X0071Y0163*
X007*
Y0162*
X0071Y0161*
X007Y016*
Y0159*
X0278Y01055D02*
X0279D01*
X028Y01065*
X0281Y01055*
X0282*
Y01065*
X0281Y01075*
X0282Y01085*
Y01095*
X0281*
X028Y01085*
X0279Y01095*
X0278*
Y01085*
X0279Y01075*
X0278Y01065*
Y01055*
X02355Y0112D02*
X02365D01*
X02375Y0113*
X02385Y0112*
X02395*
Y0113*
X02385Y0114*
X02395Y0115*
Y0116*
X02385*
X02375Y0115*
X02365Y0116*
X02355*
Y0115*
X02365Y0114*
X02355Y0113*
Y0112*
X0236Y01255D02*
X0237D01*
X0238Y01265*
X0239Y01255*
X024*
Y01265*
X0239Y01275*
X024Y01285*
Y01295*
X0239*
X0238Y01285*
X0237Y01295*
X0236*
Y01285*
X0237Y01275*
X0236Y01265*
Y01255*
X02505Y01165D02*
X02515D01*
X02525Y01175*
X02535Y01165*
X02545*
Y01175*
X02535Y01185*
X02545Y01195*
Y01205*
X02535*
X02525Y01195*
X02515Y01205*
X02505*
Y01195*
X02515Y01185*
X02505Y01175*
Y01165*
X02611Y01856D02*
X02621D01*
X02631Y01866*
X02641Y01856*
X02651*
Y01866*
X02641Y01876*
X02651Y01886*
Y01896*
X02641*
X02631Y01886*
X02621Y01896*
X02611*
Y01886*
X02621Y01876*
X02611Y01866*
Y01856*
X02747Y01393D02*
X02757D01*
X02767Y01403*
X02777Y01393*
X02787*
Y01403*
X02777Y01413*
X02787Y01423*
Y01433*
X02777*
X02767Y01423*
X02757Y01433*
X02747*
Y01423*
X02757Y01413*
X02747Y01403*
Y01393*
X0275Y013172D02*
X0276D01*
X0277Y013272*
X0278Y013172*
X0279*
Y013272*
X0278Y013372*
X0279Y013472*
Y013572*
X0278*
X0277Y013472*
X0276Y013572*
X0275*
Y013472*
X0276Y013372*
X0275Y013272*
Y013172*
X01915Y0123D02*
X01925D01*
X01935Y0124*
X01945Y0123*
X01955*
Y0124*
X01945Y0125*
X01955Y0126*
Y0127*
X01945*
X01935Y0126*
X01925Y0127*
X01915*
Y0126*
X01925Y0125*
X01915Y0124*
Y0123*
X02735Y01255D02*
X02745D01*
X02755Y01265*
X02765Y01255*
X02775*
Y01265*
X02765Y01275*
X02775Y01285*
Y01295*
X02765*
X02755Y01285*
X02745Y01295*
X02735*
Y01285*
X02745Y01275*
X02735Y01265*
Y01255*
X0256Y01265D02*
X0257D01*
X0258Y01275*
X0259Y01265*
X026*
Y01275*
X0259Y01285*
X026Y01295*
Y01305*
X0259*
X0258Y01295*
X0257Y01305*
X0256*
Y01295*
X0257Y01285*
X0256Y01275*
Y01265*
X025987Y011383D02*
X026087D01*
X026187Y011483*
X026287Y011383*
X026387*
Y011483*
X026287Y011583*
X026387Y011683*
Y011783*
X026287*
X026187Y011683*
X026087Y011783*
X025987*
Y011683*
X026087Y011583*
X025987Y011483*
Y011383*
X01625Y01165D02*
X01635D01*
X01645Y01175*
X01655Y01165*
X01665*
Y01175*
X01655Y01185*
X01665Y01195*
Y01205*
X01655*
X01645Y01195*
X01635Y01205*
X01625*
Y01195*
X01635Y01185*
X01625Y01175*
Y01165*
X01665Y0114D02*
X01675D01*
X01685Y0115*
X01695Y0114*
X01705*
Y0115*
X01695Y0116*
X01705Y0117*
Y0118*
X01695*
X01685Y0117*
X01675Y0118*
X01665*
Y0117*
X01675Y0116*
X01665Y0115*
Y0114*
X01703Y01105D02*
X01713D01*
X01723Y01115*
X01733Y01105*
X01743*
Y01115*
X01733Y01125*
X01743Y01135*
Y01145*
X01733*
X01723Y01135*
X01713Y01145*
X01703*
Y01135*
X01713Y01125*
X01703Y01115*
Y01105*
X02175Y01075D02*
X02185D01*
X02195Y01085*
X02205Y01075*
X02215*
Y01085*
X02205Y01095*
X02215Y01105*
Y01115*
X02205*
X02195Y01105*
X02185Y01115*
X02175*
Y01105*
X02185Y01095*
X02175Y01085*
Y01075*
X0201Y0107D02*
X0202D01*
X0203Y0108*
X0204Y0107*
X0205*
Y0108*
X0204Y0109*
X0205Y011*
Y0111*
X0204*
X0203Y011*
X0202Y0111*
X0201*
Y011*
X0202Y0109*
X0201Y0108*
Y0107*
X02235Y0109D02*
X02245D01*
X02255Y011*
X02265Y0109*
X02275*
Y011*
X02265Y0111*
X02275Y0112*
Y0113*
X02265*
X02255Y0112*
X02245Y0113*
X02235*
Y0112*
X02245Y0111*
X02235Y011*
Y0109*
X027096Y011974D02*
X027196D01*
X027296Y012074*
X027396Y011974*
X027496*
Y012074*
X027396Y012174*
X027496Y012274*
Y012374*
X027396*
X027296Y012274*
X027196Y012374*
X027096*
Y012274*
X027196Y012174*
X027096Y012074*
Y011974*
X0278Y012D02*
X0279D01*
X028Y0121*
X0281Y012*
X0282*
Y0121*
X0281Y0122*
X0282Y0123*
Y0124*
X0281*
X028Y0123*
X0279Y0124*
X0278*
Y0123*
X0279Y0122*
X0278Y0121*
Y012*
X024Y0126D02*
X0241D01*
X0242Y0127*
X0243Y0126*
X0244*
Y0127*
X0243Y0128*
X0244Y0129*
Y013*
X0243*
X0242Y0129*
X0241Y013*
X024*
Y0129*
X0241Y0128*
X024Y0127*
Y0126*
X01795Y01265D02*
X01805D01*
X01815Y01275*
X01825Y01265*
X01835*
Y01275*
X01825Y01285*
X01835Y01295*
Y01305*
X01825*
X01815Y01295*
X01805Y01305*
X01795*
Y01295*
X01805Y01285*
X01795Y01275*
Y01265*
X018027Y013127D02*
X018127D01*
X018227Y013227*
X018327Y013127*
X018427*
Y013227*
X018327Y013327*
X018427Y013427*
Y013527*
X018327*
X018227Y013427*
X018127Y013527*
X018027*
Y013427*
X018127Y013327*
X018027Y013227*
Y013127*
X017518Y012618D02*
X017618D01*
X017718Y012718*
X017818Y012618*
X017918*
Y012718*
X017818Y012818*
X017918Y012918*
Y013018*
X017818*
X017718Y012918*
X017618Y013018*
X017518*
Y012918*
X017618Y012818*
X017518Y012718*
Y012618*
X018421Y013256D02*
X018521D01*
X018621Y013356*
X018721Y013256*
X018821*
Y013356*
X018721Y013456*
X018821Y013556*
Y013656*
X018721*
X018621Y013556*
X018521Y013656*
X018421*
Y013556*
X018521Y013456*
X018421Y013356*
Y013256*
X016Y02755D02*
X0161D01*
X0162Y02765*
X0163Y02755*
X0164*
Y02765*
X0163Y02775*
X0164Y02785*
Y02795*
X0163*
X0162Y02785*
X0161Y02795*
X016*
Y02785*
X0161Y02775*
X016Y02765*
Y02755*
X0461Y01145D02*
X0462D01*
X0463Y01155*
X0464Y01145*
X0465*
Y01155*
X0464Y01165*
X0465Y01175*
Y01185*
X0464*
X0463Y01175*
X0462Y01185*
X0461*
Y01175*
X0462Y01165*
X0461Y01155*
Y01145*
X04645Y00985D02*
X04655D01*
X04665Y00995*
X04675Y00985*
X04685*
Y00995*
X04675Y01005*
X04685Y01015*
Y01025*
X04675*
X04665Y01015*
X04655Y01025*
X04645*
Y01015*
X04655Y01005*
X04645Y00995*
Y00985*
X04713Y01085D02*
X04723D01*
X04733Y01095*
X04743Y01085*
X04753*
Y01095*
X04743Y01105*
X04753Y01115*
Y01125*
X04743*
X04733Y01115*
X04723Y01125*
X04713*
Y01115*
X04723Y01105*
X04713Y01095*
Y01085*
X0282Y0178D02*
X0283D01*
X0284Y0179*
X0285Y0178*
X0286*
Y0179*
X0285Y018*
X0286Y0181*
Y0182*
X0285*
X0284Y0181*
X0283Y0182*
X0282*
Y0181*
X0283Y018*
X0282Y0179*
Y0178*
X0313Y0224D02*
X0314D01*
X0315Y0225*
X0316Y0224*
X0317*
Y0225*
X0316Y0226*
X0317Y0227*
Y0228*
X0316*
X0315Y0227*
X0314Y0228*
X0313*
Y0227*
X0314Y0226*
X0313Y0225*
Y0224*
X03325Y01255D02*
X03335D01*
X03345Y01265*
X03355Y01255*
X03365*
Y01265*
X03355Y01275*
X03365Y01285*
Y01295*
X03355*
X03345Y01285*
X03335Y01295*
X03325*
Y01285*
X03335Y01275*
X03325Y01265*
Y01255*
X02883Y00886D02*
X02893D01*
X02903Y00896*
X02913Y00886*
X02923*
Y00896*
X02913Y00906*
X02923Y00916*
Y00926*
X02913*
X02903Y00916*
X02893Y00926*
X02883*
Y00916*
X02893Y00906*
X02883Y00896*
Y00886*
X0305Y0148D02*
X0306D01*
X0307Y0149*
X0308Y0148*
X0309*
Y0149*
X0308Y015*
X0309Y0151*
Y0152*
X0308*
X0307Y0151*
X0306Y0152*
X0305*
Y0151*
X0306Y015*
X0305Y0149*
Y0148*
X02817Y014693D02*
X02827D01*
X02837Y014793*
X02847Y014693*
X02857*
Y014793*
X02847Y014893*
X02857Y014993*
Y015093*
X02847*
X02837Y014993*
X02827Y015093*
X02817*
Y014993*
X02827Y014893*
X02817Y014793*
Y014693*
X031089Y014372D02*
X031189D01*
X031289Y014472*
X031389Y014372*
X031489*
Y014472*
X031389Y014572*
X031489Y014672*
Y014772*
X031389*
X031289Y014672*
X031189Y014772*
X031089*
Y014672*
X031189Y014572*
X031089Y014472*
Y014372*
X02745Y0162D02*
X02755D01*
X02765Y0163*
X02775Y0162*
X02785*
Y0163*
X02775Y0164*
X02785Y0165*
Y0166*
X02775*
X02765Y0165*
X02755Y0166*
X02745*
Y0165*
X02755Y0164*
X02745Y0163*
Y0162*
X02545Y01565D02*
X02555D01*
X02565Y01575*
X02575Y01565*
X02585*
Y01575*
X02575Y01585*
X02585Y01595*
Y01605*
X02575*
X02565Y01595*
X02555Y01605*
X02545*
Y01595*
X02555Y01585*
X02545Y01575*
Y01565*
X02569Y00654D02*
X02579D01*
X02589Y00664*
X02599Y00654*
X02609*
Y00664*
X02599Y00674*
X02609Y00684*
Y00694*
X02599*
X02589Y00684*
X02579Y00694*
X02569*
Y00684*
X02579Y00674*
X02569Y00664*
Y00654*
X02573Y00728D02*
X02583D01*
X02593Y00738*
X02603Y00728*
X02613*
Y00738*
X02603Y00748*
X02613Y00758*
Y00768*
X02603*
X02593Y00758*
X02583Y00768*
X02573*
Y00758*
X02583Y00748*
X02573Y00738*
Y00728*
X0243Y00505D02*
X0244D01*
X0245Y00515*
X0246Y00505*
X0247*
Y00515*
X0246Y00525*
X0247Y00535*
Y00545*
X0246*
X0245Y00535*
X0244Y00545*
X0243*
Y00535*
X0244Y00525*
X0243Y00515*
Y00505*
X02535Y0135D02*
X02545D01*
X02555Y0136*
X02565Y0135*
X02575*
Y0136*
X02565Y0137*
X02575Y0138*
Y0139*
X02565*
X02555Y0138*
X02545Y0139*
X02535*
Y0138*
X02545Y0137*
X02535Y0136*
Y0135*
X02297Y01477D02*
X02307D01*
X02317Y01487*
X02327Y01477*
X02337*
Y01487*
X02327Y01497*
X02337Y01507*
Y01517*
X02327*
X02317Y01507*
X02307Y01517*
X02297*
Y01507*
X02307Y01497*
X02297Y01487*
Y01477*
X0251Y01485D02*
X0252D01*
X0253Y01495*
X0254Y01485*
X0255*
Y01495*
X0254Y01505*
X0255Y01515*
Y01525*
X0254*
X0253Y01515*
X0252Y01525*
X0251*
Y01515*
X0252Y01505*
X0251Y01495*
Y01485*
X02335Y01405D02*
X02345D01*
X02355Y01415*
X02365Y01405*
X02375*
Y01415*
X02365Y01425*
X02375Y01435*
Y01445*
X02365*
X02355Y01435*
X02345Y01445*
X02335*
Y01435*
X02345Y01425*
X02335Y01415*
Y01405*
X02425Y01375D02*
X02435D01*
X02445Y01385*
X02455Y01375*
X02465*
Y01385*
X02455Y01395*
X02465Y01405*
Y01415*
X02455*
X02445Y01405*
X02435Y01415*
X02425*
Y01405*
X02435Y01395*
X02425Y01385*
Y01375*
X0193Y01445D02*
X0194D01*
X0195Y01455*
X0196Y01445*
X0197*
Y01455*
X0196Y01465*
X0197Y01475*
Y01485*
X0196*
X0195Y01475*
X0194Y01485*
X0193*
Y01475*
X0194Y01465*
X0193Y01455*
Y01445*
X018916Y013765D02*
X019016D01*
X019116Y013865*
X019216Y013765*
X019316*
Y013865*
X019216Y013965*
X019316Y014065*
Y014165*
X019216*
X019116Y014065*
X019016Y014165*
X018916*
Y014065*
X019016Y013965*
X018916Y013865*
Y013765*
X0259Y0122D02*
X026D01*
X0261Y0123*
X0262Y0122*
X0263*
Y0123*
X0262Y0124*
X0263Y0125*
Y0126*
X0262*
X0261Y0125*
X026Y0126*
X0259*
Y0125*
X026Y0124*
X0259Y0123*
Y0122*
X0279Y0142D02*
X028D01*
X0281Y0143*
X0282Y0142*
X0283*
Y0143*
X0282Y0144*
X0283Y0145*
Y0146*
X0282*
X0281Y0145*
X028Y0146*
X0279*
Y0145*
X028Y0144*
X0279Y0143*
Y0142*
X02835Y01165D02*
X02845D01*
X02855Y01175*
X02865Y01165*
X02875*
Y01175*
X02865Y01185*
X02875Y01195*
Y01205*
X02865*
X02855Y01195*
X02845Y01205*
X02835*
Y01195*
X02845Y01185*
X02835Y01175*
Y01165*
X03135Y0084D02*
X03145D01*
X03155Y0085*
X03165Y0084*
X03175*
Y0085*
X03165Y0086*
X03175Y0087*
Y0088*
X03165*
X03155Y0087*
X03145Y0088*
X03135*
Y0087*
X03145Y0086*
X03135Y0085*
Y0084*
X031876Y008651D02*
X031976D01*
X032076Y008751*
X032176Y008651*
X032276*
Y008751*
X032176Y008851*
X032276Y008951*
Y009051*
X032176*
X032076Y008951*
X031976Y009051*
X031876*
Y008951*
X031976Y008851*
X031876Y008751*
Y008651*
X044Y0091D02*
X0441D01*
X0442Y0092*
X0443Y0091*
X0444*
Y0092*
X0443Y0093*
X0444Y0094*
Y0095*
X0443*
X0442Y0094*
X0441Y0095*
X044*
Y0094*
X0441Y0093*
X044Y0092*
Y0091*
X0337Y0133D02*
X0338D01*
X0339Y0134*
X034Y0133*
X0341*
Y0134*
X034Y0135*
X0341Y0136*
Y0137*
X034*
X0339Y0136*
X0338Y0137*
X0337*
Y0136*
X0338Y0135*
X0337Y0134*
Y0133*
X0315Y0118D02*
X0316D01*
X0317Y0119*
X0318Y0118*
X0319*
Y0119*
X0318Y012*
X0319Y0121*
Y0122*
X0318*
X0317Y0121*
X0316Y0122*
X0315*
Y0121*
X0316Y012*
X0315Y0119*
Y0118*
X0348Y01275D02*
X0349D01*
X035Y01285*
X0351Y01275*
X0352*
Y01285*
X0351Y01295*
X0352Y01305*
Y01315*
X0351*
X035Y01305*
X0349Y01315*
X0348*
Y01305*
X0349Y01295*
X0348Y01285*
Y01275*
X03315Y01105D02*
X03325D01*
X03335Y01115*
X03345Y01105*
X03355*
Y01115*
X03345Y01125*
X03355Y01135*
Y01145*
X03345*
X03335Y01135*
X03325Y01145*
X03315*
Y01135*
X03325Y01125*
X03315Y01115*
Y01105*
X0357Y0111D02*
X0358D01*
X0359Y0112*
X036Y0111*
X0361*
Y0112*
X036Y0113*
X0361Y0114*
Y0115*
X036*
X0359Y0114*
X0358Y0115*
X0357*
Y0114*
X0358Y0113*
X0357Y0112*
Y0111*
X033041Y011974D02*
X033141D01*
X033241Y012074*
X033341Y011974*
X033441*
Y012074*
X033341Y012174*
X033441Y012274*
Y012374*
X033341*
X033241Y012274*
X033141Y012374*
X033041*
Y012274*
X033141Y012174*
X033041Y012074*
Y011974*
X0337Y01225D02*
X0338D01*
X0339Y01235*
X034Y01225*
X0341*
Y01235*
X034Y01245*
X0341Y01255*
Y01265*
X034*
X0339Y01255*
X0338Y01265*
X0337*
Y01255*
X0338Y01245*
X0337Y01235*
Y01225*
X03595Y013462D02*
X03605D01*
X03615Y013562*
X03625Y013462*
X03635*
Y013562*
X03625Y013662*
X03635Y013762*
Y013862*
X03625*
X03615Y013762*
X03605Y013862*
X03595*
Y013762*
X03605Y013662*
X03595Y013562*
Y013462*
X02145Y01275D02*
X02155D01*
X02165Y01285*
X02175Y01275*
X02185*
Y01285*
X02175Y01295*
X02185Y01305*
Y01315*
X02175*
X02165Y01305*
X02155Y01315*
X02145*
Y01305*
X02155Y01295*
X02145Y01285*
Y01275*
X018536Y013636D02*
X018636D01*
X018736Y013736*
X018836Y013636*
X018936*
Y013736*
X018836Y013836*
X018936Y013936*
Y014036*
X018836*
X018736Y013936*
X018636Y014036*
X018536*
Y013936*
X018636Y013836*
X018536Y013736*
Y013636*
X024Y0103D02*
X0241D01*
X0242Y0104*
X0243Y0103*
X0244*
Y0104*
X0243Y0105*
X0244Y0106*
Y0107*
X0243*
X0242Y0106*
X0241Y0107*
X024*
Y0106*
X0241Y0105*
X024Y0104*
Y0103*
X0257Y00985D02*
X0258D01*
X0259Y00995*
X026Y00985*
X0261*
Y00995*
X026Y01005*
X0261Y01015*
Y01025*
X026*
X0259Y01015*
X0258Y01025*
X0257*
Y01015*
X0258Y01005*
X0257Y00995*
Y00985*
X02875Y01035D02*
X02885D01*
X02895Y01045*
X02905Y01035*
X02915*
Y01045*
X02905Y01055*
X02915Y01065*
Y01075*
X02905*
X02895Y01065*
X02885Y01075*
X02875*
Y01065*
X02885Y01055*
X02875Y01045*
Y01035*
X0273Y01055D02*
X0274D01*
X0275Y01065*
X0276Y01055*
X0277*
Y01065*
X0276Y01075*
X0277Y01085*
Y01095*
X0276*
X0275Y01085*
X0274Y01095*
X0273*
Y01085*
X0274Y01075*
X0273Y01065*
Y01055*
X01295Y0124D02*
X01305D01*
X01315Y0125*
X01325Y0124*
X01335*
Y0125*
X01325Y0126*
X01335Y0127*
Y0128*
X01325*
X01315Y0127*
X01305Y0128*
X01295*
Y0127*
X01305Y0126*
X01295Y0125*
Y0124*
X011146Y01283D02*
X011246D01*
X011346Y01293*
X011446Y01283*
X011546*
Y01293*
X011446Y01303*
X011546Y01313*
Y01323*
X011446*
X011346Y01313*
X011246Y01323*
X011146*
Y01313*
X011246Y01303*
X011146Y01293*
Y01283*
X01185Y01345D02*
X01195D01*
X01205Y01355*
X01215Y01345*
X01225*
Y01355*
X01215Y01365*
X01225Y01375*
Y01385*
X01215*
X01205Y01375*
X01195Y01385*
X01185*
Y01375*
X01195Y01365*
X01185Y01355*
Y01345*
Y01405D02*
X01195D01*
X01205Y01415*
X01215Y01405*
X01225*
Y01415*
X01215Y01425*
X01225Y01435*
Y01445*
X01215*
X01205Y01435*
X01195Y01445*
X01185*
Y01435*
X01195Y01425*
X01185Y01415*
Y01405*
X0114Y0146D02*
X0115D01*
X0116Y0147*
X0117Y0146*
X0118*
Y0147*
X0117Y0148*
X0118Y0149*
Y015*
X0117*
X0116Y0149*
X0115Y015*
X0114*
Y0149*
X0115Y0148*
X0114Y0147*
Y0146*
X00985Y0152D02*
X00995D01*
X01005Y0153*
X01015Y0152*
X01025*
Y0153*
X01015Y0154*
X01025Y0155*
Y0156*
X01015*
X01005Y0155*
X00995Y0156*
X00985*
Y0155*
X00995Y0154*
X00985Y0153*
Y0152*
X0097Y0114D02*
X0098D01*
X0099Y0115*
X01Y0114*
X0101*
Y0115*
X01Y0116*
X0101Y0117*
Y0118*
X01*
X0099Y0117*
X0098Y0118*
X0097*
Y0117*
X0098Y0116*
X0097Y0115*
Y0114*
X008196Y014422D02*
X008296D01*
X008396Y014522*
X008496Y014422*
X008596*
Y014522*
X008496Y014622*
X008596Y014722*
Y014822*
X008496*
X008396Y014722*
X008296Y014822*
X008196*
Y014722*
X008296Y014622*
X008196Y014522*
Y014422*
X011416Y006383D02*
X011516D01*
X011616Y006483*
X011716Y006383*
X011816*
Y006483*
X011716Y006583*
X011816Y006683*
Y006783*
X011716*
X011616Y006683*
X011516Y006783*
X011416*
Y006683*
X011516Y006583*
X011416Y006483*
Y006383*
X01215Y0061D02*
X01225D01*
X01235Y0062*
X01245Y0061*
X01255*
Y0062*
X01245Y0063*
X01255Y0064*
Y0065*
X01245*
X01235Y0064*
X01225Y0065*
X01215*
Y0064*
X01225Y0063*
X01215Y0062*
Y0061*
X0315Y01255D02*
X0316D01*
X0317Y01265*
X0318Y01255*
X0319*
Y01265*
X0318Y01275*
X0319Y01285*
Y01295*
X0318*
X0317Y01285*
X0316Y01295*
X0315*
Y01285*
X0316Y01275*
X0315Y01265*
Y01255*
X0188Y00515D02*
X0189D01*
X019Y00525*
X0191Y00515*
X0192*
Y00525*
X0191Y00535*
X0192Y00545*
Y00555*
X0191*
X019Y00545*
X0189Y00555*
X0188*
Y00545*
X0189Y00535*
X0188Y00525*
Y00515*
X01885Y0103D02*
X01895D01*
X01905Y0104*
X01915Y0103*
X01925*
Y0104*
X01915Y0105*
X01925Y0106*
Y0107*
X01915*
X01905Y0106*
X01895Y0107*
X01885*
Y0106*
X01895Y0105*
X01885Y0104*
Y0103*
X01925Y00565D02*
X01935D01*
X01945Y00575*
X01955Y00565*
X01965*
Y00575*
X01955Y00585*
X01965Y00595*
Y00605*
X01955*
X01945Y00595*
X01935Y00605*
X01925*
Y00595*
X01935Y00585*
X01925Y00575*
Y00565*
X0192Y0098D02*
X0193D01*
X0194Y0099*
X0195Y0098*
X0196*
Y0099*
X0195Y01*
X0196Y0101*
Y0102*
X0195*
X0194Y0101*
X0193Y0102*
X0192*
Y0101*
X0193Y01*
X0192Y0099*
Y0098*
X03125Y01335D02*
X03135D01*
X03145Y01345*
X03155Y01335*
X03165*
Y01345*
X03155Y01355*
X03165Y01365*
Y01375*
X03155*
X03145Y01365*
X03135Y01375*
X03125*
Y01365*
X03135Y01355*
X03125Y01345*
Y01335*
X031932Y012958D02*
X032032D01*
X032132Y013058*
X032232Y012958*
X032332*
Y013058*
X032232Y013158*
X032332Y013258*
Y013358*
X032232*
X032132Y013258*
X032032Y013358*
X031932*
Y013258*
X032032Y013158*
X031932Y013058*
Y012958*
X03535Y01085D02*
X03545D01*
X03555Y01095*
X03565Y01085*
X03575*
Y01095*
X03565Y01105*
X03575Y01115*
Y01125*
X03565*
X03555Y01115*
X03545Y01125*
X03535*
Y01115*
X03545Y01105*
X03535Y01095*
Y01085*
X025329Y0069D02*
X025429D01*
X025529Y007*
X025629Y0069*
X025729*
Y007*
X025629Y0071*
X025729Y0072*
Y0073*
X025629*
X025529Y0072*
X025429Y0073*
X025329*
Y0072*
X025429Y0071*
X025329Y007*
Y0069*
X03275Y0246D02*
X03285D01*
X03295Y0247*
X03305Y0246*
X03315*
Y0247*
X03305Y0248*
X03315Y0249*
Y025*
X03305*
X03295Y0249*
X03285Y025*
X03275*
Y0249*
X03285Y0248*
X03275Y0247*
Y0246*
X01505Y0066D02*
X01515D01*
X01525Y0067*
X01535Y0066*
X01545*
Y0067*
X01535Y0068*
X01545Y0069*
Y007*
X01535*
X01525Y0069*
X01515Y007*
X01505*
Y0069*
X01515Y0068*
X01505Y0067*
Y0066*
X0154Y00755D02*
X0155D01*
X0156Y00765*
X0157Y00755*
X0158*
Y00765*
X0157Y00775*
X0158Y00785*
Y00795*
X0157*
X0156Y00785*
X0155Y00795*
X0154*
Y00785*
X0155Y00775*
X0154Y00765*
Y00755*
X0147Y00805D02*
X0148D01*
X0149Y00815*
X015Y00805*
X0151*
Y00815*
X015Y00825*
X0151Y00835*
Y00845*
X015*
X0149Y00835*
X0148Y00845*
X0147*
Y00835*
X0148Y00825*
X0147Y00815*
Y00805*
X01435Y0069D02*
X01445D01*
X01455Y007*
X01465Y0069*
X01475*
Y007*
X01465Y0071*
X01475Y0072*
Y0073*
X01465*
X01455Y0072*
X01445Y0073*
X01435*
Y0072*
X01445Y0071*
X01435Y007*
Y0069*
X0206Y0054D02*
X0207D01*
X0208Y0055*
X0209Y0054*
X021*
Y0055*
X0209Y0056*
X021Y0057*
Y0058*
X0209*
X0208Y0057*
X0207Y0058*
X0206*
Y0057*
X0207Y0056*
X0206Y0055*
Y0054*
X033585Y00655D02*
X033685D01*
X033785Y00665*
X033885Y00655*
X033985*
Y00665*
X033885Y00675*
X033985Y00685*
Y00695*
X033885*
X033785Y00685*
X033685Y00695*
X033585*
Y00685*
X033685Y00675*
X033585Y00665*
Y00655*
X03155Y00895D02*
X03165D01*
X03175Y00905*
X03185Y00895*
X03195*
Y00905*
X03185Y00915*
X03195Y00925*
Y00935*
X03185*
X03175Y00925*
X03165Y00935*
X03155*
Y00925*
X03165Y00915*
X03155Y00905*
Y00895*
X0332Y00985D02*
X0333D01*
X0334Y00995*
X0335Y00985*
X0336*
Y00995*
X0335Y01005*
X0336Y01015*
Y01025*
X0335*
X0334Y01015*
X0333Y01025*
X0332*
Y01015*
X0333Y01005*
X0332Y00995*
Y00985*
X03325Y010344D02*
X03335D01*
X03345Y010444*
X03355Y010344*
X03365*
Y010444*
X03355Y010544*
X03365Y010644*
Y010744*
X03355*
X03345Y010644*
X03335Y010744*
X03325*
Y010644*
X03335Y010544*
X03325Y010444*
Y010344*
X0377Y01755D02*
X0378D01*
X0379Y01765*
X038Y01755*
X0381*
Y01765*
X038Y01775*
X0381Y01785*
Y01795*
X038*
X0379Y01785*
X0378Y01795*
X0377*
Y01785*
X0378Y01775*
X0377Y01765*
Y01755*
X05115Y00295D02*
X05125D01*
X05135Y00305*
X05145Y00295*
X05155*
Y00305*
X05145Y00315*
X05155Y00325*
Y00335*
X05145*
X05135Y00325*
X05125Y00335*
X05115*
Y00325*
X05125Y00315*
X05115Y00305*
Y00295*
X0505D02*
X0506D01*
X0507Y00305*
X0508Y00295*
X0509*
Y00305*
X0508Y00315*
X0509Y00325*
Y00335*
X0508*
X0507Y00325*
X0506Y00335*
X0505*
Y00325*
X0506Y00315*
X0505Y00305*
Y00295*
X04935Y00355D02*
X04945D01*
X04955Y00365*
X04965Y00355*
X04975*
Y00365*
X04965Y00375*
X04975Y00385*
Y00395*
X04965*
X04955Y00385*
X04945Y00395*
X04935*
Y00385*
X04945Y00375*
X04935Y00365*
Y00355*
Y00425D02*
X04945D01*
X04955Y00435*
X04965Y00425*
X04975*
Y00435*
X04965Y00445*
X04975Y00455*
Y00465*
X04965*
X04955Y00455*
X04945Y00465*
X04935*
Y00455*
X04945Y00445*
X04935Y00435*
Y00425*
X05025Y00445D02*
X05035D01*
X05045Y00455*
X05055Y00445*
X05065*
Y00455*
X05055Y00465*
X05065Y00475*
Y00485*
X05055*
X05045Y00475*
X05035Y00485*
X05025*
Y00475*
X05035Y00465*
X05025Y00455*
Y00445*
X0512D02*
X0513D01*
X0514Y00455*
X0515Y00445*
X0516*
Y00455*
X0515Y00465*
X0516Y00475*
Y00485*
X0515*
X0514Y00475*
X0513Y00485*
X0512*
Y00475*
X0513Y00465*
X0512Y00455*
Y00445*
X0499Y0084D02*
X05D01*
X0501Y0085*
X0502Y0084*
X0503*
Y0085*
X0502Y0086*
X0503Y0087*
Y0088*
X0502*
X0501Y0087*
X05Y0088*
X0499*
Y0087*
X05Y0086*
X0499Y0085*
Y0084*
X0493Y009D02*
X0494D01*
X0495Y0091*
X0496Y009*
X0497*
Y0091*
X0496Y0092*
X0497Y0093*
Y0094*
X0496*
X0495Y0093*
X0494Y0094*
X0493*
Y0093*
X0494Y0092*
X0493Y0091*
Y009*
Y00985D02*
X0494D01*
X0495Y00995*
X0496Y00985*
X0497*
Y00995*
X0496Y01005*
X0497Y01015*
Y01025*
X0496*
X0495Y01015*
X0494Y01025*
X0493*
Y01015*
X0494Y01005*
X0493Y00995*
Y00985*
X0502Y01025D02*
X0503D01*
X0504Y01035*
X0505Y01025*
X0506*
Y01035*
X0505Y01045*
X0506Y01055*
Y01065*
X0505*
X0504Y01055*
X0503Y01065*
X0502*
Y01055*
X0503Y01045*
X0502Y01035*
Y01025*
X0512D02*
X0513D01*
X0514Y01035*
X0515Y01025*
X0516*
Y01035*
X0515Y01045*
X0516Y01055*
Y01065*
X0515*
X0514Y01055*
X0513Y01065*
X0512*
Y01055*
X0513Y01045*
X0512Y01035*
Y01025*
X0491Y01565D02*
X0492D01*
X0493Y01575*
X0494Y01565*
X0495*
Y01575*
X0494Y01585*
X0495Y01595*
Y01605*
X0494*
X0493Y01595*
X0492Y01605*
X0491*
Y01595*
X0492Y01585*
X0491Y01575*
Y01565*
X05115Y0161D02*
X05125D01*
X05135Y0162*
X05145Y0161*
X05155*
Y0162*
X05145Y0163*
X05155Y0164*
Y0165*
X05145*
X05135Y0164*
X05125Y0165*
X05115*
Y0164*
X05125Y0163*
X05115Y0162*
Y0161*
X05025Y01605D02*
X05035D01*
X05045Y01615*
X05055Y01605*
X05065*
Y01615*
X05055Y01625*
X05065Y01635*
Y01645*
X05055*
X05045Y01635*
X05035Y01645*
X05025*
Y01635*
X05035Y01625*
X05025Y01615*
Y01605*
X05115Y0213D02*
X05125D01*
X05135Y0214*
X05145Y0213*
X05155*
Y0214*
X05145Y0215*
X05155Y0216*
Y0217*
X05145*
X05135Y0216*
X05125Y0217*
X05115*
Y0216*
X05125Y0215*
X05115Y0214*
Y0213*
X0503Y02125D02*
X0504D01*
X0505Y02135*
X0506Y02125*
X0507*
Y02135*
X0506Y02145*
X0507Y02155*
Y02165*
X0506*
X0505Y02155*
X0504Y02165*
X0503*
Y02155*
X0504Y02145*
X0503Y02135*
Y02125*
X0493Y02D02*
X0494D01*
X0495Y0201*
X0496Y02*
X0497*
Y0201*
X0496Y0202*
X0497Y0203*
Y0204*
X0496*
X0495Y0203*
X0494Y0204*
X0493*
Y0203*
X0494Y0202*
X0493Y0201*
Y02*
Y02085D02*
X0494D01*
X0495Y02095*
X0496Y02085*
X0497*
Y02095*
X0496Y02105*
X0497Y02115*
Y02125*
X0496*
X0495Y02115*
X0494Y02125*
X0493*
Y02115*
X0494Y02105*
X0493Y02095*
Y02085*
X05045Y01945D02*
X05055D01*
X05065Y01955*
X05075Y01945*
X05085*
Y01955*
X05075Y01965*
X05085Y01975*
Y01985*
X05075*
X05065Y01975*
X05055Y01985*
X05045*
Y01975*
X05055Y01965*
X05045Y01955*
Y01945*
X0513Y0195D02*
X0514D01*
X0515Y0196*
X0516Y0195*
X0517*
Y0196*
X0516Y0197*
X0517Y0198*
Y0199*
X0516*
X0515Y0198*
X0514Y0199*
X0513*
Y0198*
X0514Y0197*
X0513Y0196*
Y0195*
X0587Y02405D02*
X0588D01*
X0589Y02415*
X059Y02405*
X0591*
Y02415*
X059Y02425*
X0591Y02435*
Y02445*
X059*
X0589Y02435*
X0588Y02445*
X0587*
Y02435*
X0588Y02425*
X0587Y02415*
Y02405*
X0581D02*
X0582D01*
X0583Y02415*
X0584Y02405*
X0585*
Y02415*
X0584Y02425*
X0585Y02435*
Y02445*
X0584*
X0583Y02435*
X0582Y02445*
X0581*
Y02435*
X0582Y02425*
X0581Y02415*
Y02405*
X05575D02*
X05585D01*
X05595Y02415*
X05605Y02405*
X05615*
Y02415*
X05605Y02425*
X05615Y02435*
Y02445*
X05605*
X05595Y02435*
X05585Y02445*
X05575*
Y02435*
X05585Y02425*
X05575Y02415*
Y02405*
X0564D02*
X0565D01*
X0566Y02415*
X0567Y02405*
X0568*
Y02415*
X0567Y02425*
X0568Y02435*
Y02445*
X0567*
X0566Y02435*
X0565Y02445*
X0564*
Y02435*
X0565Y02425*
X0564Y02415*
Y02405*
X0573Y0254D02*
X0574D01*
X0575Y0255*
X0576Y0254*
X0577*
Y0255*
X0576Y0256*
X0577Y0257*
Y0258*
X0576*
X0575Y0257*
X0574Y0258*
X0573*
Y0257*
X0574Y0256*
X0573Y0255*
Y0254*
Y02465D02*
X0574D01*
X0575Y02475*
X0576Y02465*
X0577*
Y02475*
X0576Y02485*
X0577Y02495*
Y02505*
X0576*
X0575Y02495*
X0574Y02505*
X0573*
Y02495*
X0574Y02485*
X0573Y02475*
Y02465*
Y0291D02*
X0574D01*
X0575Y0292*
X0576Y0291*
X0577*
Y0292*
X0576Y0293*
X0577Y0294*
Y0295*
X0576*
X0575Y0294*
X0574Y0295*
X0573*
Y0294*
X0574Y0293*
X0573Y0292*
Y0291*
Y02825D02*
X0574D01*
X0575Y02835*
X0576Y02825*
X0577*
Y02835*
X0576Y02845*
X0577Y02855*
Y02865*
X0576*
X0575Y02855*
X0574Y02865*
X0573*
Y02855*
X0574Y02845*
X0573Y02835*
Y02825*
X05575Y02975D02*
X05585D01*
X05595Y02985*
X05605Y02975*
X05615*
Y02985*
X05605Y02995*
X05615Y03005*
Y03015*
X05605*
X05595Y03005*
X05585Y03015*
X05575*
Y03005*
X05585Y02995*
X05575Y02985*
Y02975*
X0564D02*
X0565D01*
X0566Y02985*
X0567Y02975*
X0568*
Y02985*
X0567Y02995*
X0568Y03005*
Y03015*
X0567*
X0566Y03005*
X0565Y03015*
X0564*
Y03005*
X0565Y02995*
X0564Y02985*
Y02975*
X0581D02*
X0582D01*
X0583Y02985*
X0584Y02975*
X0585*
Y02985*
X0584Y02995*
X0585Y03005*
Y03015*
X0584*
X0583Y03005*
X0582Y03015*
X0581*
Y03005*
X0582Y02995*
X0581Y02985*
Y02975*
X05875D02*
X05885D01*
X05895Y02985*
X05905Y02975*
X05915*
Y02985*
X05905Y02995*
X05915Y03005*
Y03015*
X05905*
X05895Y03005*
X05885Y03015*
X05875*
Y03005*
X05885Y02995*
X05875Y02985*
Y02975*
X05745Y01925D02*
X05755D01*
X05765Y01935*
X05775Y01925*
X05785*
Y01935*
X05775Y01945*
X05785Y01955*
Y01965*
X05775*
X05765Y01955*
X05755Y01965*
X05745*
Y01955*
X05755Y01945*
X05745Y01935*
Y01925*
Y02045D02*
X05755D01*
X05765Y02055*
X05775Y02045*
X05785*
Y02055*
X05775Y02065*
X05785Y02075*
Y02085*
X05775*
X05765Y02075*
X05755Y02085*
X05745*
Y02075*
X05755Y02065*
X05745Y02055*
Y02045*
X04615Y0193D02*
X04625D01*
X04635Y0194*
X04645Y0193*
X04655*
Y0194*
X04645Y0195*
X04655Y0196*
Y0197*
X04645*
X04635Y0196*
X04625Y0197*
X04615*
Y0196*
X04625Y0195*
X04615Y0194*
Y0193*
Y02025D02*
X04625D01*
X04635Y02035*
X04645Y02025*
X04655*
Y02035*
X04645Y02045*
X04655Y02055*
Y02065*
X04645*
X04635Y02055*
X04625Y02065*
X04615*
Y02055*
X04625Y02045*
X04615Y02035*
Y02025*
X02424Y02017D02*
X02434D01*
X02444Y02027*
X02454Y02017*
X02464*
Y02027*
X02454Y02037*
X02464Y02047*
Y02057*
X02454*
X02444Y02047*
X02434Y02057*
X02424*
Y02047*
X02434Y02037*
X02424Y02027*
Y02017*
X01Y0055D02*
X0101D01*
X0102Y0056*
X0103Y0055*
X0104*
Y0056*
X0103Y0057*
X0104Y0058*
Y0059*
X0103*
X0102Y0058*
X0101Y0059*
X01*
Y0058*
X0101Y0057*
X01Y0056*
Y0055*
X027152Y008651D02*
X027252D01*
X027352Y008751*
X027452Y008651*
X027552*
Y008751*
X027452Y008851*
X027552Y008951*
Y009051*
X027452*
X027352Y008951*
X027252Y009051*
X027152*
Y008951*
X027252Y008851*
X027152Y008751*
Y008651*
X01295Y0038D02*
X01305D01*
X01315Y0039*
X01325Y0038*
X01335*
Y0039*
X01325Y004*
X01335Y0041*
Y0042*
X01325*
X01315Y0041*
X01305Y0042*
X01295*
Y0041*
X01305Y004*
X01295Y0039*
Y0038*
X028136Y010146D02*
X028236D01*
X028336Y010246*
X028436Y010146*
X028536*
Y010246*
X028436Y010346*
X028536Y010446*
Y010546*
X028436*
X028336Y010446*
X028236Y010546*
X028136*
Y010446*
X028236Y010346*
X028136Y010246*
Y010146*
X0249Y0076D02*
X025D01*
X0251Y0077*
X0252Y0076*
X0253*
Y0077*
X0252Y0078*
X0253Y0079*
Y008*
X0252*
X0251Y0079*
X025Y008*
X0249*
Y0079*
X025Y0078*
X0249Y0077*
Y0076*
Y009D02*
X025D01*
X0251Y0091*
X0252Y009*
X0253*
Y0091*
X0252Y0092*
X0253Y0093*
Y0094*
X0252*
X0251Y0093*
X025Y0094*
X0249*
Y0093*
X025Y0092*
X0249Y0091*
Y009*
X02175Y0172D02*
X02185D01*
X02195Y0173*
X02205Y0172*
X02215*
Y0173*
X02205Y0174*
X02215Y0175*
Y0176*
X02205*
X02195Y0175*
X02185Y0176*
X02175*
Y0175*
X02185Y0174*
X02175Y0173*
Y0172*
X0227Y0171D02*
X0228D01*
X0229Y0172*
X023Y0171*
X0231*
Y0172*
X023Y0173*
X0231Y0174*
Y0175*
X023*
X0229Y0174*
X0228Y0175*
X0227*
Y0174*
X0228Y0173*
X0227Y0172*
Y0171*
X02225Y0177D02*
X02235D01*
X02245Y0178*
X02255Y0177*
X02265*
Y0178*
X02255Y0179*
X02265Y018*
Y0181*
X02255*
X02245Y018*
X02235Y0181*
X02225*
Y018*
X02235Y0179*
X02225Y0178*
Y0177*
X02305Y00625D02*
X02315D01*
X02325Y00635*
X02335Y00625*
X02345*
Y00635*
X02335Y00645*
X02345Y00655*
Y00665*
X02335*
X02325Y00655*
X02315Y00665*
X02305*
Y00655*
X02315Y00645*
X02305Y00635*
Y00625*
X0212Y0059D02*
X0213D01*
X0214Y006*
X0215Y0059*
X0216*
Y006*
X0215Y0061*
X0216Y0062*
Y0063*
X0215*
X0214Y0062*
X0213Y0063*
X0212*
Y0062*
X0213Y0061*
X0212Y006*
Y0059*
X023282Y01715D02*
X023382D01*
X023482Y01725*
X023582Y01715*
X023682*
Y01725*
X023582Y01735*
X023682Y01745*
Y01755*
X023582*
X023482Y01745*
X023382Y01755*
X023282*
Y01745*
X023382Y01735*
X023282Y01725*
Y01715*
X02945Y01865D02*
X02955D01*
X02965Y01875*
X02975Y01865*
X02985*
Y01875*
X02975Y01885*
X02985Y01895*
Y01905*
X02975*
X02965Y01895*
X02955Y01905*
X02945*
Y01895*
X02955Y01885*
X02945Y01875*
Y01865*
X02845Y0203D02*
X02855D01*
X02865Y0204*
X02875Y0203*
X02885*
Y0204*
X02875Y0205*
X02885Y0206*
Y0207*
X02875*
X02865Y0206*
X02855Y0207*
X02845*
Y0206*
X02855Y0205*
X02845Y0204*
Y0203*
X02805D02*
X02815D01*
X02825Y0204*
X02835Y0203*
X02845*
Y0204*
X02835Y0205*
X02845Y0206*
Y0207*
X02835*
X02825Y0206*
X02815Y0207*
X02805*
Y0206*
X02815Y0205*
X02805Y0204*
Y0203*
X02765Y01875D02*
X02775D01*
X02785Y01885*
X02795Y01875*
X02805*
Y01885*
X02795Y01895*
X02805Y01905*
Y01915*
X02795*
X02785Y01905*
X02775Y01915*
X02765*
Y01905*
X02775Y01895*
X02765Y01885*
Y01875*
X0313Y01085D02*
X0314D01*
X0315Y01095*
X0316Y01085*
X0317*
Y01095*
X0316Y01105*
X0317Y01115*
Y01125*
X0316*
X0315Y01115*
X0314Y01125*
X0313*
Y01115*
X0314Y01105*
X0313Y01095*
Y01085*
X009016Y005987D02*
X009116D01*
X009216Y006087*
X009316Y005987*
X009416*
Y006087*
X009316Y006187*
X009416Y006287*
Y006387*
X009316*
X009216Y006287*
X009116Y006387*
X009016*
Y006287*
X009116Y006187*
X009016Y006087*
Y005987*
X008066Y007587D02*
X008166D01*
X008266Y007687*
X008366Y007587*
X008466*
Y007687*
X008366Y007787*
X008466Y007887*
Y007987*
X008366*
X008266Y007887*
X008166Y007987*
X008066*
Y007887*
X008166Y007787*
X008066Y007687*
Y007587*
X008116Y008187D02*
X008216D01*
X008316Y008287*
X008416Y008187*
X008516*
Y008287*
X008416Y008387*
X008516Y008487*
Y008587*
X008416*
X008316Y008487*
X008216Y008587*
X008116*
Y008487*
X008216Y008387*
X008116Y008287*
Y008187*
X008766Y008887D02*
X008866D01*
X008966Y008987*
X009066Y008887*
X009166*
Y008987*
X009066Y009087*
X009166Y009187*
Y009287*
X009066*
X008966Y009187*
X008866Y009287*
X008766*
Y009187*
X008866Y009087*
X008766Y008987*
Y008887*
X010916Y007637D02*
X011016D01*
X011116Y007737*
X011216Y007637*
X011316*
Y007737*
X011216Y007837*
X011316Y007937*
Y008037*
X011216*
X011116Y007937*
X011016Y008037*
X010916*
Y007937*
X011016Y007837*
X010916Y007737*
Y007637*
X010566Y007887D02*
X010666D01*
X010766Y007987*
X010866Y007887*
X010966*
Y007987*
X010866Y008087*
X010966Y008187*
Y008287*
X010866*
X010766Y008187*
X010666Y008287*
X010566*
Y008187*
X010666Y008087*
X010566Y007987*
Y007887*
Y007437D02*
X010666D01*
X010766Y007537*
X010866Y007437*
X010966*
Y007537*
X010866Y007637*
X010966Y007737*
Y007837*
X010866*
X010766Y007737*
X010666Y007837*
X010566*
Y007737*
X010666Y007637*
X010566Y007537*
Y007437*
X009716Y006737D02*
X009816D01*
X009916Y006837*
X010016Y006737*
X010116*
Y006837*
X010016Y006937*
X010116Y007037*
Y007137*
X010016*
X009916Y007037*
X009816Y007137*
X009716*
Y007037*
X009816Y006937*
X009716Y006837*
Y006737*
X0474Y01255D02*
X0475D01*
X0476Y01265*
X0477Y01255*
X0478*
Y01265*
X0477Y01275*
X0478Y01285*
Y01295*
X0477*
X0476Y01285*
X0475Y01295*
X0474*
Y01285*
X0475Y01275*
X0474Y01265*
Y01255*
X0477Y01025D02*
X0478D01*
X0479Y01035*
X048Y01025*
X0481*
Y01035*
X048Y01045*
X0481Y01055*
Y01065*
X048*
X0479Y01055*
X0478Y01065*
X0477*
Y01055*
X0478Y01045*
X0477Y01035*
Y01025*
X0481Y0122D02*
X0482D01*
X0483Y0123*
X0484Y0122*
X0485*
Y0123*
X0484Y0124*
X0485Y0125*
Y0126*
X0484*
X0483Y0125*
X0482Y0126*
X0481*
Y0125*
X0482Y0124*
X0481Y0123*
Y0122*
Y0087D02*
X0482D01*
X0483Y0088*
X0484Y0087*
X0485*
Y0088*
X0484Y0089*
X0485Y009*
Y0091*
X0484*
X0483Y009*
X0482Y0091*
X0481*
Y009*
X0482Y0089*
X0481Y0088*
Y0087*
X0446Y0094D02*
X0447D01*
X0448Y0095*
X0449Y0094*
X045*
Y0095*
X0449Y0096*
X045Y0097*
Y0098*
X0449*
X0448Y0097*
X0447Y0098*
X0446*
Y0097*
X0447Y0096*
X0446Y0095*
Y0094*
X02715Y0054D02*
X02725D01*
X02735Y0055*
X02745Y0054*
X02755*
Y0055*
X02745Y0056*
X02755Y0057*
Y0058*
X02745*
X02735Y0057*
X02725Y0058*
X02715*
Y0057*
X02725Y0056*
X02715Y0055*
Y0054*
X0208Y029956D02*
X0209D01*
X021Y030056*
X0211Y029956*
X0212*
Y030056*
X0211Y030156*
X0212Y030256*
Y030356*
X0211*
X021Y030256*
X0209Y030356*
X0208*
Y030256*
X0209Y030156*
X0208Y030056*
Y029956*
X0207Y027156D02*
X0208D01*
X0209Y027256*
X021Y027156*
X0211*
Y027256*
X021Y027356*
X0211Y027456*
Y027556*
X021*
X0209Y027456*
X0208Y027556*
X0207*
Y027456*
X0208Y027356*
X0207Y027256*
Y027156*
X0285Y0073D02*
X0286D01*
X0287Y0074*
X0288Y0073*
X0289*
Y0074*
X0288Y0075*
X0289Y0076*
Y0077*
X0288*
X0287Y0076*
X0286Y0077*
X0285*
Y0076*
X0286Y0075*
X0285Y0074*
Y0073*
X03035Y01775D02*
X03045D01*
X03055Y01785*
X03065Y01775*
X03075*
Y01785*
X03065Y01795*
X03075Y01805*
Y01815*
X03065*
X03055Y01805*
X03045Y01815*
X03035*
Y01805*
X03045Y01795*
X03035Y01785*
Y01775*
X02445Y0079D02*
X02455D01*
X02465Y008*
X02475Y0079*
X02485*
Y008*
X02475Y0081*
X02485Y0082*
Y0083*
X02475*
X02465Y0082*
X02455Y0083*
X02445*
Y0082*
X02455Y0081*
X02445Y008*
Y0079*
Y00915D02*
X02455D01*
X02465Y00925*
X02475Y00915*
X02485*
Y00925*
X02475Y00935*
X02485Y00945*
Y00955*
X02475*
X02465Y00945*
X02455Y00955*
X02445*
Y00945*
X02455Y00935*
X02445Y00925*
Y00915*
X02755Y0203D02*
X02765D01*
X02775Y0204*
X02785Y0203*
X02795*
Y0204*
X02785Y0205*
X02795Y0206*
Y0207*
X02785*
X02775Y0206*
X02765Y0207*
X02755*
Y0206*
X02765Y0205*
X02755Y0204*
Y0203*
X031932Y013745D02*
X032032D01*
X032132Y013845*
X032232Y013745*
X032332*
Y013845*
X032232Y013945*
X032332Y014045*
Y014145*
X032232*
X032132Y014045*
X032032Y014145*
X031932*
Y014045*
X032032Y013945*
X031932Y013845*
Y013745*
X031546Y014139D02*
X031646D01*
X031746Y014239*
X031846Y014139*
X031946*
Y014239*
X031846Y014339*
X031946Y014439*
Y014539*
X031846*
X031746Y014439*
X031646Y014539*
X031546*
Y014439*
X031646Y014339*
X031546Y014239*
Y014139*
X0296Y01815D02*
X0297D01*
X0298Y01825*
X0299Y01815*
X03*
Y01825*
X0299Y01835*
X03Y01845*
Y01855*
X0299*
X0298Y01845*
X0297Y01855*
X0296*
Y01845*
X0297Y01835*
X0296Y01825*
Y01815*
X03025D02*
X03035D01*
X03045Y01825*
X03055Y01815*
X03065*
Y01825*
X03055Y01835*
X03065Y01845*
Y01855*
X03055*
X03045Y01845*
X03035Y01855*
X03025*
Y01845*
X03035Y01835*
X03025Y01825*
Y01815*
X02955Y0164D02*
X02965D01*
X02975Y0165*
X02985Y0164*
X02995*
Y0165*
X02985Y0166*
X02995Y0167*
Y0168*
X02985*
X02975Y0167*
X02965Y0168*
X02955*
Y0167*
X02965Y0166*
X02955Y0165*
Y0164*
X0305Y0129D02*
X0306D01*
X0307Y013*
X0308Y0129*
X0309*
Y013*
X0308Y0131*
X0309Y0132*
Y0133*
X0308*
X0307Y0132*
X0306Y0133*
X0305*
Y0132*
X0306Y0131*
X0305Y013*
Y0129*
X02395Y01435D02*
X02405D01*
X02415Y01445*
X02425Y01435*
X02435*
Y01445*
X02425Y01455*
X02435Y01465*
Y01475*
X02425*
X02415Y01465*
X02405Y01475*
X02395*
Y01465*
X02405Y01455*
X02395Y01445*
Y01435*
X0273Y01465D02*
X0274D01*
X0275Y01475*
X0276Y01465*
X0277*
Y01475*
X0276Y01485*
X0277Y01495*
Y01505*
X0276*
X0275Y01495*
X0274Y01505*
X0273*
Y01495*
X0274Y01485*
X0273Y01475*
Y01465*
X02253Y027124D02*
X02263D01*
X02273Y027224*
X02283Y027124*
X02293*
Y027224*
X02283Y027324*
X02293Y027424*
Y027524*
X02283*
X02273Y027424*
X02263Y027524*
X02253*
Y027424*
X02263Y027324*
X02253Y027224*
Y027124*
X03125Y0169D02*
X03135D01*
X03145Y017*
X03155Y0169*
X03165*
Y017*
X03155Y0171*
X03165Y0172*
Y0173*
X03155*
X03145Y0172*
X03135Y0173*
X03125*
Y0172*
X03135Y0171*
X03125Y017*
Y0169*
X030695Y016091D02*
X030795D01*
X030895Y016191*
X030995Y016091*
X031095*
Y016191*
X030995Y016291*
X031095Y016391*
Y016491*
X030995*
X030895Y016391*
X030795Y016491*
X030695*
Y016391*
X030795Y016291*
X030695Y016191*
Y016091*
X04355Y0116D02*
X04365D01*
X04375Y0117*
X04385Y0116*
X04395*
Y0117*
X04385Y0118*
X04395Y0119*
Y012*
X04385*
X04375Y0119*
X04365Y012*
X04355*
Y0119*
X04365Y0118*
X04355Y0117*
Y0116*
X04645Y0221D02*
X04655D01*
X04665Y0222*
X04675Y0221*
X04685*
Y0222*
X04675Y0223*
X04685Y0224*
Y0225*
X04675*
X04665Y0224*
X04655Y0225*
X04645*
Y0224*
X04655Y0223*
X04645Y0222*
Y0221*
X02912Y014982D02*
X02922D01*
X02932Y015082*
X02942Y014982*
X02952*
Y015082*
X02942Y015182*
X02952Y015282*
Y015382*
X02942*
X02932Y015282*
X02922Y015382*
X02912*
Y015282*
X02922Y015182*
X02912Y015082*
Y014982*
X04625Y02975D02*
X04635D01*
X04645Y02985*
X04655Y02975*
X04665*
Y02985*
X04655Y02995*
X04665Y03005*
Y03015*
X04655*
X04645Y03005*
X04635Y03015*
X04625*
Y03005*
X04635Y02995*
X04625Y02985*
Y02975*
X0432Y01505D02*
X0433D01*
X0434Y01515*
X0435Y01505*
X0436*
Y01515*
X0435Y01525*
X0436Y01535*
Y01545*
X0435*
X0434Y01535*
X0433Y01545*
X0432*
Y01535*
X0433Y01525*
X0432Y01515*
Y01505*
X035143Y02245D02*
X035243D01*
X035343Y02255*
X035443Y02245*
X035543*
Y02255*
X035443Y02265*
X035543Y02275*
Y02285*
X035443*
X035343Y02275*
X035243Y02285*
X035143*
Y02275*
X035243Y02265*
X035143Y02255*
Y02245*
X00615Y0304D02*
X00625D01*
X00635Y0305*
X00645Y0304*
X00655*
Y0305*
X00645Y0306*
X00655Y0307*
Y0308*
X00645*
X00635Y0307*
X00625Y0308*
X00615*
Y0307*
X00625Y0306*
X00615Y0305*
Y0304*
X0096Y02535D02*
X0097D01*
X0098Y02545*
X0099Y02535*
X01*
Y02545*
X0099Y02555*
X01Y02565*
Y02575*
X0099*
X0098Y02565*
X0097Y02575*
X0096*
Y02565*
X0097Y02555*
X0096Y02545*
Y02535*
X01055Y02885D02*
X01065D01*
X01075Y02895*
X01085Y02885*
X01095*
Y02895*
X01085Y02905*
X01095Y02915*
Y02925*
X01085*
X01075Y02915*
X01065Y02925*
X01055*
Y02915*
X01065Y02905*
X01055Y02895*
Y02885*
X01385Y001264D02*
X01395D01*
X01405Y001364*
X01415Y001264*
X01425*
Y001364*
X01415Y001464*
X01425Y001564*
Y001664*
X01415*
X01405Y001564*
X01395Y001664*
X01385*
Y001564*
X01395Y001464*
X01385Y001364*
Y001264*
X00905Y0034D02*
X00915D01*
X00925Y0035*
X00935Y0034*
X00945*
Y0035*
X00935Y0036*
X00945Y0037*
Y0038*
X00935*
X00925Y0037*
X00915Y0038*
X00905*
Y0037*
X00915Y0036*
X00905Y0035*
Y0034*
X0123Y00285D02*
X0124D01*
X0125Y00295*
X0126Y00285*
X0127*
Y00295*
X0126Y00305*
X0127Y00315*
Y00325*
X0126*
X0125Y00315*
X0124Y00325*
X0123*
Y00315*
X0124Y00305*
X0123Y00295*
Y00285*
X01235Y00185D02*
X01245D01*
X01255Y00195*
X01265Y00185*
X01275*
Y00195*
X01265Y00205*
X01275Y00215*
Y00225*
X01265*
X01255Y00215*
X01245Y00225*
X01235*
Y00215*
X01245Y00205*
X01235Y00195*
Y00185*
X034735Y008D02*
X034835D01*
X034935Y0081*
X035035Y008*
X035135*
Y0081*
X035035Y0082*
X035135Y0083*
Y0084*
X035035*
X034935Y0083*
X034835Y0084*
X034735*
Y0083*
X034835Y0082*
X034735Y0081*
Y008*
X034743Y021937D02*
X034843D01*
X034943Y022037*
X035043Y021937*
X035143*
Y022037*
X035043Y022137*
X035143Y022237*
Y022337*
X035043*
X034943Y022237*
X034843Y022337*
X034743*
Y022237*
X034843Y022137*
X034743Y022037*
Y021937*
X03275Y019931D02*
X03285D01*
X03295Y020031*
X03305Y019931*
X03315*
Y020031*
X03305Y020131*
X03315Y020231*
Y020331*
X03305*
X03295Y020231*
X03285Y020331*
X03275*
Y020231*
X03285Y020131*
X03275Y020031*
Y019931*
X031Y020081D02*
X0311D01*
X0312Y020181*
X0313Y020081*
X0314*
Y020181*
X0313Y020281*
X0314Y020381*
Y020481*
X0313*
X0312Y020381*
X0311Y020481*
X031*
Y020381*
X0311Y020281*
X031Y020181*
Y020081*
X0333Y020131D02*
X0334D01*
X0335Y020231*
X0336Y020131*
X0337*
Y020231*
X0336Y020331*
X0337Y020431*
Y020531*
X0336*
X0335Y020431*
X0334Y020531*
X0333*
Y020431*
X0334Y020331*
X0333Y020231*
Y020131*
X030635Y0305D02*
X030735D01*
X030835Y0306*
X030935Y0305*
X031035*
Y0306*
X030935Y0307*
X031035Y0308*
Y0309*
X030935*
X030835Y0308*
X030735Y0309*
X030635*
Y0308*
X030735Y0307*
X030635Y0306*
Y0305*
X032535Y0268D02*
X032635D01*
X032735Y0269*
X032835Y0268*
X032935*
Y0269*
X032835Y027*
X032935Y0271*
Y0272*
X032835*
X032735Y0271*
X032635Y0272*
X032535*
Y0271*
X032635Y027*
X032535Y0269*
Y0268*
X036243Y021537D02*
X036343D01*
X036443Y021637*
X036543Y021537*
X036643*
Y021637*
X036543Y021737*
X036643Y021837*
Y021937*
X036543*
X036443Y021837*
X036343Y021937*
X036243*
Y021837*
X036343Y021737*
X036243Y021637*
Y021537*
X038114Y02875D02*
X038214D01*
X038314Y02885*
X038414Y02875*
X038514*
Y02885*
X038414Y02895*
X038514Y02905*
Y02915*
X038414*
X038314Y02905*
X038214Y02915*
X038114*
Y02905*
X038214Y02895*
X038114Y02885*
Y02875*
X02231Y019358D02*
X02241D01*
X02251Y019458*
X02261Y019358*
X02271*
Y019458*
X02261Y019558*
X02271Y019658*
Y019758*
X02261*
X02251Y019658*
X02241Y019758*
X02231*
Y019658*
X02241Y019558*
X02231Y019458*
Y019358*
X02006Y022408D02*
X02016D01*
X02026Y022508*
X02036Y022408*
X02046*
Y022508*
X02036Y022608*
X02046Y022708*
Y022808*
X02036*
X02026Y022708*
X02016Y022808*
X02006*
Y022708*
X02016Y022608*
X02006Y022508*
Y022408*
X02855Y01475D02*
X02865D01*
X02875Y01485*
X02885Y01475*
X02895*
Y01485*
X02885Y01495*
X02895Y01505*
Y01515*
X02885*
X02875Y01505*
X02865Y01515*
X02855*
Y01505*
X02865Y01495*
X02855Y01485*
Y01475*
X03175Y0145D02*
X03185D01*
X03195Y0146*
X03205Y0145*
X03215*
Y0146*
X03205Y0147*
X03215Y0148*
Y0149*
X03205*
X03195Y0148*
X03185Y0149*
X03175*
Y0148*
X03185Y0147*
X03175Y0146*
Y0145*
X0305Y01035D02*
X0306D01*
X0307Y01045*
X0308Y01035*
X0309*
Y01045*
X0308Y01055*
X0309Y01065*
Y01075*
X0308*
X0307Y01065*
X0306Y01075*
X0305*
Y01065*
X0306Y01055*
X0305Y01045*
Y01035*
X0304Y0074D02*
X0305D01*
X0306Y0075*
X0307Y0074*
X0308*
Y0075*
X0307Y0076*
X0308Y0077*
Y0078*
X0307*
X0306Y0077*
X0305Y0078*
X0304*
Y0077*
X0305Y0076*
X0304Y0075*
Y0074*
X03475Y01475D02*
X03485D01*
X03495Y01485*
X03505Y01475*
X03515*
Y01485*
X03505Y01495*
X03515Y01505*
Y01515*
X03505*
X03495Y01505*
X03485Y01515*
X03475*
Y01505*
X03485Y01495*
X03475Y01485*
Y01475*
Y0108D02*
X03485D01*
X03495Y0109*
X03505Y0108*
X03515*
Y0109*
X03505Y011*
X03515Y0111*
Y0112*
X03505*
X03495Y0111*
X03485Y0112*
X03475*
Y0111*
X03485Y011*
X03475Y0109*
Y0108*
X02355Y0212D02*
X02365D01*
X02375Y0213*
X02385Y0212*
X02395*
Y0213*
X02385Y0214*
X02395Y0215*
Y0216*
X02385*
X02375Y0215*
X02365Y0216*
X02355*
Y0215*
X02365Y0214*
X02355Y0213*
Y0212*
X01791Y019308D02*
X01801D01*
X01811Y019408*
X01821Y019308*
X01831*
Y019408*
X01821Y019508*
X01831Y019608*
Y019708*
X01821*
X01811Y019608*
X01801Y019708*
X01791*
Y019608*
X01801Y019508*
X01791Y019408*
Y019308*
X035793Y019787D02*
X035893D01*
X035993Y019887*
X036093Y019787*
X036193*
Y019887*
X036093Y019987*
X036193Y020087*
Y020187*
X036093*
X035993Y020087*
X035893Y020187*
X035793*
Y020087*
X035893Y019987*
X035793Y019887*
Y019787*
X02615Y02175D02*
X02625D01*
X02635Y02185*
X02645Y02175*
X02655*
Y02185*
X02645Y02195*
X02655Y02205*
Y02215*
X02645*
X02635Y02205*
X02625Y02215*
X02615*
Y02205*
X02625Y02195*
X02615Y02185*
Y02175*
X02504Y02291D02*
X02514D01*
X02524Y02301*
X02534Y02291*
X02544*
Y02301*
X02534Y02311*
X02544Y02321*
Y02331*
X02534*
X02524Y02321*
X02514Y02331*
X02504*
Y02321*
X02514Y02311*
X02504Y02301*
Y02291*
X030235Y02865D02*
X030335D01*
X030435Y02875*
X030535Y02865*
X030635*
Y02875*
X030535Y02885*
X030635Y02895*
Y02905*
X030535*
X030435Y02895*
X030335Y02905*
X030235*
Y02895*
X030335Y02885*
X030235Y02875*
Y02865*
X02007Y018848D02*
X02017D01*
X02027Y018948*
X02037Y018848*
X02047*
Y018948*
X02037Y019048*
X02047Y019148*
Y019248*
X02037*
X02027Y019148*
X02017Y019248*
X02007*
Y019148*
X02017Y019048*
X02007Y018948*
Y018848*
X01746Y020858D02*
X01756D01*
X01766Y020958*
X01776Y020858*
X01786*
Y020958*
X01776Y021058*
X01786Y021158*
Y021258*
X01776*
X01766Y021158*
X01756Y021258*
X01746*
Y021158*
X01756Y021058*
X01746Y020958*
Y020858*
X02126Y019308D02*
X02136D01*
X02146Y019408*
X02156Y019308*
X02166*
Y019408*
X02156Y019508*
X02166Y019608*
Y019708*
X02156*
X02146Y019608*
X02136Y019708*
X02126*
Y019608*
X02136Y019508*
X02126Y019408*
Y019308*
X03175Y0106D02*
X03185D01*
X03195Y0107*
X03205Y0106*
X03215*
Y0107*
X03205Y0108*
X03215Y0109*
Y011*
X03205*
X03195Y0109*
X03185Y011*
X03175*
Y0109*
X03185Y0108*
X03175Y0107*
Y0106*
X0251Y00985D02*
X0252D01*
X0253Y00995*
X0254Y00985*
X0255*
Y00995*
X0254Y01005*
X0255Y01015*
Y01025*
X0254*
X0253Y01015*
X0252Y01025*
X0251*
Y01015*
X0252Y01005*
X0251Y00995*
Y00985*
X0308Y0167D02*
X0309D01*
X031Y0168*
X0311Y0167*
X0312*
Y0168*
X0311Y0169*
X0312Y017*
Y0171*
X0311*
X031Y017*
X0309Y0171*
X0308*
Y017*
X0309Y0169*
X0308Y0168*
Y0167*
X03365Y01525D02*
X03375D01*
X03385Y01535*
X03395Y01525*
X03405*
Y01535*
X03395Y01545*
X03405Y01555*
Y01565*
X03395*
X03385Y01555*
X03375Y01565*
X03365*
Y01555*
X03375Y01545*
X03365Y01535*
Y01525*
X02795Y00845D02*
X02805D01*
X02815Y00855*
X02825Y00845*
X02835*
Y00855*
X02825Y00865*
X02835Y00875*
Y00885*
X02825*
X02815Y00875*
X02805Y00885*
X02795*
Y00875*
X02805Y00865*
X02795Y00855*
Y00845*
X040214Y02855D02*
X040314D01*
X040414Y02865*
X040514Y02855*
X040614*
Y02865*
X040514Y02875*
X040614Y02885*
Y02895*
X040514*
X040414Y02885*
X040314Y02895*
X040214*
Y02885*
X040314Y02875*
X040214Y02865*
Y02855*
X041214Y02795D02*
X041314D01*
X041414Y02805*
X041514Y02795*
X041614*
Y02805*
X041514Y02815*
X041614Y02825*
Y02835*
X041514*
X041414Y02825*
X041314Y02835*
X041214*
Y02825*
X041314Y02815*
X041214Y02805*
Y02795*
X033543Y020943D02*
X033643D01*
X033743Y021043*
X033843Y020943*
X033943*
Y021043*
X033843Y021143*
X033943Y021243*
Y021343*
X033843*
X033743Y021243*
X033643Y021343*
X033543*
Y021243*
X033643Y021143*
X033543Y021043*
Y020943*
X032535Y0286D02*
X032635D01*
X032735Y0287*
X032835Y0286*
X032935*
Y0287*
X032835Y0288*
X032935Y0289*
Y029*
X032835*
X032735Y0289*
X032635Y029*
X032535*
Y0289*
X032635Y0288*
X032535Y0287*
Y0286*
X038514Y0269D02*
X038614D01*
X038714Y027*
X038814Y0269*
X038914*
Y027*
X038814Y0271*
X038914Y0272*
Y0273*
X038814*
X038714Y0272*
X038614Y0273*
X038514*
Y0272*
X038614Y0271*
X038514Y027*
Y0269*
X037664Y0276D02*
X037764D01*
X037864Y0277*
X037964Y0276*
X038064*
Y0277*
X037964Y0278*
X038064Y0279*
Y028*
X037964*
X037864Y0279*
X037764Y028*
X037664*
Y0279*
X037764Y0278*
X037664Y0277*
Y0276*
X0267Y0229D02*
X0268D01*
X0269Y023*
X027Y0229*
X0271*
Y023*
X027Y0231*
X0271Y0232*
Y0233*
X027*
X0269Y0232*
X0268Y0233*
X0267*
Y0232*
X0268Y0231*
X0267Y023*
Y0229*
X048Y029D02*
X0481D01*
X0482Y0291*
X0483Y029*
X0484*
Y0291*
X0483Y0292*
X0484Y0293*
Y0294*
X0483*
X0482Y0293*
X0481Y0294*
X048*
Y0293*
X0481Y0292*
X048Y0291*
Y029*
X04745Y02435D02*
X04755D01*
X04765Y02445*
X04775Y02435*
X04785*
Y02445*
X04775Y02455*
X04785Y02465*
Y02475*
X04775*
X04765Y02465*
X04755Y02475*
X04745*
Y02465*
X04755Y02455*
X04745Y02445*
Y02435*
X0465Y0283D02*
X0466D01*
X0467Y0284*
X0468Y0283*
X0469*
Y0284*
X0468Y0285*
X0469Y0286*
Y0287*
X0468*
X0467Y0286*
X0466Y0287*
X0465*
Y0286*
X0466Y0285*
X0465Y0284*
Y0283*
X041375Y0028D02*
X041475D01*
X041575Y0029*
X041675Y0028*
X041775*
Y0029*
X041675Y003*
X041775Y0031*
Y0032*
X041675*
X041575Y0031*
X041475Y0032*
X041375*
Y0031*
X041475Y003*
X041375Y0029*
Y0028*
X040175Y00825D02*
X040275D01*
X040375Y00835*
X040475Y00825*
X040575*
Y00835*
X040475Y00845*
X040575Y00855*
Y00865*
X040475*
X040375Y00855*
X040275Y00865*
X040175*
Y00855*
X040275Y00845*
X040175Y00835*
Y00825*
X040375Y0068D02*
X040475D01*
X040575Y0069*
X040675Y0068*
X040775*
Y0069*
X040675Y007*
X040775Y0071*
Y0072*
X040675*
X040575Y0071*
X040475Y0072*
X040375*
Y0071*
X040475Y007*
X040375Y0069*
Y0068*
X041675Y00815D02*
X041775D01*
X041875Y00825*
X041975Y00815*
X042075*
Y00825*
X041975Y00835*
X042075Y00845*
Y00855*
X041975*
X041875Y00845*
X041775Y00855*
X041675*
Y00845*
X041775Y00835*
X041675Y00825*
Y00815*
X041925Y0075D02*
X042025D01*
X042125Y0076*
X042225Y0075*
X042325*
Y0076*
X042225Y0077*
X042325Y0078*
Y0079*
X042225*
X042125Y0078*
X042025Y0079*
X041925*
Y0078*
X042025Y0077*
X041925Y0076*
Y0075*
X042675Y0033D02*
X042775D01*
X042875Y0034*
X042975Y0033*
X043075*
Y0034*
X042975Y0035*
X043075Y0036*
Y0037*
X042975*
X042875Y0036*
X042775Y0037*
X042675*
Y0036*
X042775Y0035*
X042675Y0034*
Y0033*
X0488Y0248D02*
X0489D01*
X049Y0249*
X0491Y0248*
X0492*
Y0249*
X0491Y025*
X0492Y0251*
Y0252*
X0491*
X049Y0251*
X0489Y0252*
X0488*
Y0251*
X0489Y025*
X0488Y0249*
Y0248*
X04545Y027245D02*
X04555D01*
X04565Y027345*
X04575Y027245*
X04585*
Y027345*
X04575Y027445*
X04585Y027545*
Y027645*
X04575*
X04565Y027545*
X04555Y027645*
X04545*
Y027545*
X04555Y027445*
X04545Y027345*
Y027245*
X039475Y0059D02*
X039575D01*
X039675Y006*
X039775Y0059*
X039875*
Y006*
X039775Y0061*
X039875Y0062*
Y0063*
X039775*
X039675Y0062*
X039575Y0063*
X039475*
Y0062*
X039575Y0061*
X039475Y006*
Y0059*
X0222Y02515D02*
X0223D01*
X0224Y02525*
X0225Y02515*
X0226*
Y02525*
X0225Y02535*
X0226Y02545*
Y02555*
X0225*
X0224Y02545*
X0223Y02555*
X0222*
Y02545*
X0223Y02535*
X0222Y02525*
Y02515*
X019427Y025588D02*
X019527D01*
X019627Y025688*
X019727Y025588*
X019827*
Y025688*
X019727Y025788*
X019827Y025888*
Y025988*
X019727*
X019627Y025888*
X019527Y025988*
X019427*
Y025888*
X019527Y025788*
X019427Y025688*
Y025588*
X02128Y025124D02*
X02138D01*
X02148Y025224*
X02158Y025124*
X02168*
Y025224*
X02158Y025324*
X02168Y025424*
Y025524*
X02158*
X02148Y025424*
X02138Y025524*
X02128*
Y025424*
X02138Y025324*
X02128Y025224*
Y025124*
X021359Y02785D02*
X021459D01*
X021559Y02795*
X021659Y02785*
X021759*
Y02795*
X021659Y02805*
X021759Y02815*
Y02825*
X021659*
X021559Y02815*
X021459Y02825*
X021359*
Y02815*
X021459Y02805*
X021359Y02795*
Y02785*
X022026Y029068D02*
X022126D01*
X022226Y029168*
X022326Y029068*
X022426*
Y029168*
X022326Y029268*
X022426Y029368*
Y029468*
X022326*
X022226Y029368*
X022126Y029468*
X022026*
Y029368*
X022126Y029268*
X022026Y029168*
Y029068*
X02188Y026224D02*
X02198D01*
X02208Y026324*
X02218Y026224*
X02228*
Y026324*
X02218Y026424*
X02228Y026524*
Y026624*
X02218*
X02208Y026524*
X02198Y026624*
X02188*
Y026524*
X02198Y026424*
X02188Y026324*
Y026224*
X022009Y028D02*
X022109D01*
X022209Y0281*
X022309Y028*
X022409*
Y0281*
X022309Y0282*
X022409Y0283*
Y0284*
X022309*
X022209Y0283*
X022109Y0284*
X022009*
Y0283*
X022109Y0282*
X022009Y0281*
Y028*
X022609Y0299D02*
X022709D01*
X022809Y03*
X022909Y0299*
X023009*
Y03*
X022909Y0301*
X023009Y0302*
Y0303*
X022909*
X022809Y0302*
X022709Y0303*
X022609*
Y0302*
X022709Y0301*
X022609Y03*
Y0299*
X0462Y02095D02*
X0463D01*
X0464Y02105*
X0465Y02095*
X0466*
Y02105*
X0465Y02115*
X0466Y02125*
Y02135*
X0465*
X0464Y02125*
X0463Y02135*
X0462*
Y02125*
X0463Y02115*
X0462Y02105*
Y02095*
X029514Y014596D02*
X029614D01*
X029714Y014696*
X029814Y014596*
X029914*
Y014696*
X029814Y014796*
X029914Y014896*
Y014996*
X029814*
X029714Y014896*
X029614Y014996*
X029514*
Y014896*
X029614Y014796*
X029514Y014696*
Y014596*
X031286Y010146D02*
X031386D01*
X031486Y010246*
X031586Y010146*
X031686*
Y010246*
X031586Y010346*
X031686Y010446*
Y010546*
X031586*
X031486Y010446*
X031386Y010546*
X031286*
Y010446*
X031386Y010346*
X031286Y010246*
Y010146*
X029317Y010532D02*
X029417D01*
X029517Y010632*
X029617Y010532*
X029717*
Y010632*
X029617Y010732*
X029717Y010832*
Y010932*
X029617*
X029517Y010832*
X029417Y010932*
X029317*
Y010832*
X029417Y010732*
X029317Y010632*
Y010532*
X031932Y01217D02*
X032032D01*
X032132Y01227*
X032232Y01217*
X032332*
Y01227*
X032232Y01237*
X032332Y01247*
Y01257*
X032232*
X032132Y01247*
X032032Y01257*
X031932*
Y01247*
X032032Y01237*
X031932Y01227*
Y01217*
X031679Y010146D02*
X031779D01*
X031879Y010246*
X031979Y010146*
X032079*
Y010246*
X031979Y010346*
X032079Y010446*
Y010546*
X031979*
X031879Y010446*
X031779Y010546*
X031679*
Y010446*
X031779Y010346*
X031679Y010246*
Y010146*
X0479Y0296D02*
X048D01*
X0481Y0297*
X0482Y0296*
X0483*
Y0297*
X0482Y0298*
X0483Y0299*
Y03*
X0482*
X0481Y0299*
X048Y03*
X0479*
Y0299*
X048Y0298*
X0479Y0297*
Y0296*
X02385Y0173D02*
X02395D01*
X02405Y0174*
X02415Y0173*
X02425*
Y0174*
X02415Y0175*
X02425Y0176*
Y0177*
X02415*
X02405Y0176*
X02395Y0177*
X02385*
Y0176*
X02395Y0175*
X02385Y0174*
Y0173*
X04595Y00075D02*
X04605D01*
X04615Y00085*
X04625Y00075*
X04635*
Y00085*
X04625Y00095*
X04635Y00105*
Y00115*
X04625*
X04615Y00105*
X04605Y00115*
X04595*
Y00105*
X04605Y00095*
X04595Y00085*
Y00075*
X04655D02*
X04665D01*
X04675Y00085*
X04685Y00075*
X04695*
Y00085*
X04685Y00095*
X04695Y00105*
Y00115*
X04685*
X04675Y00105*
X04665Y00115*
X04655*
Y00105*
X04665Y00095*
X04655Y00085*
Y00075*
X0279Y0126D02*
X028D01*
X0281Y0127*
X0282Y0126*
X0283*
Y0127*
X0282Y0128*
X0283Y0129*
Y013*
X0282*
X0281Y0129*
X028Y013*
X0279*
Y0129*
X028Y0128*
X0279Y0127*
Y0126*
X027096Y013548D02*
X027196D01*
X027296Y013648*
X027396Y013548*
X027496*
Y013648*
X027396Y013748*
X027496Y013848*
Y013948*
X027396*
X027296Y013848*
X027196Y013948*
X027096*
Y013848*
X027196Y013748*
X027096Y013648*
Y013548*
X019045Y014145D02*
X019145D01*
X019245Y014245*
X019345Y014145*
X019445*
Y014245*
X019345Y014345*
X019445Y014445*
Y014545*
X019345*
X019245Y014445*
X019145Y014545*
X019045*
Y014445*
X019145Y014345*
X019045Y014245*
Y014145*
X01635Y01885D02*
X01645D01*
X01655Y01895*
X01665Y01885*
X01675*
Y01895*
X01665Y01905*
X01675Y01915*
Y01925*
X01665*
X01655Y01915*
X01645Y01925*
X01635*
Y01915*
X01645Y01905*
X01635Y01895*
Y01885*
X0165Y02035D02*
X0166D01*
X0167Y02045*
X0168Y02035*
X0169*
Y02045*
X0168Y02055*
X0169Y02065*
Y02075*
X0168*
X0167Y02065*
X0166Y02075*
X0165*
Y02065*
X0166Y02055*
X0165Y02045*
Y02035*
X027Y01665D02*
X0271D01*
X0272Y01675*
X0273Y01665*
X0274*
Y01675*
X0273Y01685*
X0274Y01695*
Y01705*
X0273*
X0272Y01695*
X0271Y01705*
X027*
Y01695*
X0271Y01685*
X027Y01675*
Y01665*
X0279Y01635D02*
X028D01*
X0281Y01645*
X0282Y01635*
X0283*
Y01645*
X0282Y01655*
X0283Y01665*
Y01675*
X0282*
X0281Y01665*
X028Y01675*
X0279*
Y01665*
X028Y01655*
X0279Y01645*
Y01635*
X0278Y0168D02*
X0279D01*
X028Y0169*
X0281Y0168*
X0282*
Y0169*
X0281Y017*
X0282Y0171*
Y0172*
X0281*
X028Y0171*
X0279Y0172*
X0278*
Y0171*
X0279Y017*
X0278Y0169*
Y0168*
X0258Y0167D02*
X0259D01*
X026Y0168*
X0261Y0167*
X0262*
Y0168*
X0261Y0169*
X0262Y017*
Y0171*
X0261*
X026Y017*
X0259Y0171*
X0258*
Y017*
X0259Y0169*
X0258Y0168*
Y0167*
X01595Y02605D02*
X01605D01*
X01615Y02615*
X01625Y02605*
X01635*
Y02615*
X01625Y02625*
X01635Y02635*
Y02645*
X01625*
X01615Y02635*
X01605Y02645*
X01595*
Y02635*
X01605Y02625*
X01595Y02615*
Y02605*
X0158Y0122D02*
X0159D01*
X016Y0123*
X0161Y0122*
X0162*
Y0123*
X0161Y0124*
X0162Y0125*
Y0126*
X0161*
X016Y0125*
X0159Y0126*
X0158*
Y0125*
X0159Y0124*
X0158Y0123*
Y0122*
X01305Y0156D02*
X01315D01*
X01325Y0157*
X01335Y0156*
X01345*
Y0157*
X01335Y0158*
X01345Y0159*
Y016*
X01335*
X01325Y0159*
X01315Y016*
X01305*
Y0159*
X01315Y0158*
X01305Y0157*
Y0156*
X0143Y0145D02*
X0144D01*
X0145Y0146*
X0146Y0145*
X0147*
Y0146*
X0146Y0147*
X0147Y0148*
Y0149*
X0146*
X0145Y0148*
X0144Y0149*
X0143*
Y0148*
X0144Y0147*
X0143Y0146*
Y0145*
X0431Y01135D02*
X0432D01*
X0433Y01145*
X0434Y01135*
X0435*
Y01145*
X0434Y01155*
X0435Y01165*
Y01175*
X0434*
X0433Y01165*
X0432Y01175*
X0431*
Y01165*
X0432Y01155*
X0431Y01145*
Y01135*
X04675Y0118D02*
X04685D01*
X04695Y0119*
X04705Y0118*
X04715*
Y0119*
X04705Y012*
X04715Y0121*
Y0122*
X04705*
X04695Y0121*
X04685Y0122*
X04675*
Y0121*
X04685Y012*
X04675Y0119*
Y0118*
X03555Y01515D02*
X03565D01*
X03575Y01525*
X03585Y01515*
X03595*
Y01525*
X03585Y01535*
X03595Y01545*
Y01555*
X03585*
X03575Y01545*
X03565Y01555*
X03555*
Y01545*
X03565Y01535*
X03555Y01525*
Y01515*
X02895Y02075D02*
X02905D01*
X02915Y02085*
X02925Y02075*
X02935*
Y02085*
X02925Y02095*
X02935Y02105*
Y02115*
X02925*
X02915Y02105*
X02905Y02115*
X02895*
Y02105*
X02905Y02095*
X02895Y02085*
Y02075*
X0356Y01455D02*
X0357D01*
X0358Y01465*
X0359Y01455*
X036*
Y01465*
X0359Y01475*
X036Y01485*
Y01495*
X0359*
X0358Y01485*
X0357Y01495*
X0356*
Y01485*
X0357Y01475*
X0356Y01465*
Y01455*
X01145Y0297D02*
X01155D01*
X01165Y0298*
X01175Y0297*
X01185*
Y0298*
X01175Y0299*
X01185Y03*
Y0301*
X01175*
X01165Y03*
X01155Y0301*
X01145*
Y03*
X01155Y0299*
X01145Y0298*
Y0297*
X01825Y0283D02*
X01835D01*
X01845Y0284*
X01855Y0283*
X01865*
Y0284*
X01855Y0285*
X01865Y0286*
Y0287*
X01855*
X01845Y0286*
X01835Y0287*
X01825*
Y0286*
X01835Y0285*
X01825Y0284*
Y0283*
X01635Y0248D02*
X01645D01*
X01655Y0249*
X01665Y0248*
X01675*
Y0249*
X01665Y025*
X01675Y0251*
Y0252*
X01665*
X01655Y0251*
X01645Y0252*
X01635*
Y0251*
X01645Y025*
X01635Y0249*
Y0248*
X01675Y02495D02*
X01685D01*
X01695Y02505*
X01705Y02495*
X01715*
Y02505*
X01705Y02515*
X01715Y02525*
Y02535*
X01705*
X01695Y02525*
X01685Y02535*
X01675*
Y02525*
X01685Y02515*
X01675Y02505*
Y02495*
X04495Y01145D02*
X04505D01*
X04515Y01155*
X04525Y01145*
X04535*
Y01155*
X04525Y01165*
X04535Y01175*
Y01185*
X04525*
X04515Y01175*
X04505Y01185*
X04495*
Y01175*
X04505Y01165*
X04495Y01155*
Y01145*
X04555Y01095D02*
X04565D01*
X04575Y01105*
X04585Y01095*
X04595*
Y01105*
X04585Y01115*
X04595Y01125*
Y01135*
X04585*
X04575Y01125*
X04565Y01135*
X04555*
Y01125*
X04565Y01115*
X04555Y01105*
Y01095*
X04515Y0191D02*
X04525D01*
X04535Y0192*
X04545Y0191*
X04555*
Y0192*
X04545Y0193*
X04555Y0194*
Y0195*
X04545*
X04535Y0194*
X04525Y0195*
X04515*
Y0194*
X04525Y0193*
X04515Y0192*
Y0191*
X04575Y0189D02*
X04585D01*
X04595Y019*
X04605Y0189*
X04615*
Y019*
X04605Y0191*
X04615Y0192*
Y0193*
X04605*
X04595Y0192*
X04585Y0193*
X04575*
Y0192*
X04585Y0191*
X04575Y019*
Y0189*
X03275Y0252D02*
X03285D01*
X03295Y0253*
X03305Y0252*
X03315*
Y0253*
X03305Y0254*
X03315Y0255*
Y0256*
X03305*
X03295Y0255*
X03285Y0256*
X03275*
Y0255*
X03285Y0254*
X03275Y0253*
Y0252*
X009Y01305D02*
X0091D01*
X0092Y01315*
X0093Y01305*
X0094*
Y01315*
X0093Y01325*
X0094Y01335*
Y01345*
X0093*
X0092Y01335*
X0091Y01345*
X009*
Y01335*
X0091Y01325*
X009Y01315*
Y01305*
X01315Y0101D02*
X01325D01*
X01335Y0102*
X01345Y0101*
X01355*
Y0102*
X01345Y0103*
X01355Y0104*
Y0105*
X01345*
X01335Y0104*
X01325Y0105*
X01315*
Y0104*
X01325Y0103*
X01315Y0102*
Y0101*
X01395Y0084D02*
X01405D01*
X01415Y0085*
X01425Y0084*
X01435*
Y0085*
X01425Y0086*
X01435Y0087*
Y0088*
X01425*
X01415Y0087*
X01405Y0088*
X01395*
Y0087*
X01405Y0086*
X01395Y0085*
Y0084*
X04095Y0137D02*
X04105D01*
X04115Y0138*
X04125Y0137*
X04135*
Y0138*
X04125Y0139*
X04135Y014*
Y0141*
X04125*
X04115Y014*
X04105Y0141*
X04095*
Y014*
X04105Y0139*
X04095Y0138*
Y0137*
X0419Y0191D02*
X042D01*
X0421Y0192*
X0422Y0191*
X0423*
Y0192*
X0422Y0193*
X0423Y0194*
Y0195*
X0422*
X0421Y0194*
X042Y0195*
X0419*
Y0194*
X042Y0193*
X0419Y0192*
Y0191*
X006545Y029428D02*
X006645D01*
X006745Y029528*
X006845Y029428*
X006945*
Y029528*
X006845Y029628*
X006945Y029728*
Y029828*
X006845*
X006745Y029728*
X006645Y029828*
X006545*
Y029728*
X006645Y029628*
X006545Y029528*
Y029428*
X006532Y029028D02*
X006632D01*
X006732Y029128*
X006832Y029028*
X006932*
Y029128*
X006832Y029228*
X006932Y029328*
Y029428*
X006832*
X006732Y029328*
X006632Y029428*
X006532*
Y029328*
X006632Y029228*
X006532Y029128*
Y029028*
X004715Y028576D02*
X004815D01*
X004915Y028676*
X005015Y028576*
X005115*
Y028676*
X005015Y028776*
X005115Y028876*
Y028976*
X005015*
X004915Y028876*
X004815Y028976*
X004715*
Y028876*
X004815Y028776*
X004715Y028676*
Y028576*
X004772Y02818D02*
X004872D01*
X004972Y02828*
X005072Y02818*
X005172*
Y02828*
X005072Y02838*
X005172Y02848*
Y02858*
X005072*
X004972Y02848*
X004872Y02858*
X004772*
Y02848*
X004872Y02838*
X004772Y02828*
Y02818*
Y02778D02*
X004872D01*
X004972Y02788*
X005072Y02778*
X005172*
Y02788*
X005072Y02798*
X005172Y02808*
Y02818*
X005072*
X004972Y02808*
X004872Y02818*
X004772*
Y02808*
X004872Y02798*
X004772Y02788*
Y02778*
X00484Y027386D02*
X00494D01*
X00504Y027486*
X00514Y027386*
X00524*
Y027486*
X00514Y027586*
X00524Y027686*
Y027786*
X00514*
X00504Y027686*
X00494Y027786*
X00484*
Y027686*
X00494Y027586*
X00484Y027486*
Y027386*
X004839Y026986D02*
X004939D01*
X005039Y027086*
X005139Y026986*
X005239*
Y027086*
X005139Y027186*
X005239Y027286*
Y027386*
X005139*
X005039Y027286*
X004939Y027386*
X004839*
Y027286*
X004939Y027186*
X004839Y027086*
Y026986*
X004772Y026591D02*
X004872D01*
X004972Y026691*
X005072Y026591*
X005172*
Y026691*
X005072Y026791*
X005172Y026891*
Y026991*
X005072*
X004972Y026891*
X004872Y026991*
X004772*
Y026891*
X004872Y026791*
X004772Y026691*
Y026591*
Y026191D02*
X004872D01*
X004972Y026291*
X005072Y026191*
X005172*
Y026291*
X005072Y026391*
X005172Y026491*
Y026591*
X005072*
X004972Y026491*
X004872Y026591*
X004772*
Y026491*
X004872Y026391*
X004772Y026291*
Y026191*
Y025791D02*
X004872D01*
X004972Y025891*
X005072Y025791*
X005172*
Y025891*
X005072Y025991*
X005172Y026091*
Y026191*
X005072*
X004972Y026091*
X004872Y026191*
X004772*
Y026091*
X004872Y025991*
X004772Y025891*
Y025791*
Y025391D02*
X004872D01*
X004972Y025491*
X005072Y025391*
X005172*
Y025491*
X005072Y025591*
X005172Y025691*
Y025791*
X005072*
X004972Y025691*
X004872Y025791*
X004772*
Y025691*
X004872Y025591*
X004772Y025491*
Y025391*
Y024991D02*
X004872D01*
X004972Y025091*
X005072Y024991*
X005172*
Y025091*
X005072Y025191*
X005172Y025291*
Y025391*
X005072*
X004972Y025291*
X004872Y025391*
X004772*
Y025291*
X004872Y025191*
X004772Y025091*
Y024991*
Y024591D02*
X004872D01*
X004972Y024691*
X005072Y024591*
X005172*
Y024691*
X005072Y024791*
X005172Y024891*
Y024991*
X005072*
X004972Y024891*
X004872Y024991*
X004772*
Y024891*
X004872Y024791*
X004772Y024691*
Y024591*
Y024191D02*
X004872D01*
X004972Y024291*
X005072Y024191*
X005172*
Y024291*
X005072Y024391*
X005172Y024491*
Y024591*
X005072*
X004972Y024491*
X004872Y024591*
X004772*
Y024491*
X004872Y024391*
X004772Y024291*
Y024191*
X005183Y022706D02*
X005283D01*
X005383Y022806*
X005483Y022706*
X005583*
Y022806*
X005483Y022906*
X005583Y023006*
Y023106*
X005483*
X005383Y023006*
X005283Y023106*
X005183*
Y023006*
X005283Y022906*
X005183Y022806*
Y022706*
X005171Y022307D02*
X005271D01*
X005371Y022407*
X005471Y022307*
X005571*
Y022407*
X005471Y022507*
X005571Y022607*
Y022707*
X005471*
X005371Y022607*
X005271Y022707*
X005171*
Y022607*
X005271Y022507*
X005171Y022407*
Y022307*
X004368Y021486D02*
X004468D01*
X004568Y021586*
X004668Y021486*
X004768*
Y021586*
X004668Y021686*
X004768Y021786*
Y021886*
X004668*
X004568Y021786*
X004468Y021886*
X004368*
Y021786*
X004468Y021686*
X004368Y021586*
Y021486*
X003969Y021462D02*
X004069D01*
X004169Y021562*
X004269Y021462*
X004369*
Y021562*
X004269Y021662*
X004369Y021762*
Y021862*
X004269*
X004169Y021762*
X004069Y021862*
X003969*
Y021762*
X004069Y021662*
X003969Y021562*
Y021462*
X003002Y022567D02*
X003102D01*
X003202Y022667*
X003302Y022567*
X003402*
Y022667*
X003302Y022767*
X003402Y022867*
Y022967*
X003302*
X003202Y022867*
X003102Y022967*
X003002*
Y022867*
X003102Y022767*
X003002Y022667*
Y022567*
X003427Y024475D02*
X003527D01*
X003627Y024575*
X003727Y024475*
X003827*
Y024575*
X003727Y024675*
X003827Y024775*
Y024875*
X003727*
X003627Y024775*
X003527Y024875*
X003427*
Y024775*
X003527Y024675*
X003427Y024575*
Y024475*
Y024875D02*
X003527D01*
X003627Y024975*
X003727Y024875*
X003827*
Y024975*
X003727Y025075*
X003827Y025175*
Y025275*
X003727*
X003627Y025175*
X003527Y025275*
X003427*
Y025175*
X003527Y025075*
X003427Y024975*
Y024875*
Y025275D02*
X003527D01*
X003627Y025375*
X003727Y025275*
X003827*
Y025375*
X003727Y025475*
X003827Y025575*
Y025675*
X003727*
X003627Y025575*
X003527Y025675*
X003427*
Y025575*
X003527Y025475*
X003427Y025375*
Y025275*
Y025675D02*
X003527D01*
X003627Y025775*
X003727Y025675*
X003827*
Y025775*
X003727Y025875*
X003827Y025975*
Y026075*
X003727*
X003627Y025975*
X003527Y026075*
X003427*
Y025975*
X003527Y025875*
X003427Y025775*
Y025675*
Y026075D02*
X003527D01*
X003627Y026175*
X003727Y026075*
X003827*
Y026175*
X003727Y026275*
X003827Y026375*
Y026475*
X003727*
X003627Y026375*
X003527Y026475*
X003427*
Y026375*
X003527Y026275*
X003427Y026175*
Y026075*
Y026475D02*
X003527D01*
X003627Y026575*
X003727Y026475*
X003827*
Y026575*
X003727Y026675*
X003827Y026775*
Y026875*
X003727*
X003627Y026775*
X003527Y026875*
X003427*
Y026775*
X003527Y026675*
X003427Y026575*
Y026475*
X003382Y026873D02*
X003482D01*
X003582Y026973*
X003682Y026873*
X003782*
Y026973*
X003682Y027073*
X003782Y027173*
Y027273*
X003682*
X003582Y027173*
X003482Y027273*
X003382*
Y027173*
X003482Y027073*
X003382Y026973*
Y026873*
X003355Y027272D02*
X003455D01*
X003555Y027372*
X003655Y027272*
X003755*
Y027372*
X003655Y027472*
X003755Y027572*
Y027672*
X003655*
X003555Y027572*
X003455Y027672*
X003355*
Y027572*
X003455Y027472*
X003355Y027372*
Y027272*
X003427Y028065D02*
X003527D01*
X003627Y028165*
X003727Y028065*
X003827*
Y028165*
X003727Y028265*
X003827Y028365*
Y028465*
X003727*
X003627Y028365*
X003527Y028465*
X003427*
Y028365*
X003527Y028265*
X003427Y028165*
Y028065*
X003448Y028465D02*
X003548D01*
X003648Y028565*
X003748Y028465*
X003848*
Y028565*
X003748Y028665*
X003848Y028765*
Y028865*
X003748*
X003648Y028765*
X003548Y028865*
X003448*
Y028765*
X003548Y028665*
X003448Y028565*
Y028465*
X0032Y02775D02*
X0033D01*
X0034Y02785*
X0035Y02775*
X0036*
Y02785*
X0035Y02795*
X0036Y02805*
Y02815*
X0035*
X0034Y02805*
X0033Y02815*
X0032*
Y02805*
X0033Y02795*
X0032Y02785*
Y02775*
X003292Y029102D02*
X003392D01*
X003492Y029202*
X003592Y029102*
X003692*
Y029202*
X003592Y029302*
X003692Y029402*
Y029502*
X003592*
X003492Y029402*
X003392Y029502*
X003292*
Y029402*
X003392Y029302*
X003292Y029202*
Y029102*
X003302Y029502D02*
X003402D01*
X003502Y029602*
X003602Y029502*
X003702*
Y029602*
X003602Y029702*
X003702Y029802*
Y029902*
X003602*
X003502Y029802*
X003402Y029902*
X003302*
Y029802*
X003402Y029702*
X003302Y029602*
Y029502*
X003496Y029852D02*
X003596D01*
X003696Y029952*
X003796Y029852*
X003896*
Y029952*
X003796Y030052*
X003896Y030152*
Y030252*
X003796*
X003696Y030152*
X003596Y030252*
X003496*
Y030152*
X003596Y030052*
X003496Y029952*
Y029852*
X0053Y0302D02*
X0054D01*
X0055Y0303*
X0056Y0302*
X0057*
Y0303*
X0056Y0304*
X0057Y0305*
Y0306*
X0056*
X0055Y0305*
X0054Y0306*
X0053*
Y0305*
X0054Y0304*
X0053Y0303*
Y0302*
X0048Y03025D02*
X0049D01*
X005Y03035*
X0051Y03025*
X0052*
Y03035*
X0051Y03045*
X0052Y03055*
Y03065*
X0051*
X005Y03055*
X0049Y03065*
X0048*
Y03055*
X0049Y03045*
X0048Y03035*
Y03025*
X00435Y0303D02*
X00445D01*
X00455Y0304*
X00465Y0303*
X00475*
Y0304*
X00465Y0305*
X00475Y0306*
Y0307*
X00465*
X00455Y0306*
X00445Y0307*
X00435*
Y0306*
X00445Y0305*
X00435Y0304*
Y0303*
X00375Y03025D02*
X00385D01*
X00395Y03035*
X00405Y03025*
X00415*
Y03035*
X00405Y03045*
X00415Y03055*
Y03065*
X00405*
X00395Y03055*
X00385Y03065*
X00375*
Y03055*
X00385Y03045*
X00375Y03035*
Y03025*
X002708Y016144D02*
X002808D01*
X002908Y016244*
X003008Y016144*
X003108*
Y016244*
X003008Y016344*
X003108Y016444*
Y016544*
X003008*
X002908Y016444*
X002808Y016544*
X002708*
Y016444*
X002808Y016344*
X002708Y016244*
Y016144*
X004614Y015722D02*
X004714D01*
X004814Y015822*
X004914Y015722*
X005014*
Y015822*
X004914Y015922*
X005014Y016022*
Y016122*
X004914*
X004814Y016022*
X004714Y016122*
X004614*
Y016022*
X004714Y015922*
X004614Y015822*
Y015722*
X005014D02*
X005114D01*
X005214Y015822*
X005314Y015722*
X005414*
Y015822*
X005314Y015922*
X005414Y016022*
Y016122*
X005314*
X005214Y016022*
X005114Y016122*
X005014*
Y016022*
X005114Y015922*
X005014Y015822*
Y015722*
X005414D02*
X005514D01*
X005614Y015822*
X005714Y015722*
X005814*
Y015822*
X005714Y015922*
X005814Y016022*
Y016122*
X005714*
X005614Y016022*
X005514Y016122*
X005414*
Y016022*
X005514Y015922*
X005414Y015822*
Y015722*
X005814D02*
X005914D01*
X006014Y015822*
X006114Y015722*
X006214*
Y015822*
X006114Y015922*
X006214Y016022*
Y016122*
X006114*
X006014Y016022*
X005914Y016122*
X005814*
Y016022*
X005914Y015922*
X005814Y015822*
Y015722*
X006213Y015695D02*
X006313D01*
X006413Y015795*
X006513Y015695*
X006613*
Y015795*
X006513Y015895*
X006613Y015995*
Y016095*
X006513*
X006413Y015995*
X006313Y016095*
X006213*
Y015995*
X006313Y015895*
X006213Y015795*
Y015695*
X006608Y015757D02*
X006708D01*
X006808Y015857*
X006908Y015757*
X007008*
Y015857*
X006908Y015957*
X007008Y016057*
Y016157*
X006908*
X006808Y016057*
X006708Y016157*
X006608*
Y016057*
X006708Y015957*
X006608Y015857*
Y015757*
X007404Y015722D02*
X007504D01*
X007604Y015822*
X007704Y015722*
X007804*
Y015822*
X007704Y015922*
X007804Y016022*
Y016122*
X007704*
X007604Y016022*
X007504Y016122*
X007404*
Y016022*
X007504Y015922*
X007404Y015822*
Y015722*
X007804Y015721D02*
X007904D01*
X008004Y015821*
X008104Y015721*
X008204*
Y015821*
X008104Y015921*
X008204Y016021*
Y016121*
X008104*
X008004Y016021*
X007904Y016121*
X007804*
Y016021*
X007904Y015921*
X007804Y015821*
Y015721*
X008204Y015722D02*
X008304D01*
X008404Y015822*
X008504Y015722*
X008604*
Y015822*
X008504Y015922*
X008604Y016022*
Y016122*
X008504*
X008404Y016022*
X008304Y016122*
X008204*
Y016022*
X008304Y015922*
X008204Y015822*
Y015722*
X008601Y015673D02*
X008701D01*
X008801Y015773*
X008901Y015673*
X009001*
Y015773*
X008901Y015873*
X009001Y015973*
Y016073*
X008901*
X008801Y015973*
X008701Y016073*
X008601*
Y015973*
X008701Y015873*
X008601Y015773*
Y015673*
X008919Y015431D02*
X009019D01*
X009119Y015531*
X009219Y015431*
X009319*
Y015531*
X009219Y015631*
X009319Y015731*
Y015831*
X009219*
X009119Y015731*
X009019Y015831*
X008919*
Y015731*
X009019Y015631*
X008919Y015531*
Y015431*
X009202Y015148D02*
X009302D01*
X009402Y015248*
X009502Y015148*
X009602*
Y015248*
X009502Y015348*
X009602Y015448*
Y015548*
X009502*
X009402Y015448*
X009302Y015548*
X009202*
Y015448*
X009302Y015348*
X009202Y015248*
Y015148*
X007475Y014384D02*
X007575D01*
X007675Y014484*
X007775Y014384*
X007875*
Y014484*
X007775Y014584*
X007875Y014684*
Y014784*
X007775*
X007675Y014684*
X007575Y014784*
X007475*
Y014684*
X007575Y014584*
X007475Y014484*
Y014384*
X007079Y014324D02*
X007179D01*
X007279Y014424*
X007379Y014324*
X007479*
Y014424*
X007379Y014524*
X007479Y014624*
Y014724*
X007379*
X007279Y014624*
X007179Y014724*
X007079*
Y014624*
X007179Y014524*
X007079Y014424*
Y014324*
X006679Y014328D02*
X006779D01*
X006879Y014428*
X006979Y014328*
X007079*
Y014428*
X006979Y014528*
X007079Y014628*
Y014728*
X006979*
X006879Y014628*
X006779Y014728*
X006679*
Y014628*
X006779Y014528*
X006679Y014428*
Y014328*
X006284Y014388D02*
X006384D01*
X006484Y014488*
X006584Y014388*
X006684*
Y014488*
X006584Y014588*
X006684Y014688*
Y014788*
X006584*
X006484Y014688*
X006384Y014788*
X006284*
Y014688*
X006384Y014588*
X006284Y014488*
Y014388*
X005884Y014377D02*
X005984D01*
X006084Y014477*
X006184Y014377*
X006284*
Y014477*
X006184Y014577*
X006284Y014677*
Y014777*
X006184*
X006084Y014677*
X005984Y014777*
X005884*
Y014677*
X005984Y014577*
X005884Y014477*
Y014377*
X005484D02*
X005584D01*
X005684Y014477*
X005784Y014377*
X005884*
Y014477*
X005784Y014577*
X005884Y014677*
Y014777*
X005784*
X005684Y014677*
X005584Y014777*
X005484*
Y014677*
X005584Y014577*
X005484Y014477*
Y014377*
X005084D02*
X005184D01*
X005284Y014477*
X005384Y014377*
X005484*
Y014477*
X005384Y014577*
X005484Y014677*
Y014777*
X005384*
X005284Y014677*
X005184Y014777*
X005084*
Y014677*
X005184Y014577*
X005084Y014477*
Y014377*
X004684D02*
X004784D01*
X004884Y014477*
X004984Y014377*
X005084*
Y014477*
X004984Y014577*
X005084Y014677*
Y014777*
X004984*
X004884Y014677*
X004784Y014777*
X004684*
Y014677*
X004784Y014577*
X004684Y014477*
Y014377*
X004284D02*
X004384D01*
X004484Y014477*
X004584Y014377*
X004684*
Y014477*
X004584Y014577*
X004684Y014677*
Y014777*
X004584*
X004484Y014677*
X004384Y014777*
X004284*
Y014677*
X004384Y014577*
X004284Y014477*
Y014377*
X002795Y013964D02*
X002895D01*
X002995Y014064*
X003095Y013964*
X003195*
Y014064*
X003095Y014164*
X003195Y014264*
Y014364*
X003095*
X002995Y014264*
X002895Y014364*
X002795*
Y014264*
X002895Y014164*
X002795Y014064*
Y013964*
X002396Y013981D02*
X002496D01*
X002596Y014081*
X002696Y013981*
X002796*
Y014081*
X002696Y014181*
X002796Y014281*
Y014381*
X002696*
X002596Y014281*
X002496Y014381*
X002396*
Y014281*
X002496Y014181*
X002396Y014081*
Y013981*
X001583Y014791D02*
X001683D01*
X001783Y014891*
X001883Y014791*
X001983*
Y014891*
X001883Y014991*
X001983Y015091*
Y015191*
X001883*
X001783Y015091*
X001683Y015191*
X001583*
Y015091*
X001683Y014991*
X001583Y014891*
Y014791*
X001564Y015191D02*
X001664D01*
X001764Y015291*
X001864Y015191*
X001964*
Y015291*
X001864Y015391*
X001964Y015491*
Y015591*
X001864*
X001764Y015491*
X001664Y015591*
X001564*
Y015491*
X001664Y015391*
X001564Y015291*
Y015191*
X008586Y013277D02*
X008686D01*
X008786Y013377*
X008886Y013277*
X008986*
Y013377*
X008886Y013477*
X008986Y013577*
Y013677*
X008886*
X008786Y013577*
X008686Y013677*
X008586*
Y013577*
X008686Y013477*
X008586Y013377*
Y013277*
X008186D02*
X008286D01*
X008386Y013377*
X008486Y013277*
X008586*
Y013377*
X008486Y013477*
X008586Y013577*
Y013677*
X008486*
X008386Y013577*
X008286Y013677*
X008186*
Y013577*
X008286Y013477*
X008186Y013377*
Y013277*
X007819Y013118D02*
X007919D01*
X008019Y013218*
X008119Y013118*
X008219*
Y013218*
X008119Y013318*
X008219Y013418*
Y013518*
X008119*
X008019Y013418*
X007919Y013518*
X007819*
Y013418*
X007919Y013318*
X007819Y013218*
Y013118*
X007622Y01277D02*
X007722D01*
X007822Y01287*
X007922Y01277*
X008022*
Y01287*
X007922Y01297*
X008022Y01307*
Y01317*
X007922*
X007822Y01307*
X007722Y01317*
X007622*
Y01307*
X007722Y01297*
X007622Y01287*
Y01277*
X007621Y01237D02*
X007721D01*
X007821Y01247*
X007921Y01237*
X008021*
Y01247*
X007921Y01257*
X008021Y01267*
Y01277*
X007921*
X007821Y01267*
X007721Y01277*
X007621*
Y01267*
X007721Y01257*
X007621Y01247*
Y01237*
X007662Y011574D02*
X007762D01*
X007862Y011674*
X007962Y011574*
X008062*
Y011674*
X007962Y011774*
X008062Y011874*
Y011974*
X007962*
X007862Y011874*
X007762Y011974*
X007662*
Y011874*
X007762Y011774*
X007662Y011674*
Y011574*
X0076Y011179D02*
X0077D01*
X0078Y011279*
X0079Y011179*
X008*
Y011279*
X0079Y011379*
X008Y011479*
Y011579*
X0079*
X0078Y011479*
X0077Y011579*
X0076*
Y011479*
X0077Y011379*
X0076Y011279*
Y011179*
X007622Y01078D02*
X007722D01*
X007822Y01088*
X007922Y01078*
X008022*
Y01088*
X007922Y01098*
X008022Y01108*
Y01118*
X007922*
X007822Y01108*
X007722Y01118*
X007622*
Y01108*
X007722Y01098*
X007622Y01088*
Y01078*
X00761Y01038D02*
X00771D01*
X00781Y01048*
X00791Y01038*
X00801*
Y01048*
X00791Y01058*
X00801Y01068*
Y01078*
X00791*
X00781Y01068*
X00771Y01078*
X00761*
Y01068*
X00771Y01058*
X00761Y01048*
Y01038*
X007426Y010025D02*
X007526D01*
X007626Y010125*
X007726Y010025*
X007826*
Y010125*
X007726Y010225*
X007826Y010325*
Y010425*
X007726*
X007626Y010325*
X007526Y010425*
X007426*
Y010325*
X007526Y010225*
X007426Y010125*
Y010025*
X007143Y009742D02*
X007243D01*
X007343Y009842*
X007443Y009742*
X007543*
Y009842*
X007443Y009942*
X007543Y010042*
Y010142*
X007443*
X007343Y010042*
X007243Y010142*
X007143*
Y010042*
X007243Y009942*
X007143Y009842*
Y009742*
X00686Y009459D02*
X00696D01*
X00706Y009559*
X00716Y009459*
X00726*
Y009559*
X00716Y009659*
X00726Y009759*
Y009859*
X00716*
X00706Y009759*
X00696Y009859*
X00686*
Y009759*
X00696Y009659*
X00686Y009559*
Y009459*
X006578Y009176D02*
X006678D01*
X006778Y009276*
X006878Y009176*
X006978*
Y009276*
X006878Y009376*
X006978Y009476*
Y009576*
X006878*
X006778Y009476*
X006678Y009576*
X006578*
Y009476*
X006678Y009376*
X006578Y009276*
Y009176*
X006242Y008958D02*
X006342D01*
X006442Y009058*
X006542Y008958*
X006642*
Y009058*
X006542Y009158*
X006642Y009258*
Y009358*
X006542*
X006442Y009258*
X006342Y009358*
X006242*
Y009258*
X006342Y009158*
X006242Y009058*
Y008958*
X005843Y008927D02*
X005943D01*
X006043Y009027*
X006143Y008927*
X006243*
Y009027*
X006143Y009127*
X006243Y009227*
Y009327*
X006143*
X006043Y009227*
X005943Y009327*
X005843*
Y009227*
X005943Y009127*
X005843Y009027*
Y008927*
X005443D02*
X005543D01*
X005643Y009027*
X005743Y008927*
X005843*
Y009027*
X005743Y009127*
X005843Y009227*
Y009327*
X005743*
X005643Y009227*
X005543Y009327*
X005443*
Y009227*
X005543Y009127*
X005443Y009027*
Y008927*
X005043D02*
X005143D01*
X005243Y009027*
X005343Y008927*
X005443*
Y009027*
X005343Y009127*
X005443Y009227*
Y009327*
X005343*
X005243Y009227*
X005143Y009327*
X005043*
Y009227*
X005143Y009127*
X005043Y009027*
Y008927*
X004643D02*
X004743D01*
X004843Y009027*
X004943Y008927*
X005043*
Y009027*
X004943Y009127*
X005043Y009227*
Y009327*
X004943*
X004843Y009227*
X004743Y009327*
X004643*
Y009227*
X004743Y009127*
X004643Y009027*
Y008927*
X002742Y008507D02*
X002842D01*
X002942Y008607*
X003042Y008507*
X003142*
Y008607*
X003042Y008707*
X003142Y008807*
Y008907*
X003042*
X002942Y008807*
X002842Y008907*
X002742*
Y008807*
X002842Y008707*
X002742Y008607*
Y008507*
X001572Y009394D02*
X001672D01*
X001772Y009494*
X001872Y009394*
X001972*
Y009494*
X001872Y009594*
X001972Y009694*
Y009794*
X001872*
X001772Y009694*
X001672Y009794*
X001572*
Y009694*
X001672Y009594*
X001572Y009494*
Y009394*
X001571Y009794D02*
X001671D01*
X001771Y009894*
X001871Y009794*
X001971*
Y009894*
X001871Y009994*
X001971Y010094*
Y010194*
X001871*
X001771Y010094*
X001671Y010194*
X001571*
Y010094*
X001671Y009994*
X001571Y009894*
Y009794*
X002731Y010693D02*
X002831D01*
X002931Y010793*
X003031Y010693*
X003131*
Y010793*
X003031Y010893*
X003131Y010993*
Y011093*
X003031*
X002931Y010993*
X002831Y011093*
X002731*
Y010993*
X002831Y010893*
X002731Y010793*
Y010693*
X004634Y010272D02*
X004734D01*
X004834Y010372*
X004934Y010272*
X005034*
Y010372*
X004934Y010472*
X005034Y010572*
Y010672*
X004934*
X004834Y010572*
X004734Y010672*
X004634*
Y010572*
X004734Y010472*
X004634Y010372*
Y010272*
X005034D02*
X005134D01*
X005234Y010372*
X005334Y010272*
X005434*
Y010372*
X005334Y010472*
X005434Y010572*
Y010672*
X005334*
X005234Y010572*
X005134Y010672*
X005034*
Y010572*
X005134Y010472*
X005034Y010372*
Y010272*
X005434D02*
X005534D01*
X005634Y010372*
X005734Y010272*
X005834*
Y010372*
X005734Y010472*
X005834Y010572*
Y010672*
X005734*
X005634Y010572*
X005534Y010672*
X005434*
Y010572*
X005534Y010472*
X005434Y010372*
Y010272*
X005829Y010331D02*
X005929D01*
X006029Y010431*
X006129Y010331*
X006229*
Y010431*
X006129Y010531*
X006229Y010631*
Y010731*
X006129*
X006029Y010631*
X005929Y010731*
X005829*
Y010631*
X005929Y010531*
X005829Y010431*
Y010331*
X006112Y010613D02*
X006212D01*
X006312Y010713*
X006412Y010613*
X006512*
Y010713*
X006412Y010813*
X006512Y010913*
Y011013*
X006412*
X006312Y010913*
X006212Y011013*
X006112*
Y010913*
X006212Y010813*
X006112Y010713*
Y010613*
X006279Y010977D02*
X006379D01*
X006479Y011077*
X006579Y010977*
X006679*
Y011077*
X006579Y011177*
X006679Y011277*
Y011377*
X006579*
X006479Y011277*
X006379Y011377*
X006279*
Y011277*
X006379Y011177*
X006279Y011077*
Y010977*
X006277Y011377D02*
X006377D01*
X006477Y011477*
X006577Y011377*
X006677*
Y011477*
X006577Y011577*
X006677Y011677*
Y011777*
X006577*
X006477Y011677*
X006377Y011777*
X006277*
Y011677*
X006377Y011577*
X006277Y011477*
Y011377*
X006221Y011773D02*
X006321D01*
X006421Y011873*
X006521Y011773*
X006621*
Y011873*
X006521Y011973*
X006621Y012073*
Y012173*
X006521*
X006421Y012073*
X006321Y012173*
X006221*
Y012073*
X006321Y011973*
X006221Y011873*
Y011773*
X006251Y012172D02*
X006351D01*
X006451Y012272*
X006551Y012172*
X006651*
Y012272*
X006551Y012372*
X006651Y012472*
Y012572*
X006551*
X006451Y012472*
X006351Y012572*
X006251*
Y012472*
X006351Y012372*
X006251Y012272*
Y012172*
X006303Y012568D02*
X006403D01*
X006503Y012668*
X006603Y012568*
X006703*
Y012668*
X006603Y012768*
X006703Y012868*
Y012968*
X006603*
X006503Y012868*
X006403Y012968*
X006303*
Y012868*
X006403Y012768*
X006303Y012668*
Y012568*
X006277Y012968D02*
X006377D01*
X006477Y013068*
X006577Y012968*
X006677*
Y013068*
X006577Y013168*
X006677Y013268*
Y013368*
X006577*
X006477Y013268*
X006377Y013368*
X006277*
Y013268*
X006377Y013168*
X006277Y013068*
Y012968*
X006301Y013367D02*
X006401D01*
X006501Y013467*
X006601Y013367*
X006701*
Y013467*
X006601Y013567*
X006701Y013667*
Y013767*
X006601*
X006501Y013667*
X006401Y013767*
X006301*
Y013667*
X006401Y013567*
X006301Y013467*
Y013367*
X006508Y013709D02*
X006608D01*
X006708Y013809*
X006808Y013709*
X006908*
Y013809*
X006808Y013909*
X006908Y014009*
Y014109*
X006808*
X006708Y014009*
X006608Y014109*
X006508*
Y014009*
X006608Y013909*
X006508Y013809*
Y013709*
X00935Y01265D02*
X00945D01*
X00955Y01275*
X00965Y01265*
X00975*
Y01275*
X00965Y01285*
X00975Y01295*
Y01305*
X00965*
X00955Y01295*
X00945Y01305*
X00935*
Y01295*
X00945Y01285*
X00935Y01275*
Y01265*
X00925Y0121D02*
X00935D01*
X00945Y0122*
X00955Y0121*
X00965*
Y0122*
X00955Y0123*
X00965Y0124*
Y0125*
X00955*
X00945Y0124*
X00935Y0125*
X00925*
Y0124*
X00935Y0123*
X00925Y0122*
Y0121*
X0093Y01165D02*
X0094D01*
X0095Y01175*
X0096Y01165*
X0097*
Y01175*
X0096Y01185*
X0097Y01195*
Y01205*
X0096*
X0095Y01195*
X0094Y01205*
X0093*
Y01195*
X0094Y01185*
X0093Y01175*
Y01165*
X01135Y01155D02*
X01145D01*
X01155Y01165*
X01165Y01155*
X01175*
Y01165*
X01165Y01175*
X01175Y01185*
Y01195*
X01165*
X01155Y01185*
X01145Y01195*
X01135*
Y01185*
X01145Y01175*
X01135Y01165*
Y01155*
Y0111D02*
X01145D01*
X01155Y0112*
X01165Y0111*
X01175*
Y0112*
X01165Y0113*
X01175Y0114*
Y0115*
X01165*
X01155Y0114*
X01145Y0115*
X01135*
Y0114*
X01145Y0113*
X01135Y0112*
Y0111*
X01145Y00905D02*
X01155D01*
X01165Y00915*
X01175Y00905*
X01185*
Y00915*
X01175Y00925*
X01185Y00935*
Y00945*
X01175*
X01165Y00935*
X01155Y00945*
X01145*
Y00935*
X01155Y00925*
X01145Y00915*
Y00905*
X009865Y009463D02*
X009965D01*
X010065Y009563*
X010165Y009463*
X010265*
Y009563*
X010165Y009663*
X010265Y009763*
Y009863*
X010165*
X010065Y009763*
X009965Y009863*
X009865*
Y009763*
X009965Y009663*
X009865Y009563*
Y009463*
X009878Y009863D02*
X009978D01*
X010078Y009963*
X010178Y009863*
X010278*
Y009963*
X010178Y010063*
X010278Y010163*
Y010263*
X010178*
X010078Y010163*
X009978Y010263*
X009878*
Y010163*
X009978Y010063*
X009878Y009963*
Y009863*
X009868Y010263D02*
X009968D01*
X010068Y010363*
X010168Y010263*
X010268*
Y010363*
X010168Y010463*
X010268Y010563*
Y010663*
X010168*
X010068Y010563*
X009968Y010663*
X009868*
Y010563*
X009968Y010463*
X009868Y010363*
Y010263*
X009905Y010661D02*
X010005D01*
X010105Y010761*
X010205Y010661*
X010305*
Y010761*
X010205Y010861*
X010305Y010961*
Y011061*
X010205*
X010105Y010961*
X010005Y011061*
X009905*
Y010961*
X010005Y010861*
X009905Y010761*
Y010661*
X009877Y01106D02*
X009977D01*
X010077Y01116*
X010177Y01106*
X010277*
Y01116*
X010177Y01126*
X010277Y01136*
Y01146*
X010177*
X010077Y01136*
X009977Y01146*
X009877*
Y01136*
X009977Y01126*
X009877Y01116*
Y01106*
X0118Y011D02*
X0119D01*
X012Y0111*
X0121Y011*
X0122*
Y0111*
X0121Y0112*
X0122Y0113*
Y0114*
X0121*
X012Y0113*
X0119Y0114*
X0118*
Y0113*
X0119Y0112*
X0118Y0111*
Y011*
X01235Y01095D02*
X01245D01*
X01255Y01105*
X01265Y01095*
X01275*
Y01105*
X01265Y01115*
X01275Y01125*
Y01135*
X01265*
X01255Y01125*
X01245Y01135*
X01235*
Y01125*
X01245Y01115*
X01235Y01105*
Y01095*
X01245Y01055D02*
X01255D01*
X01265Y01065*
X01275Y01055*
X01285*
Y01065*
X01275Y01075*
X01285Y01085*
Y01095*
X01275*
X01265Y01085*
X01255Y01095*
X01245*
Y01085*
X01255Y01075*
X01245Y01065*
Y01055*
Y0101D02*
X01255D01*
X01265Y0102*
X01275Y0101*
X01285*
Y0102*
X01275Y0103*
X01285Y0104*
Y0105*
X01275*
X01265Y0104*
X01255Y0105*
X01245*
Y0104*
X01255Y0103*
X01245Y0102*
Y0101*
X0123Y0097D02*
X0124D01*
X0125Y0098*
X0126Y0097*
X0127*
Y0098*
X0126Y0099*
X0127Y01*
Y0101*
X0126*
X0125Y01*
X0124Y0101*
X0123*
Y01*
X0124Y0099*
X0123Y0098*
Y0097*
X00515Y02845D02*
X00525D01*
X00535Y02855*
X00545Y02845*
X00555*
Y02855*
X00545Y02865*
X00555Y02875*
Y02885*
X00545*
X00535Y02875*
X00525Y02885*
X00515*
Y02875*
X00525Y02865*
X00515Y02855*
Y02845*
X03825Y01275D02*
X03835D01*
X03845Y01285*
X03855Y01275*
X03865*
Y01285*
X03855Y01295*
X03865Y01305*
Y01315*
X03855*
X03845Y01305*
X03835Y01315*
X03825*
Y01305*
X03835Y01295*
X03825Y01285*
Y01275*
X0374Y0131D02*
X0375D01*
X0376Y0132*
X0377Y0131*
X0378*
Y0132*
X0377Y0133*
X0378Y0134*
Y0135*
X0377*
X0376Y0134*
X0375Y0135*
X0374*
Y0134*
X0375Y0133*
X0374Y0132*
Y0131*
X0243Y00235D02*
X0244D01*
X0245Y00245*
X0246Y00235*
X0247*
Y00245*
X0246Y00255*
X0247Y00265*
Y00275*
X0246*
X0245Y00265*
X0244Y00275*
X0243*
Y00265*
X0244Y00255*
X0243Y00245*
Y00235*
X01825Y0044D02*
X01835D01*
X01845Y0045*
X01855Y0044*
X01865*
Y0045*
X01855Y0046*
X01865Y0047*
Y0048*
X01855*
X01845Y0047*
X01835Y0048*
X01825*
Y0047*
X01835Y0046*
X01825Y0045*
Y0044*
X019Y0033D02*
X0191D01*
X0192Y0034*
X0193Y0033*
X0194*
Y0034*
X0193Y0035*
X0194Y0036*
Y0037*
X0193*
X0192Y0036*
X0191Y0037*
X019*
Y0036*
X0191Y0035*
X019Y0034*
Y0033*
X0278Y00265D02*
X0279D01*
X028Y00275*
X0281Y00265*
X0282*
Y00275*
X0281Y00285*
X0282Y00295*
Y00305*
X0281*
X028Y00295*
X0279Y00305*
X0278*
Y00295*
X0279Y00285*
X0278Y00275*
Y00265*
G54D155*
X0526Y0303D02*
D01*
D01*
G75*
G03X0522I-000200J0D01*
G74*G01*
D01*
G75*
G03X0526I000200J0D01*
G74*G01*
X0516D02*
D01*
D01*
G75*
G03X0512I-000200J0D01*
G74*G01*
D01*
G75*
G03X0516I000200J0D01*
G74*G01*
X01945Y02485D02*
D01*
D01*
G75*
G03X01905I-000200J0D01*
G74*G01*
D01*
G75*
G03X01945I000200J0D01*
G74*G01*
X01845D02*
D01*
D01*
G75*
G03X01805I-000200J0D01*
G74*G01*
D01*
G75*
G03X01845I000200J0D01*
G74*G01*
X01895Y03025D02*
D01*
D01*
G75*
G03X01855I-000200J0D01*
G74*G01*
D01*
G75*
G03X01895I000200J0D01*
G74*G01*
Y02925D02*
D01*
D01*
G75*
G03X01855I-000200J0D01*
G74*G01*
D01*
G75*
G03X01895I000200J0D01*
G74*G01*
X00785Y00155D02*
D01*
D01*
G75*
G03X00745I-000200J0D01*
G74*G01*
D01*
G75*
G03X00785I000200J0D01*
G74*G01*
X00685D02*
D01*
D01*
G75*
G03X00645I-000200J0D01*
G74*G01*
D01*
G75*
G03X00685I000200J0D01*
G74*G01*
X04285Y0259D02*
D01*
D01*
G75*
G03X04245I-000200J0D01*
G74*G01*
D01*
G75*
G03X04285I000200J0D01*
G74*G01*
X04185D02*
D01*
D01*
G75*
G03X04145I-000200J0D01*
G74*G01*
D01*
G75*
G03X04185I000200J0D01*
G74*G01*
X038Y00205D02*
D01*
D01*
G75*
G03X0376I-000200J0D01*
G74*G01*
D01*
G75*
G03X038I000200J0D01*
G74*G01*
X037D02*
D01*
D01*
G75*
G03X0366I-000200J0D01*
G74*G01*
D01*
G75*
G03X037I000200J0D01*
G74*G01*
X02935Y00425D02*
D01*
D01*
G75*
G03X02895I-000200J0D01*
G74*G01*
D01*
G75*
G03X02935I000200J0D01*
G74*G01*
X03035D02*
D01*
D01*
G75*
G03X02995I-000200J0D01*
G74*G01*
D01*
G75*
G03X03035I000200J0D01*
G74*G01*
X03135D02*
D01*
D01*
G75*
G03X03095I-000200J0D01*
G74*G01*
D01*
G75*
G03X03135I000200J0D01*
G74*G01*
Y00525D02*
D01*
D01*
G75*
G03X03095I-000200J0D01*
G74*G01*
D01*
G75*
G03X03135I000200J0D01*
G74*G01*
X03035D02*
D01*
D01*
G75*
G03X02995I-000200J0D01*
G74*G01*
D01*
G75*
G03X03035I000200J0D01*
G74*G01*
X02935D02*
D01*
D01*
G75*
G03X02895I-000200J0D01*
G74*G01*
D01*
G75*
G03X02935I000200J0D01*
G74*G01*
X0239Y01575D02*
D01*
D01*
G75*
G03X0235I-000200J0D01*
G74*G01*
D01*
G75*
G03X0239I000200J0D01*
G74*G01*
X0249D02*
D01*
D01*
G75*
G03X0245I-000200J0D01*
G74*G01*
D01*
G75*
G03X0249I000200J0D01*
G74*G01*
X03495Y018D02*
D01*
D01*
G75*
G03X03455I-000200J0D01*
G74*G01*
D01*
G75*
G03X03495I000200J0D01*
G74*G01*
X03395D02*
D01*
D01*
G75*
G03X03355I-000200J0D01*
G74*G01*
D01*
G75*
G03X03395I000200J0D01*
G74*G01*
X0118Y02295D02*
D01*
D01*
G75*
G03X0114I-000200J0D01*
G74*G01*
D01*
G75*
G03X0118I000200J0D01*
G74*G01*
X0108D02*
D01*
D01*
G75*
G03X0104I-000200J0D01*
G74*G01*
D01*
G75*
G03X0108I000200J0D01*
G74*G01*
X0098D02*
D01*
D01*
G75*
G03X0094I-000200J0D01*
G74*G01*
D01*
G75*
G03X0098I000200J0D01*
G74*G01*
X0088D02*
D01*
D01*
G75*
G03X0084I-000200J0D01*
G74*G01*
D01*
G75*
G03X0088I000200J0D01*
G74*G01*
M02*